<svg xmlns="http://www.w3.org/2000/svg" width="24" height="24" viewBox="0 0 24 24" fill="none">
<path d="M3 4V13.5C3 13.7761 3.22386 14 3.5 14V6.55C3.5 4.89315 4.84315 3.55 6.5 3.55H18C18 3.24624 17.7538 3 17.45 3H4C3.44772 3 3 3.44771 3 4Z" fill="#a093fb" stroke="#a093fb" stroke-width="1.5"/>
<path fill-rule="evenodd" clip-rule="evenodd" d="M7 6C6.44772 6 6 6.44772 6 7V17C6 17.5523 6.44772 18 7 18H15L18.1464 21.1464C18.4614 21.4614 19 21.2383 19 20.7929V18H20C20.5523 18 21 17.5523 21 17V7C21 6.44772 20.5523 6 20 6H7Z" fill="#a093fb"/>
<path d="M15 18L15.5303 17.4697C15.3897 17.329 15.1989 17.25 15 17.25V18ZM18.1464 21.1464L18.6768 20.6161H18.6768L18.1464 21.1464ZM19 18V17.25C18.5858 17.25 18.25 17.5858 18.25 18H19ZM6.75 7C6.75 6.86193 6.86193 6.75 7 6.75V5.25C6.0335 5.25 5.25 6.0335 5.25 7H6.75ZM6.75 17V7H5.25V17H6.75ZM7 17.25C6.86193 17.25 6.75 17.1381 6.75 17H5.25C5.25 17.9665 6.0335 18.75 7 18.75V17.25ZM15 17.25H7V18.75H15V17.25ZM14.4697 18.5303L17.6161 21.6768L18.6768 20.6161L15.5303 17.4697L14.4697 18.5303ZM17.6161 21.6768C18.4036 22.4642 19.75 21.9065 19.75 20.7929H18.25C18.25 20.5702 18.5193 20.4586 18.6768 20.6161L17.6161 21.6768ZM19.75 20.7929V18H18.25V20.7929H19.75ZM20 17.25H19V18.75H20V17.25ZM20.25 17C20.25 17.1381 20.1381 17.25 20 17.25V18.75C20.9665 18.75 21.75 17.9665 21.75 17H20.25ZM20.25 7V17H21.75V7H20.25ZM20 6.75C20.1381 6.75 20.25 6.86193 20.25 7H21.75C21.75 6.0335 20.9665 5.25 20 5.25V6.75ZM7 6.75H20V5.25H7V6.75Z" fill="#a093fb"/>
<rect x="9" y="9" width="9" height="1" fill="white"/>
<rect x="9" y="11.5" width="9" height="1" fill="white"/>
</svg>