<svg width="24" height="24" viewBox="0 0 24 24" fill="none" xmlns="http://www.w3.org/2000/svg">
<path d="M8.75 21H4C3.44772 21 3 20.5523 3 20V9.82066C3 9.49434 3.15921 9.18855 3.42654 9.00142L11.4265 3.40142C11.7709 3.1604 12.2291 3.1604 12.5735 3.40142L20.5735 9.00142C20.8408 9.18855 21 9.49434 21 9.82065V20C21 20.5523 20.5523 21 20 21H15.25C14.6977 21 14.25 20.5523 14.25 20V15.25C14.25 14.6977 13.8023 14.25 13.25 14.25H10.75C10.1977 14.25 9.75 14.6977 9.75 15.25V20C9.75 20.5523 9.30228 21 8.75 21Z" stroke="#222222" stroke-width="1.5" stroke-linecap="round"/>
</svg>
