<svg width="240" height="240" viewBox="0 0 240 240" fill="none" xmlns="http://www.w3.org/2000/svg">
<g clip-path="url(#clip0_936_9186)">
<rect width="1366" height="768" transform="translate(-49 -35)" fill="white"/>
<path d="M209.861 68.3099C210.001 74.3299 210.581 80.3499 209.751 86.3699C210.751 88.4699 209.591 90.8299 210.521 92.9399C209.861 95.3499 209.321 97.7699 209.731 100.29C209.281 101.75 210.261 103.23 209.681 104.69C209.681 107.1 209.691 109.52 209.701 111.93C210.631 114.73 209.941 117.61 210.161 120.45C209.941 122.64 210.661 124.91 209.681 127.04C209.971 127.7 210.271 128.36 210.561 129.02C209.771 130.7 210.331 132.5 210.151 134.23C209.111 138.57 210.251 142.84 210.531 147.14C210.531 148.22 210.531 149.31 210.531 150.39C211.041 156.05 207.461 161.71 210.531 167.37C211.861 176.59 210.221 179.75 198.381 180.13C195.041 180.24 191.691 180 188.351 179.93C186.221 179.45 184.081 179.39 181.961 179.97C169.331 182.51 156.361 178.21 143.601 181.51C145.501 188.43 151.111 192.84 153.311 199.27C155.531 205.76 153.821 208.87 146.871 208.9C140.851 208.92 134.841 208.81 128.821 208.76C126.621 208.11 124.421 208.16 122.221 208.73C120.221 206.79 118.371 209.03 116.401 208.98C108.441 208.79 100.461 209 92.4906 208.87C86.5106 208.77 84.6206 205.67 87.2506 200.36C88.8506 197.13 90.7406 194.04 92.5106 190.89C94.1906 187.9 94.0906 184.2 96.8606 181.39C81.6006 180.07 66.8006 181.89 52.0806 180.33C49.9406 180.88 47.7906 180.92 45.6606 180.31C44.6306 180.29 43.5906 180.26 42.5606 180.24C40.1306 181.39 37.4306 180.07 34.9806 181.06C28.6006 181.17 27.3206 178.86 29.8706 171.83C30.8706 168.98 29.6606 165.94 30.6006 163.09C29.4606 161.09 29.5506 158.94 29.8806 156.77C31.2306 155.61 31.5806 154.19 30.9606 152.53C30.6006 151.46 30.2406 150.39 29.8806 149.32C32.7106 147.47 33.0206 145.38 30.4806 143.02C30.2406 142.33 30.2306 141.62 30.4206 140.92C32.5906 139.45 30.7006 138.13 30.2606 136.75C30.3606 135.24 29.9806 133.69 30.6006 132.22C30.3606 131.54 30.1206 130.85 29.8806 130.17C31.0906 129.11 31.0906 128.04 29.8806 126.98C29.8806 125.92 29.8806 124.85 29.8806 123.79C32.7106 121.31 33.5106 118.82 29.8806 116.34C29.8806 110.66 29.8806 104.99 29.8806 99.3099C32.2706 96.6799 31.7906 93.7799 30.6406 90.8299C28.7206 87.3899 30.0206 83.7199 29.8806 80.1499C32.3806 78.8899 33.0906 73.1999 37.6506 76.9899C38.6506 78.9299 38.7506 81.0499 38.8706 83.1599C38.5706 85.1799 38.5106 87.2199 38.3806 89.2499C37.6906 91.3899 38.0306 93.4299 39.0006 95.4199C38.8106 99.1299 39.5806 102.94 38.0106 106.52C35.4406 110.24 37.0706 113.83 38.3906 117.42C38.6306 117.86 38.8006 118.32 38.9206 118.81C39.0606 119.55 39.0106 120.29 38.8206 121.02C35.7806 125.01 38.0106 129.17 38.4206 133.28C38.4406 134.01 38.4006 134.74 38.3006 135.46C37.7806 137.79 35.4906 140.12 38.3006 142.45C38.5006 142.87 38.6106 143.32 38.6306 143.79C37.8206 145.55 38.0906 147.22 39.0706 148.84C39.3106 149.55 39.4406 150.28 39.4906 151.03C39.5706 152.59 39.5106 154.14 38.9306 155.61C38.2506 160.97 37.1606 166.36 40.2006 171.39C41.2206 171.47 42.2306 171.35 43.2506 171.34C45.8306 171.32 48.4006 171.31 50.9806 171.29C53.0706 171.3 55.1606 171.3 57.2606 171.29C59.0806 171.29 60.8906 171.3 62.7106 171.29C64.5406 171.28 66.3706 171.33 68.1906 171.2C86.3206 170.58 104.461 171.06 122.581 170.34C123.641 170.3 124.701 170.34 125.741 170.54C127.721 171.06 129.711 171.49 131.791 171.27C132.381 171.22 132.961 171.24 133.551 171.27C136.801 171.33 140.051 171.33 143.291 171.25C144.191 171.18 145.081 171.19 145.981 171.24C148.371 171.35 150.771 171.28 153.161 171.28C155.531 171.29 157.911 171.3 160.281 171.28C162.601 171.28 164.941 171.43 167.191 170.64C169.251 170.22 171.321 170.22 173.381 170.64C176.751 171.71 180.221 171.19 183.651 171.28C188.781 171.14 193.871 170.23 199.011 170.6C201.521 171.36 202.091 170.07 201.841 167.9C201.861 165.18 200.271 162.46 201.871 159.76C203.671 157.01 206.451 154.25 201.831 151.53C201.491 150.82 201.471 150.11 201.781 149.39C205.951 146.97 204.371 144.76 201.521 142.59C200.751 140.69 201.221 138.82 201.651 136.95C201.941 134.08 201.911 131.23 201.021 128.44C200.471 122.98 200.281 117.51 201.091 112.06C204.801 107.34 204.571 102.49 201.511 97.5699C201.341 96.8099 201.361 96.0599 201.571 95.3099C203.521 92.7199 201.721 90.3299 201.151 87.8699C200.921 84.7899 199.901 81.7699 200.401 78.6299C202.861 76.4399 204.891 74.2299 200.731 71.7199C200.411 71.0299 200.381 70.3199 200.591 69.5999C202.011 66.9999 203.851 64.3999 200.511 61.8299C199.961 60.6399 199.941 59.4399 200.421 58.2299C200.751 57.5899 201.321 57.1899 201.881 56.7499C202.671 56.1299 203.941 55.5099 203.011 54.2999C202.411 53.5199 201.381 54.2299 200.551 54.4299C198.771 54.8899 196.981 54.8999 195.181 54.6899C194.661 54.6199 194.151 54.4899 193.651 54.3199C191.891 53.5799 190.171 52.7399 188.331 52.1899C184.621 51.0799 183.951 49.1199 186.631 46.2099C187.031 45.8899 187.491 45.7199 188.001 45.6699C189.841 46.3399 191.511 48.6999 193.671 46.2499C196.161 46.2499 198.661 46.2499 201.151 46.2599C203.551 47.5499 206.651 47.0499 208.701 49.2199C210.851 51.4399 208.911 54.2799 209.851 56.6899C210.191 57.3799 210.171 58.0899 210.011 58.8199C210.101 61.7999 205.271 64.4999 209.491 67.7199C209.611 67.9299 209.731 68.1399 209.851 68.3499L209.861 68.3099Z" fill="#333333"/>
<path d="M37.2894 76.9399C35.9894 77.0199 34.2994 75.5399 33.6994 78.1899C33.2894 80.0299 31.5094 80.1299 29.8994 80.0999C29.8894 70.9099 29.8694 61.7199 29.8594 52.5299C30.8294 50.7999 29.7194 48.7699 30.6694 47.0399C32.0494 45.3299 34.0094 45.0399 36.0194 44.8499C38.1094 44.0699 40.2694 44.6299 42.3994 44.4599C44.2194 44.6099 46.0794 44.1099 47.8594 44.8399C49.9494 44.8499 52.0294 44.8699 54.1194 44.8799C56.5294 43.9899 59.0294 44.6599 61.4794 44.4499C63.6294 44.4499 65.7894 44.4499 67.9394 44.4499C69.7594 44.5899 71.6194 44.1199 73.3994 44.8199C81.8994 44.8199 90.3994 44.8099 98.8994 44.7999C101.049 44.2599 103.199 44.2399 105.349 44.8099C107.529 46.7899 110.179 45.8399 112.659 45.9699C116.169 44.7299 119.899 46.2399 123.419 45.1199C128.769 44.2699 134.019 45.5799 139.309 45.8699C142.499 44.8399 145.889 46.2299 149.069 45.0699C154.389 44.2899 159.519 46.8499 164.839 45.9599C167.269 44.8199 169.969 46.1399 172.419 45.1399C176.039 44.0099 179.409 46.5599 183.009 45.8799C184.479 45.4699 185.949 45.0199 187.299 46.1999C185.559 48.9799 186.119 50.6999 189.519 51.2499C191.089 51.4999 192.519 52.1299 193.689 53.2699C189.209 57.3799 184.069 56.2499 178.929 55.1399C176.519 53.5599 173.949 53.5299 171.299 54.3899C168.209 54.6499 165.139 55.9199 161.999 54.7299C160.259 53.7799 158.489 53.4399 156.659 54.4999C155.239 55.2199 153.819 55.3699 152.389 54.5299C150.759 53.5899 148.969 53.8199 147.209 53.8199C143.659 53.9999 140.059 53.3999 136.559 54.4299C132.959 55.5399 129.349 55.0399 125.749 54.4599C122.849 53.6299 119.979 53.3499 117.199 54.9099C109.179 55.2499 101.169 54.5799 93.1494 54.5599C91.0294 53.8899 88.8394 53.7199 86.6294 53.8199C86.0894 53.8599 85.5394 53.8499 84.9994 53.8299C83.1194 53.7599 81.2394 53.6999 79.3594 53.9399C78.5594 54.1699 77.7494 54.3599 76.9294 54.5299C74.9294 54.9399 72.8894 54.8399 70.8594 54.9799C67.2894 54.9199 63.6994 55.2199 60.1494 54.5899C57.3894 53.6799 54.5994 53.6799 51.7794 54.3299C51.0794 54.3899 50.3794 54.3499 49.6794 54.2899C43.0527 53.6566 39.736 56.6433 39.7294 63.2499C39.6994 65.3499 39.7194 67.4399 39.7294 69.5299C39.1794 72.0799 40.9894 75.3999 37.3094 76.9199L37.2894 76.9399Z" fill="#333333"/>
<path d="M210.531 167.36C207.331 165.31 206.331 162.56 208.661 159.39C210.731 156.58 208.401 153.05 210.531 150.38C210.531 156.04 210.531 161.7 210.531 167.36Z" fill="#333333"/>
<path d="M29.9004 116.29C32.0304 116.25 34.0404 116.14 34.0204 119.3C34.0004 122.22 33.0704 123.92 29.9004 123.74C29.9004 121.26 29.9004 118.77 29.9004 116.29Z" fill="#333333"/>
<path d="M210.529 147.13C210.479 142.84 206.099 138.83 209.679 134.3C210.059 133.88 210.339 133.93 210.539 134.47C210.619 134.79 210.729 135.11 210.849 135.42C211.439 137.21 211.409 139.01 210.869 140.81C210.759 142.92 210.649 145.03 210.529 147.14V147.13Z" fill="#333333"/>
<path d="M30.9998 142.9C33.0798 143.13 34.0498 144.34 33.9098 146.38C33.7298 148.88 31.9798 149.34 29.8998 149.29C29.1998 148.02 30.5298 147.24 30.6398 146.16C30.2398 145.02 29.8498 143.87 30.9998 142.9Z" fill="#333333"/>
<path d="M208.7 49.1801C205.88 48.9701 203.07 48.7301 201.15 46.2201C203.93 46.5401 207.8 44.0701 208.7 49.1801Z" fill="#333333"/>
<path d="M30.6602 90.7798C31.4702 93.6998 35.6402 96.9198 29.9002 99.2598C29.2202 96.3498 31.8802 93.7398 30.6602 90.7798Z" fill="#333333"/>
<path d="M209.46 58.8401C209.59 58.1101 209.72 57.3801 209.85 56.6401C211.18 60.5301 211.26 64.4101 209.85 68.3001L209.69 68.5401L209.42 68.4501C207.05 65.2401 209.17 62.0401 209.45 58.8401H209.46Z" fill="#CFCFD1"/>
<path d="M193.679 46.2099C191.849 51.6099 190.109 48.2299 188.359 46.1599C188.989 45.3799 189.739 45.4799 190.519 45.8699C191.569 45.9799 192.629 46.0999 193.679 46.2099Z" fill="#333333"/>
<path d="M30.9696 152.5C33.3496 154.61 34.3696 156.37 29.8896 156.74C29.3096 155.09 29.9896 153.76 30.9696 152.5Z" fill="#333333"/>
<path d="M123.41 45.1298C119.94 46.9598 116.23 45.6698 112.65 45.9798C116.09 43.8698 119.82 45.3098 123.41 45.1298Z" fill="#4C4C4D"/>
<path d="M29.9004 126.93C31.1004 127.02 32.7104 126.76 32.7104 128.53C32.7104 130.3 31.1004 130.03 29.9004 130.13V126.94V126.93Z" fill="#333333"/>
<path d="M149.061 45.0798C145.951 47.0198 142.571 45.7398 139.301 45.8798C142.431 44.0898 145.801 45.3098 149.061 45.0798Z" fill="#ABAAAD"/>
<path d="M30.6093 163.06C30.3893 165.98 31.7793 169.03 29.8793 171.8C30.1793 168.89 28.6993 165.83 30.6093 163.06Z" fill="#B3B2B5"/>
<path d="M209.66 120.52C209.68 117.65 209.69 114.79 209.71 111.92C211.69 114.65 210.48 117.68 210.53 120.58C210.21 121.01 209.92 120.97 209.66 120.51V120.52Z" fill="#58585A"/>
<path d="M61.7694 44.7898C59.2194 44.8198 56.6694 44.8498 54.1094 44.8798C56.4194 43.0198 59.0694 44.1398 61.5794 44.0398C61.9194 44.1298 62.0594 44.2698 61.9994 44.4598C61.9394 44.6798 61.8594 44.7898 61.7694 44.7898Z" fill="#7B7A7D"/>
<path d="M172.41 45.1502C170.03 46.8002 167.36 45.7302 164.83 45.9702C167.18 44.0302 169.86 45.2102 172.41 45.1502Z" fill="#616163"/>
<path d="M190.52 45.8698C189.8 45.9698 189.08 46.0598 188.36 46.1598C188.01 46.1798 187.65 46.1998 187.3 46.2098C185.87 46.0998 184.44 45.9898 183.01 45.8898C185.51 44.5798 188.02 44.2898 190.53 45.8698H190.52Z" fill="#C8C8C9"/>
<path d="M209.69 104.68C209.17 103.21 207.64 101.72 209.74 100.28C211.22 101.76 211.23 103.23 209.69 104.68Z" fill="#333333"/>
<path d="M35 181.03C37.37 179.3 40.06 180.55 42.58 180.21C40.25 182.25 37.54 180.88 35 181.03Z" fill="#6D6C6F"/>
<path d="M61.7701 44.7902C61.7101 44.5402 61.6501 44.2902 61.5801 44.0402C63.7301 44.0002 65.8801 43.9702 68.0301 43.9302C68.3601 44.0802 68.4701 44.2402 68.3901 44.4302C68.3001 44.6202 68.2001 44.7202 68.1001 44.7202C65.9901 44.7402 63.8801 44.7702 61.7701 44.7902Z" fill="#B3B3B6"/>
<path d="M122.23 208.72C124.44 207.26 126.63 207.39 128.83 208.75C126.63 208.75 124.43 208.73 122.23 208.72Z" fill="#98989B"/>
<path d="M210.53 92.9299C208.75 90.9199 210.01 88.5499 209.76 86.3599C211.7 88.3499 210.36 90.7299 210.53 92.9299Z" fill="#7B7A7D"/>
<path d="M105.341 44.8099C103.191 44.8099 101.041 44.8099 98.8906 44.7999C101.041 43.3899 103.201 43.4199 105.341 44.8099Z" fill="#CAC9CB"/>
<path d="M209.66 120.52C209.95 120.55 210.24 120.57 210.53 120.59C210.44 122.76 211.64 125.1 209.69 127.04C209.69 124.87 209.67 122.7 209.66 120.53V120.52Z" fill="#333333"/>
<path d="M31.0001 142.9C30.8801 143.99 30.7601 145.07 30.6401 146.16C29.3201 143.98 29.1601 141.8 30.6301 139.62C30.9401 139.81 31.0901 140.05 31.0701 140.32C31.0501 140.62 31.0001 140.77 30.9101 140.77C30.9401 141.48 30.9701 142.19 30.9901 142.9H31.0001Z" fill="#ACACAE"/>
<path d="M30.9106 140.77C30.8206 140.39 30.7206 140 30.6306 139.62C30.7806 139.32 30.8006 139.01 30.6806 138.7C30.3106 138.2 30.3906 137.82 30.9906 137.58C31.8206 137.74 32.6506 137.92 32.7606 138.97C32.8906 140.31 31.9806 140.62 30.9206 140.77H30.9106Z" fill="#333333"/>
<path d="M45.6699 180.29L52.0899 180.31C49.9399 181.71 47.7999 181.71 45.6699 180.29Z" fill="#D4D4D6"/>
<path d="M42.5395 44.85C40.3695 44.85 38.1895 44.85 36.0195 44.85C37.9795 43.18 40.2195 44.02 42.3795 44.13C42.7695 44.21 42.9295 44.35 42.8395 44.54C42.7495 44.75 42.6495 44.86 42.5395 44.86V44.85Z" fill="#979699"/>
<path d="M181.961 179.96C184.081 178.59 186.221 178.67 188.351 179.92C186.221 179.93 184.091 179.94 181.961 179.96Z" fill="#535254"/>
<path d="M30.9799 137.58C30.8799 137.95 30.7799 138.33 30.6699 138.7C29.2699 136.54 29.1199 134.37 30.6099 132.18C30.7299 133.98 30.8499 135.78 30.9799 137.58Z" fill="#A7A6A9"/>
<path d="M210.87 140.8C210.87 139 210.86 137.21 210.85 135.41C212.27 137.2 212.19 139 210.87 140.8Z" fill="#C8C8C9"/>
<path d="M30.6709 47.0298C30.5409 48.8798 31.5109 50.8998 29.8609 52.5198C29.8809 50.6498 29.0409 48.6598 30.6709 47.0298Z" fill="#A1A1A4"/>
<path d="M210.539 134.47C210.249 134.43 209.969 134.37 209.679 134.3C209.849 132.52 208.979 130.56 210.569 129.01C210.569 130.83 210.549 132.64 210.539 134.46V134.47Z" fill="#79797C"/>
<path d="M68.0993 44.7202C68.0993 44.4602 68.0693 44.1902 68.0293 43.9302C69.8493 44.0402 71.7993 43.2902 73.3893 44.8202C71.6293 44.7902 69.8593 44.7502 68.0993 44.7202Z" fill="#D0CFD1"/>
<path d="M42.5409 44.85C42.4909 44.61 42.4309 44.3601 42.3809 44.1201C44.2409 44.0801 46.2109 43.18 47.8509 44.84C46.0809 44.84 44.3109 44.84 42.5409 44.85Z" fill="#C0BFC1"/>
<path d="M153.16 53.6302C154.41 55.7702 155.31 53.5602 156.37 53.3702C158.18 52.7102 160 52.8502 161.82 53.2702C164.96 55.4502 168.13 52.5802 171.27 53.3102C173.77 52.9502 176.27 52.4302 178.71 53.5902C183.75 55.8202 188.71 54.3002 193.68 53.2902C194 53.4302 194.33 53.5402 194.67 53.6002C196.81 54.6902 199.25 53.4002 201.39 54.4702C202.11 55.5802 202.06 56.6702 201.32 57.7502C201.32 59.1702 201.32 60.5902 201.32 62.0102C203.29 64.4902 203.1 66.9802 201.32 69.4602C201.32 70.1702 201.32 70.8802 201.32 71.5902C202.76 73.7202 202.83 75.8502 201.32 77.9802L202.39 88.6502C202.54 90.7702 202.82 92.8902 202.39 95.0102C202.39 95.7302 202.4 96.4502 202.41 97.1702C202.63 97.6002 202.66 98.0502 202.48 98.5002C202 100.6 202.63 102.64 202.8 104.71C202.57 106.79 202.82 108.9 202.42 110.96C202.4 116.98 202.38 122.99 202.36 129.01C203.42 131.82 202.01 134.88 203.19 137.68C202.14 139.31 201.98 141.07 202.4 142.92C203.89 145.05 203.89 147.18 202.4 149.31V151.44C204.19 154.13 204.23 156.97 203.15 159.92C200.29 162.72 204.66 165.55 203.12 168.35C202.19 169.6 203.68 173.03 200.01 171.82C194.75 172.08 189.48 172.34 184.22 172.6C180.67 171.48 176.94 172.82 173.38 171.85C171.28 171.85 169.19 171.85 167.09 171.85C165.01 172.51 162.87 172.04 160.77 172.18C158.37 172.18 155.98 172.18 153.58 172.18C150.95 172.37 148.29 171.77 145.69 172.55C145.05 172.55 144.42 172.56 143.78 172.57C140.15 171.9 136.52 171.97 132.89 172.54L132.5 172.62L132.1 172.56C130.32 171.72 128.34 172.59 126.54 171.9C120.66 172.65 114.76 171.76 108.8 172.51C102.48 173.3 95.9496 172.09 89.5296 171.91C84.5696 171.78 79.5396 172.95 74.4796 172.74C72.3696 172.65 70.2596 172.65 68.1496 172.61C66.2896 171.75 64.3196 172.37 62.4096 172.18C60.6996 172.18 58.9896 172.18 57.2696 172.18C55.2196 172.18 53.1796 172.18 51.1296 172.18C48.2296 172.42 45.2696 171.65 42.4096 172.67C41.3796 172.76 40.3396 172.84 39.3096 172.93C37.1096 172.69 37.8396 170.95 37.7896 169.74C37.6196 165.78 37.9896 161.8 37.4996 157.85C38.8696 155.46 39.3496 152.97 38.4196 150.3C38.3096 149.61 38.2096 148.92 38.0996 148.24C37.3396 146.84 37.3496 145.43 38.0896 144.02C38.1196 143.64 38.1496 143.26 38.1796 142.88C38.1796 142.64 38.1796 142.41 38.1896 142.17C38.0596 140.53 38.1696 138.89 38.0196 137.25C37.8596 136.59 37.6596 135.94 37.2396 135.39C37.2396 134.74 37.2396 134.08 37.2396 133.43C38.5096 131.34 37.2396 129.18 37.4096 127.06C37.8196 124.17 39.1896 121.4 38.4696 118.37L38.1796 118.47C36.6896 114.63 36.4696 110.7 37.2996 106.7C37.5596 102.8 37.8196 98.9002 38.0896 95.0002C37.3396 93.2502 37.7696 91.4202 37.7496 89.6202C37.8996 87.5202 37.4096 85.3902 38.0896 83.3202C37.0196 81.3002 37.0596 79.1402 37.3096 76.9602C39.4196 74.7202 37.6296 71.9302 38.3696 69.5002C39.1096 67.3602 38.9896 65.2002 38.4296 63.0402C37.9496 50.6802 35.8796 51.3202 52.0696 53.3002C54.5696 52.8102 57.0696 52.7702 59.5596 53.3202C63.4496 53.4402 67.3296 53.5502 71.2196 53.6702C73.3496 54.0902 75.4896 54.6602 77.5196 53.3102C77.7196 52.7802 77.9796 52.3502 78.6696 52.6002C80.8196 53.2202 82.9796 53.1902 85.1296 52.6202C85.4296 52.4402 85.7396 52.4302 86.0496 52.5702C88.1396 53.6002 90.5096 52.4002 92.6096 53.3702C100.76 53.4502 108.91 53.5202 117.06 53.6002C119.86 52.5002 122.7 52.9302 125.55 53.3102C129.1 53.4702 132.65 54.1302 136.2 53.3102C140.15 52.7102 144.14 53.4502 148.1 53.0002C149.78 53.2802 151.61 52.3602 153.16 53.6602V53.6302Z" fill="#EEEBFF"/>
<path d="M127.609 200.23H118.139C115.259 199.59 112.379 199.59 109.499 200.23C107.009 198.82 104.579 200.37 102.109 200.41C98.6393 200.47 96.7293 199.4 99.0093 195.91C100.989 192.88 101.399 189.3 103.589 186.17C106.719 181.7 110.329 180.03 115.359 180.16C117.479 180.22 119.699 180.54 121.719 180.08C132.069 177.76 135.939 184.63 139.449 192.2C140.729 194.97 143.799 196.63 144.329 200.11C141.229 201.04 138.329 198.41 135.259 199.46C132.779 200.42 130.079 199.2 127.599 200.22L127.609 200.23Z" fill="#EEEBFF"/>
<path d="M202.39 110.94C200.62 108.93 200.87 106.81 202.03 104.64C201.49 102.47 201.46 100.3 202.05 98.1402C202.16 97.8102 202.28 97.4902 202.39 97.1602C204.19 99.8802 205.78 102.54 205.51 106.15C205.32 108.59 204.55 110.07 202.4 110.95L202.39 110.94Z" fill="#333333"/>
<path d="M37.27 106.67C39.21 110.47 37.39 114.55 38.15 118.44C34.77 114.13 34.45 109.83 37.27 106.67Z" fill="#333333"/>
<path d="M203.131 159.89C203.681 156.99 201.171 154.37 202.381 151.41C207.651 152.76 207.691 153.25 203.131 159.89Z" fill="#333333"/>
<path d="M202.369 149.29C202.369 147.16 202.369 145.03 202.369 142.9C204.759 142.82 206.519 143.58 206.369 146.35C206.239 148.86 204.459 149.34 202.369 149.29Z" fill="#333333"/>
<path d="M209.459 58.8398C209.449 62.0398 209.439 65.2498 209.429 68.4498C205.889 66.7598 203.629 64.8598 207.979 61.4598C208.709 60.8898 208.979 59.7298 209.459 58.8398Z" fill="#333333"/>
<path d="M38.3509 156.8C38.7409 162.16 36.9909 167.65 39.2709 172.9C38.4009 173.54 37.4609 173.57 37.3409 172.38C36.8409 167.18 37.6409 161.9 36.4509 156.73C36.4009 156.51 37.4809 156.03 38.0409 155.67C38.4509 155.83 38.6309 156.05 38.5809 156.33C38.5309 156.64 38.4509 156.8 38.3409 156.8H38.3509Z" fill="#333333"/>
<path d="M201.311 77.9701C201.311 75.8401 201.311 73.7101 201.311 71.5801C203.201 72.0301 205.301 72.3401 205.301 74.9201C205.301 77.5101 203.461 78.0201 201.311 77.9701Z" fill="#333333"/>
<path d="M201.309 57.7401C201.209 56.7101 201.099 55.6901 200.999 54.6601C200.689 54.4001 200.599 54.1601 200.729 53.9401C200.849 53.7301 200.969 53.6201 201.089 53.6201C201.649 52.4301 202.279 51.4701 203.859 52.2501C205.159 52.9001 205.529 53.9401 205.279 55.2601C204.859 57.4901 203.179 57.7601 201.319 57.7401H201.309Z" fill="#333333"/>
<path d="M38.3798 126.97C37.6998 129.06 39.1698 131.55 37.1998 133.41C36.6898 129.07 33.8098 124.56 38.0798 120.55C39.2498 122.64 38.8298 124.8 38.3698 126.97H38.3798Z" fill="#333333"/>
<path d="M201.311 69.45C202.771 66.97 200.761 64.48 201.311 62C204.891 63.34 204.891 65.8 201.311 69.45Z" fill="#333333"/>
<path d="M37.1995 135.36C37.5895 135.73 37.9795 136.1 38.3595 136.47C38.9795 138.63 38.9295 140.8 38.3895 142.97L38.1295 142.85C32.7395 140.99 36.1195 138.03 37.1895 135.36H37.1995Z" fill="#333333"/>
<path d="M202.369 95.0001C199.999 92.8801 201.929 90.7601 202.369 88.6401C202.689 90.7601 206.519 92.8801 202.369 95.0001Z" fill="#333333"/>
<path d="M132.859 172.52C136.489 171.2 140.129 171.03 143.749 172.55C140.119 172.54 136.489 172.53 132.859 172.52Z" fill="#898891"/>
<path d="M173.359 171.82C176.989 171.86 180.699 170.68 184.199 172.57C180.569 172.5 176.879 173.44 173.359 171.82Z" fill="#86858E"/>
<path d="M109.5 200.23C112.38 198.74 115.26 198.94 118.14 200.23C115.26 200.23 112.38 200.23 109.5 200.23Z" fill="#A5A3AF"/>
<path d="M38.3798 126.97C38.2798 124.83 38.1798 122.69 38.0898 120.55C38.2098 119.82 38.3198 119.08 38.4398 118.35C39.8898 121.23 39.6898 124.11 38.3898 126.97H38.3798Z" fill="#BAB8C6"/>
<path d="M42.3809 172.65C45.0509 170.58 48.0509 171.97 50.9009 171.82C51.2909 171.92 51.4509 172.08 51.3809 172.29C51.3009 172.53 51.2109 172.65 51.1009 172.65C48.1909 172.65 45.2909 172.65 42.3809 172.65Z" fill="#4D4C4F"/>
<path d="M203.16 137.66C201.3 134.92 202.47 131.89 202.33 128.99C204.17 131.73 202.94 134.76 203.16 137.66Z" fill="#818088"/>
<path d="M145.66 172.53C148.04 170.64 150.74 172.07 153.28 171.79C153.58 172.02 153.66 172.22 153.52 172.37C153.4 172.5 153.27 172.57 153.14 172.57C150.65 172.56 148.16 172.54 145.66 172.53Z" fill="#92919B"/>
<path d="M153.129 172.57C153.179 172.31 153.229 172.05 153.279 171.79C155.759 171.79 158.229 171.81 160.709 171.82C161.019 172.04 161.109 172.24 160.969 172.4C160.849 172.55 160.729 172.63 160.599 172.63C158.109 172.61 155.619 172.58 153.119 172.56L153.129 172.57Z" fill="#6B6A70"/>
<path d="M127.609 200.23C130.029 198.65 132.679 199.4 135.269 199.47C132.849 201.08 130.189 200.3 127.609 200.23Z" fill="#A9A7B3"/>
<path d="M38.3508 156.8C38.2508 156.42 38.1508 156.05 38.0508 155.67C38.1608 153.87 38.2708 152.07 38.3808 150.26C39.8208 152.45 39.8308 154.62 38.3508 156.8Z" fill="#9795A1"/>
<path d="M38.0607 83.2998C38.0607 85.4298 38.0507 87.5698 38.0407 89.6998C37.7407 90.1498 37.4507 90.1498 37.1607 89.6798C37.4607 87.5498 36.4207 85.2398 38.0507 83.2998H38.0607Z" fill="#444446"/>
<path d="M199.99 171.79C202.71 172.15 201.71 169.16 203.1 168.32C202.91 170.24 204.72 173.95 199.99 171.79Z" fill="#86858E"/>
<path d="M38.0498 143.99C38.0498 145.4 38.0498 146.8 38.0598 148.21C35.7498 146.81 35.7398 145.4 38.0498 143.99Z" fill="#333333"/>
<path d="M37.1703 89.6802C37.4603 89.6802 37.7503 89.6902 38.0503 89.7002C38.0503 91.4602 38.0503 93.2202 38.0603 94.9802C36.0903 93.4902 36.8503 91.5502 37.1703 89.6802Z" fill="#333333"/>
<path d="M51.0906 172.65C51.0106 172.38 50.9406 172.1 50.8906 171.82C53.0806 171.81 55.2706 171.79 57.4706 171.78C57.7506 172.03 57.8206 172.24 57.6706 172.4C57.5406 172.53 57.4206 172.6 57.2806 172.6C55.2106 172.62 53.1506 172.63 51.0806 172.65H51.0906Z" fill="#93919C"/>
<path d="M160.609 172.64C160.649 172.37 160.689 172.1 160.709 171.83C162.829 171.83 164.939 171.83 167.059 171.83C165.079 173.42 162.769 172.48 160.609 172.65V172.64Z" fill="#4D4D4F"/>
<path d="M201.08 53.6199C201.14 53.9699 201.11 54.3199 201 54.6599C198.91 54.1599 196.55 55.3398 194.67 53.5898C196.81 53.5898 198.94 53.6098 201.08 53.6098V53.6199Z" fill="#8E8C96"/>
<path d="M126.51 171.88C128.39 171.83 130.39 170.86 132.07 172.54C130.2 172.43 128.21 173.43 126.51 171.88Z" fill="#807F88"/>
<path d="M62.6305 171.82C64.5005 171.78 66.4805 170.98 68.1205 172.59L62.8105 172.63C62.4705 172.52 62.3305 172.36 62.3905 172.15C62.4605 171.93 62.5305 171.81 62.6305 171.81V171.82Z" fill="#95949F"/>
<path d="M62.6291 171.82C62.6891 172.09 62.7491 172.36 62.8091 172.63C60.9691 172.63 59.1291 172.61 57.2891 172.6C57.3491 172.32 57.4091 172.05 57.4691 171.78C59.1891 171.79 60.9091 171.81 62.6191 171.82H62.6291Z" fill="#5A595D"/>
<path d="M147.859 53.3198C143.969 54.3898 140.089 53.8098 136.199 53.2798C140.009 51.4298 144.049 52.8398 147.959 52.4598C148.279 52.6898 148.369 52.8898 148.229 53.0698C148.109 53.2298 147.979 53.3198 147.859 53.3198Z" fill="#3D3D3E"/>
<path d="M125.551 53.2901C122.721 53.3901 119.891 53.4801 117.061 53.5801C119.831 51.6101 122.681 52.1301 125.551 53.2901Z" fill="#545458"/>
<path d="M59.5506 53.31C57.0506 53.31 54.5605 53.29 52.0605 53.29C54.5605 51.89 57.0606 51.98 59.5506 53.31Z" fill="#5A595E"/>
<path d="M178.71 53.5901C176.23 53.5001 173.75 53.4001 171.27 53.3101C173.8 52.1601 176.3 51.5001 178.71 53.5901Z" fill="#6D6C73"/>
<path d="M92.6108 53.35C90.4108 53.17 88.0508 54.36 86.0508 52.55C88.2508 52.69 90.6108 51.57 92.6108 53.35Z" fill="#898891"/>
<path d="M38.4096 63.02C39.8096 65.19 39.8096 67.34 38.3496 69.48C38.3696 67.33 38.3896 65.18 38.4096 63.02Z" fill="#B6B4C2"/>
<path d="M77.5109 53.29C75.5209 55.35 73.3909 54.89 71.2109 53.65C73.3109 53.53 75.4109 53.41 77.5109 53.29Z" fill="#B9B7C5"/>
<path d="M85.1201 52.6001C82.9601 54.0201 80.8102 53.9001 78.6602 52.5801C80.8102 52.5801 82.9701 52.5901 85.1201 52.6001Z" fill="#B7B5C3"/>
<path d="M147.859 53.3201C147.889 53.0301 147.919 52.7501 147.959 52.4601C149.749 52.6101 151.779 51.6501 153.159 53.6301C151.399 53.5301 149.629 53.4201 147.869 53.3201H147.859Z" fill="#5A595D"/>
<path d="M161.819 53.2701C159.999 53.3001 158.179 53.3401 156.369 53.3701C158.169 52.1401 159.979 51.7501 161.819 53.2701Z" fill="#7C7B83"/>
<path d="M51.9802 156.6C48.0002 157.27 44.5502 156.72 42.6502 152.56C43.2502 150.37 43.3002 148.19 42.6202 146.01C42.3902 137.18 42.8102 128.32 41.5902 119.52C43.5902 118.05 43.2502 116.12 42.6502 114.14C42.5402 113.09 42.4302 112.05 42.3202 111C41.8002 109.2 41.7502 107.39 42.3602 105.6C42.0802 104.98 41.4202 104.25 41.5602 103.76C43.6102 96.8199 40.9502 89.9499 40.9802 83.0299C41.0002 77.3699 41.6302 71.4799 40.5602 65.7699C39.8302 61.8599 42.9302 58.7799 46.8602 60.0499C48.9702 60.7299 50.9102 60.9399 53.0002 60.8199C55.8902 59.9499 58.8502 60.6199 61.7702 60.4099C66.0202 60.6799 70.3102 59.8399 74.5302 60.8699C77.2902 60.8599 80.0602 60.8499 82.8202 60.8399C85.6302 59.7199 88.6702 61.0399 91.4902 60.0499C97.5302 59.0899 103.45 60.6499 109.44 60.8099C113.07 60.1399 116.69 60.1699 120.32 60.7999C129.5 59.6199 138.67 60.6399 147.85 60.7999C150.35 60.1399 152.87 60.2499 155.38 60.7399C162.1 60.5099 168.83 60.2699 175.55 60.0399C177.64 60.9999 179.99 59.7799 182.07 60.8499C184.86 60.8699 187.69 61.1799 190.44 60.8499C194.68 60.3499 196.18 62.2399 195.97 66.1399C196.45 67.9699 196.55 69.7999 195.9 71.6199C195.9 73.3599 195.91 75.0999 195.92 76.8399C196.52 78.6399 196.51 80.4499 195.92 82.2499C195.9 82.9099 195.88 83.5799 195.86 84.2399C196.54 86.0799 196.52 87.9199 195.88 89.7599C195.82 90.0699 195.75 90.3799 195.66 90.6799C194.61 92.7699 195.84 95.15 194.84 97.24C196.85 103.98 194.84 110.87 195.29 117.72C195.68 123.76 195.11 130.24 194.54 136.5C193.42 140.73 194.97 145.14 193.7 149.36C192.45 153.01 191.5 156.98 186.3 156.59C184.23 155.5 181.84 156.79 179.77 155.74C164.2 155.85 148.64 157.13 133.07 155.7C129.55 156.86 125.84 155.52 122.31 156.5C115.89 156.3 109.39 155.76 103.09 156.06C98.2802 156.29 93.3402 155.63 88.5402 156.62C85.9002 157.17 83.4102 156.33 80.9102 155.73C77.3802 156.89 73.6502 155.45 70.1102 156.54C66.5002 157.63 63.1602 155.11 59.5902 155.76C57.1302 156.81 54.4202 155.5 51.9702 156.57L51.9802 156.6Z" fill="#333333"/>
<path d="M193.721 149.39C194.091 145.11 192.721 140.71 194.561 136.53C194.341 140.82 195.861 145.23 193.721 149.39Z" fill="#434244"/>
<path d="M74.5493 60.8802C70.2093 60.8602 65.8593 60.8402 61.5193 60.8102C61.2693 60.5602 61.2093 60.3602 61.3493 60.2002C61.4693 60.0702 61.5893 60.0002 61.7093 60.0002C65.9893 60.2402 70.3893 58.7702 74.5493 60.8702V60.8802Z" fill="#464547"/>
<path d="M122.33 156.53C125.81 154.8 129.51 156.04 133.09 155.73C129.63 157.66 125.94 156.55 122.33 156.53Z" fill="#57565A"/>
<path d="M70.1309 156.58C73.6109 154.71 77.3309 156.06 80.9309 155.77C77.4609 157.82 73.7309 156.33 70.1309 156.58Z" fill="#717076"/>
<path d="M120.341 60.8099C116.711 60.8099 113.091 60.8099 109.461 60.8199C113.081 59.3899 116.711 59.3199 120.341 60.8099Z" fill="#7B7A82"/>
<path d="M61.7095 60.0101C61.6495 60.2801 61.5895 60.5501 61.5195 60.8201C58.6795 60.8201 55.8495 60.8201 53.0195 60.8201C55.7495 58.7601 58.8195 60.3001 61.7095 60.0001V60.0101Z" fill="#706F76"/>
<path d="M91.5098 60.06C88.7598 61.83 85.7298 60.57 82.8398 60.85C85.5798 58.89 88.5998 60.15 91.5098 60.06Z" fill="#66656A"/>
<path d="M51.9805 156.6C54.3705 154.9 57.0405 155.88 59.6005 155.79C57.2205 157.55 54.5405 156.57 51.9805 156.6Z" fill="#91909A"/>
<path d="M155.389 60.7602C152.879 60.7802 150.369 60.8002 147.859 60.8202C150.359 59.4902 152.869 59.2302 155.389 60.7602Z" fill="#B6B4C1"/>
<path d="M42.6596 114.15C43.8096 116.24 44.7796 118.29 41.5996 119.53C42.6696 117.88 42.4396 115.97 42.6596 114.15Z" fill="#565559"/>
<path d="M182.081 60.8601C179.901 60.6301 177.561 61.7001 175.561 60.0501C177.751 60.1801 180.121 58.8901 182.081 60.8601Z" fill="#5A595D"/>
<path d="M42.6309 146.01C44.1309 148.19 44.0209 150.37 42.6609 152.56C42.6609 150.38 42.6409 148.19 42.6309 146.01Z" fill="#8A8992"/>
<path d="M194.86 97.27C195.01 95.07 193.88 92.7 195.68 90.71C195.37 92.89 196.78 95.29 194.86 97.27Z" fill="#727179"/>
<path d="M179.789 155.77C181.999 155.77 184.329 154.96 186.319 156.62C184.099 156.62 181.799 157.34 179.789 155.77Z" fill="#9F9EA9"/>
<path d="M38.3991 142.97C38.3891 140.8 38.3791 138.64 38.3691 136.47C39.7991 138.63 39.8091 140.79 38.3991 142.97Z" fill="#B1AFBC"/>
<path d="M202.051 98.1401C202.051 100.31 202.041 102.48 202.031 104.64C200.601 102.47 200.681 100.3 202.051 98.1401Z" fill="#A9A7B4"/>
<path d="M195.92 71.6402C195.94 69.8102 195.97 67.9902 195.99 66.1602C197.41 68.0102 197.24 69.8302 195.92 71.6402Z" fill="#9A99A4"/>
<path d="M195.939 82.2699C195.939 80.4699 195.939 78.6599 195.939 76.8599C197.309 78.6599 197.429 80.4599 195.939 82.2699Z" fill="#AEADBA"/>
<path d="M42.37 105.61C42.36 107.41 42.35 109.21 42.33 111.01C40.9 109.2 41.02 107.4 42.37 105.61Z" fill="#B4B2C0"/>
<path d="M195.901 89.79C195.901 87.95 195.891 86.11 195.881 84.27C197.481 86.11 197.341 87.95 195.901 89.79Z" fill="#727178"/>
<path d="M114.791 148.07C108.801 148.06 102.821 148.05 96.8309 148.03C94.3109 147.45 91.8009 147.43 89.2809 148.03C78.6609 148.03 68.0509 148.03 57.4309 148.04C55.3109 147.09 52.9509 148.2 50.8209 147.29C49.4709 143.6 50.1709 139.47 50.4609 136.04C51.0309 129.35 48.7609 122.66 50.8209 116.07C50.9809 115.57 50.3609 114.82 50.1009 114.19C50.7209 112.03 50.7009 109.86 50.1109 107.7C50.1009 103.12 50.0809 98.5401 50.0709 93.9601C50.7309 92.1601 50.6909 90.35 50.0909 88.54C49.2909 83.24 49.2809 77.95 49.8409 72.62C50.1309 69.82 49.4809 68.59 54.0209 68.92C60.2909 69.38 66.8909 68.36 73.3609 68.36C75.1309 68.36 76.8909 68.47 78.6609 68.53C80.8109 69.13 82.9509 69.17 85.0909 68.51C89.3309 68.4 93.5809 68.28 97.8209 68.17C100.321 67.7 102.821 67.59 105.311 68.24C123.391 68.45 141.471 68.92 159.551 68.21C161.331 67.85 163.121 67.24 164.781 68.57C168.121 71.03 171.241 68.21 174.481 68.18C176.551 67.51 178.691 67.99 180.791 67.84C182.591 67.96 184.421 67.56 186.191 68.15C189.561 69.92 185.841 73.64 188.251 75.67C187.111 78.11 188.371 80.81 187.461 83.28C187.361 92.49 187.251 101.69 187.151 110.9C186.421 112.7 186.581 114.51 187.061 116.32C188.931 120.24 185.481 123.79 186.371 127.97C186.881 130.38 187.101 133.61 186.371 136.43C186.761 139.98 187.301 143.53 186.081 147.04C179.881 149.26 173.411 146.85 167.151 148.14C163.891 147.34 160.621 147.35 157.361 148.14C149.411 147.42 141.511 146.49 133.481 147.86C129.551 148.53 125.411 148.02 121.371 148.05C119.171 147.42 116.981 147.41 114.781 148.05L114.791 148.07Z" fill="white"/>
<path d="M186.09 147.07C186.19 143.53 186.28 140 186.38 136.46C187.74 140.04 188.01 143.58 186.09 147.07Z" fill="#787878"/>
<path d="M157.369 148.17C160.639 146.58 163.899 146.44 167.159 148.17C163.899 148.17 160.629 148.17 157.369 148.17Z" fill="#4E4E4E"/>
<path d="M187.48 83.3102C187.44 80.7402 186.48 78.0802 188.27 75.7002C188.12 78.2502 189.11 80.9102 187.48 83.3102Z" fill="#5A5A5A"/>
<path d="M105.33 68.2599L97.8398 68.1899C100.35 66.8399 102.85 66.7499 105.33 68.2599Z" fill="#5D5D5D"/>
<path d="M89.2891 148.05C91.7991 146.55 94.3191 146.78 96.8391 148.05C94.3191 148.05 91.8091 148.05 89.2891 148.05Z" fill="#BFBFBF"/>
<path d="M50.1194 107.71C51.4694 109.88 51.5494 112.04 50.1094 114.2V107.71H50.1194Z" fill="#B9B9B9"/>
<path d="M114.789 148.07C116.979 146.71 119.179 146.62 121.379 148.07C119.179 148.07 116.989 148.07 114.789 148.07Z" fill="#999999"/>
<path d="M50.8301 147.31C53.0401 147.46 55.4001 146.32 57.4401 148.06C55.2301 147.9 52.8601 149.15 50.8301 147.31Z" fill="#C0C0C0"/>
<path d="M85.1097 68.5298C82.9697 69.9298 80.8297 69.9398 78.6797 68.5498C80.8197 68.5498 82.9697 68.5298 85.1097 68.5298Z" fill="#CECECE"/>
<path d="M180.92 68.2198C178.78 68.2198 176.63 68.2198 174.49 68.2098C176.43 66.5698 178.72 67.5998 180.85 67.3798C181.21 67.5398 181.34 67.7198 181.24 67.9098C181.14 68.1198 181.03 68.2198 180.92 68.2198Z" fill="#5B5B5B"/>
<path d="M164.8 68.5998C163.06 68.4798 161.31 68.3598 159.57 68.2398C161.41 66.9898 163.19 66.5498 164.8 68.5998Z" fill="#6E6E6E"/>
<path d="M180.92 68.2201C180.9 67.9401 180.88 67.6601 180.85 67.3801C182.65 67.5401 184.6 66.7101 186.2 68.1901C184.44 68.2001 182.68 68.2101 180.92 68.2201Z" fill="#454545"/>
<path d="M50.1001 88.5601C51.4401 90.3701 51.5001 92.1801 50.0801 93.9801C50.0801 92.1701 50.0901 90.3701 50.1001 88.5601Z" fill="#BABABA"/>
<path d="M187.081 116.35C185.721 114.52 185.851 112.71 187.171 110.93L187.081 116.35Z" fill="#BABABA"/>
</g>
<defs>
<clipPath id="clip0_936_9186">
<rect width="240" height="240" fill="white"/>
</clipPath>
</defs>
</svg>
