<svg width="240" height="240" viewBox="0 0 240 240" fill="none" xmlns="http://www.w3.org/2000/svg">
<g clip-path="url(#clip0_936_11152)">
<rect width="1366" height="768" transform="translate(-795 -38)" fill="white"/>
<path d="M200.22 154.8C200.5 157.29 200.98 159.59 197.26 160.25C194.11 160.81 194.58 163.94 195.36 165.83C196.84 169.4 194.44 172.04 193.96 175.11C193.89 175.57 193.47 176.29 193.13 176.35C185.97 177.44 189.35 182.86 188.84 186.67C189.4 188.49 189.39 190.31 188.84 192.14C187.31 199.43 184.39 200.96 173.73 200.62C167.56 200.42 166.85 195.45 166.62 191.52C166.41 188.03 164.52 184.58 166.03 180.88C166.89 178.77 164.73 179.33 163.76 179.32C160.72 179.28 157.68 179.41 154.64 179.48C152.5 179.98 150.35 180.02 148.21 179.46L147.76 179.32L147.29 179.35C145.84 180.75 143.88 180.1 142.2 180.6C141.7 180.8 141.22 180.78 140.75 180.53C136.85 180.63 132.99 179.49 129.08 180.22C126.58 179.53 124.08 179.67 121.57 180.16C116.72 178.27 111.61 180.01 106.69 179.08C104.91 178.6 103.14 178.52 101.37 179.13C99.7998 178.83 98.8298 180.92 97.1498 180.18C95.6898 178.18 93.7598 178.56 91.7898 179.12H78.3598C79.3998 184.81 78.0198 190 77.6098 195.19C77.2698 199.45 69.7398 202.43 63.9198 201.65C59.3498 201.04 54.8298 196.65 54.6298 191.99C54.4798 188.49 52.7498 185.21 53.4598 181.64C53.8398 179.74 52.6198 179.55 51.0898 179.12C44.2298 177.18 40.5298 167.67 42.9998 162.24C42.0398 158.48 39.1698 155.53 38.4398 151.67C36.6698 150.51 37.7298 148.84 37.6798 147.38C42.1198 144.18 40.1698 140.99 37.6798 137.8C37.9298 137.12 38.1898 136.44 38.4398 135.76C37.6898 134.04 38.1998 132.22 38.0498 130.46C38.2798 127.21 37.2098 124.01 37.7098 120.75C37.5598 114.58 39.0898 112.84 44.9898 112.48C48.2598 114.57 51.3498 113.02 54.4598 112.02C54.9198 111.85 55.3798 111.85 55.8298 112.04C56.7098 112.1 58.1098 114.31 58.3098 111.63C58.4898 109.27 59.1598 106.88 58.3298 104.5C58.0798 102.83 58.6698 101.09 57.8998 99.4699C56.5298 97.8999 56.4098 96.0999 56.8798 94.1799C57.4198 91.6799 57.4598 89.1699 56.8598 86.6699C56.6898 86.3699 56.6598 86.0599 56.7898 85.7399C57.6498 84.3699 56.9198 82.7799 57.4098 81.3599C58.3898 77.3899 60.4898 73.5199 58.1598 69.2899C57.4498 67.9999 58.0898 66.5599 58.7598 65.2999C58.7598 61.7599 62.6098 62.0499 64.0698 59.9699C67.9198 58.3799 72.9298 60.1099 75.8298 55.8299L75.7498 55.7499C77.8698 54.8599 80.0898 55.5099 82.2498 55.3099C84.7398 55.4899 87.2597 54.9099 89.7197 55.6799C94.7197 56.2099 99.6698 55.6699 104.61 54.9499C107.17 54.6599 109.25 57.7799 112.03 56.0099C117.39 55.6599 122.74 55.2999 128.1 54.9499C130.51 54.8899 132.87 55.7899 135.31 55.3099C136.83 55.4499 138.4 54.9499 139.85 55.7499H148.14C150.58 54.8199 153.13 55.5299 155.61 55.2999C159.13 56.2999 162.53 59.3899 166.34 55.9899C169.2 56.1399 172.2 54.8299 174.9 56.7699C175.76 59.0399 177.06 60.9599 179.24 62.1599C184.02 66.1799 182.1 71.9699 182.81 76.9299C183.46 81.4699 182.6 86.2399 182.41 90.8999C182.13 92.3599 183.04 93.4899 183.5 94.7499C184 95.6599 183.4 96.4899 183.3 97.3499C183.98 101.58 180.68 105.88 183.53 110.08C183.86 110.46 184.22 110.81 184.62 111.11C184.92 111.29 185.23 111.52 185.57 111.54C192.44 111.89 197.6 114.48 199.18 121.82C199.18 123.25 199.18 124.68 199.18 126.11C198.61 127.87 198.6 129.62 199.18 131.37C199.33 131.69 199.4 132.02 199.39 132.37C200 135.33 197.13 138.87 200.87 141.32C201 142.81 200.92 144.3 200.94 145.78C201.65 148.86 199.72 151.74 200.25 154.8H200.22Z" fill="#333333"/>
<path d="M199.151 121.8C197.841 121.68 196.421 121.13 196.431 119.82C196.461 113.98 191.901 114.09 188.151 113.36C186.281 113 184.251 113.36 183.381 111.07C186.561 110.33 189.751 110.48 192.941 110.99C199.261 112.24 199.621 112.87 199.141 121.8H199.151Z" fill="#333333"/>
<path d="M58.75 65.2798C59.58 69.9398 61.57 74.4798 59.8 79.3998C59.39 80.5498 59.03 81.1898 57.89 81.3598C56.89 80.9298 57.37 79.7498 56.77 79.1198C56.77 77.7898 56.76 76.4598 56.75 75.1198C57.92 72.3098 56.51 69.2498 57.59 66.4298C57.97 66.0498 58.36 65.6598 58.74 65.2798H58.75Z" fill="#333333"/>
<path d="M38.4407 151.65C40.9307 154.75 43.7607 157.72 43.0007 162.22C36.9407 159.39 36.3207 157.95 38.4407 151.65Z" fill="#333333"/>
<path d="M58.7496 104.76C59.8596 106.11 60.3597 113.3 59.2097 114.14C57.1397 115.65 56.1696 114.32 55.5996 112.41C57.1596 111.19 57.7697 109.73 56.7797 107.85C56.7997 106.74 56.1096 105.44 57.5996 104.72C57.9996 104.22 58.3896 104.26 58.7496 104.77V104.76Z" fill="#333333"/>
<path d="M75.8303 55.8101C75.9603 58.9001 74.3903 61.0601 71.5003 59.7101C68.6603 58.3801 66.5503 63.5201 64.0703 59.9501C67.6103 57.5001 72.0503 57.5701 75.8303 55.8101Z" fill="#333333"/>
<path d="M37.6797 137.77C42.3797 138.19 41.0897 142.23 41.5997 144.83C42.1697 147.73 39.4997 147.25 37.6797 147.36C37.9297 146.67 38.1697 145.99 38.4197 145.3C37.8497 143.48 37.8597 141.66 38.4197 139.84C38.1797 139.15 37.9297 138.47 37.6897 137.78L37.6797 137.77Z" fill="#333333"/>
<path d="M166.319 55.9802C163.619 60.3402 160.769 60.2802 156.689 55.7902C156.359 55.5502 156.259 55.3502 156.399 55.1702C156.529 55.0102 156.659 54.9302 156.789 54.9302C159.859 56.2402 163.139 55.5602 166.309 55.9802H166.319Z" fill="#333333"/>
<path d="M200.26 140.96C193.87 138.73 198.6 135.34 199.36 132.36C201.56 134.55 199.77 137.37 200.52 139.78C200.86 140.27 200.79 140.66 200.26 140.96Z" fill="#333333"/>
<path d="M54.5402 112.44C51.3602 113.05 48.1802 118 44.9902 112.44C47.8002 112.32 50.6102 112.21 53.4302 112.09C53.9702 111.65 54.3402 111.76 54.5402 112.43V112.44Z" fill="#333333"/>
<path d="M37.7106 120.72C39.4206 123.86 38.3106 127.2 38.4206 130.46C38.0606 130.78 37.7906 130.73 37.6506 130.25C38.1106 127.08 34.6906 123.88 37.7106 120.73V120.72Z" fill="#5B5B5D"/>
<path d="M179.219 62.1498C175.039 62.5598 174.619 59.9298 174.879 56.7598C176.689 58.2598 178.949 59.3998 179.219 62.1498Z" fill="#333333"/>
<path d="M112.029 55.9902C108.799 60.9502 107.179 54.5902 104.609 54.9302C107.219 54.3002 109.639 55.0602 112.029 55.9902Z" fill="#333333"/>
<path d="M200.22 154.8C198.36 154.42 197.68 153.26 199.07 151.93C200.91 150.17 200.15 148.05 200.48 146.07C200.89 145.81 201.17 145.91 201.32 146.37C201.62 149.27 201.56 152.12 200.22 154.8Z" fill="#333333"/>
<path d="M192.95 111C189.76 111.03 186.58 111.05 183.39 111.08C183.3 110.73 183.34 110.39 183.51 110.07C186.64 110.52 189.96 109.15 192.95 111Z" fill="#E0E0E1"/>
<path d="M134.339 55.8201C131.989 57.3701 129.949 56.8001 128.089 54.9301L127.939 54.6101C129.729 54.0101 131.529 54.0601 133.329 54.5701C133.659 54.7001 133.999 54.8301 134.329 54.9701C134.699 55.1601 134.819 55.3501 134.699 55.5401C134.579 55.7301 134.459 55.8201 134.329 55.8201H134.339Z" fill="#333333"/>
<path d="M156.811 54.9301C156.791 55.2201 156.751 55.5001 156.701 55.7901C153.841 55.7701 150.991 55.7601 148.131 55.7401C150.881 53.9601 153.891 54.8901 156.811 54.9301Z" fill="#68676A"/>
<path d="M57.6098 66.4302C57.3498 69.3302 58.7999 72.3902 56.7699 75.1202C57.0099 72.2202 55.7098 69.1702 57.6098 66.4302Z" fill="#D0D0D2"/>
<path d="M54.5397 112.44C54.1697 112.33 53.7997 112.21 53.4297 112.1C55.0597 111.08 57.3297 110.57 56.7897 107.84C57.8797 109.74 59.1897 111.7 55.6097 112.4C55.2597 112.41 54.8997 112.42 54.5497 112.44H54.5397Z" fill="#B3B3B5"/>
<path d="M183.15 95.1901C181.6 93.9901 180.18 92.7601 182.39 90.8901C182.76 91.2501 183.14 91.6101 183.51 91.9701C183.89 93.1001 184.29 94.2301 183.15 95.1901Z" fill="#333333"/>
<path d="M121.57 180.14C124.09 178.65 126.59 178.89 129.08 180.2C126.58 180.18 124.07 180.16 121.57 180.14Z" fill="#656568"/>
<path d="M56.8496 86.6499C58.2296 89.1499 58.2496 91.6499 56.8696 94.1599C56.8696 91.6599 56.8496 89.1599 56.8496 86.6499Z" fill="#646366"/>
<path d="M89.7193 55.6599C87.2493 55.6799 84.7894 55.6899 82.3194 55.7099C81.9894 55.6099 81.8394 55.4599 81.8794 55.2499C81.9294 55.0099 81.9894 54.8999 82.0794 54.8999C84.6294 55.0699 87.3293 53.8199 89.7193 55.6599Z" fill="#B6B5B7"/>
<path d="M56.7793 79.1099C57.7793 79.5499 57.6593 80.5399 57.8993 81.3499C57.3993 82.7699 58.4393 84.5899 56.7793 85.7099C56.7793 83.5099 56.7793 81.3099 56.7793 79.1099Z" fill="#ADADAF"/>
<path d="M201.32 146.37C201.04 146.26 200.76 146.17 200.48 146.07C200.41 144.37 200.33 142.66 200.26 140.96C200.35 140.57 200.43 140.18 200.52 139.78C202.4 141.78 201.05 144.17 201.32 146.36V146.37Z" fill="#87878A"/>
<path d="M82.0898 54.9C82.1598 55.17 82.2398 55.45 82.3298 55.71C80.1398 55.71 77.9498 55.72 75.7598 55.73C77.6898 54.04 79.9398 54.84 82.0898 54.9Z" fill="#616164"/>
<path d="M140.75 180.51C141.12 180.38 141.49 180.26 141.85 180.13C143.6 179.7 145.34 179.59 147.07 180.2C145.05 182.2 142.92 181.72 140.75 180.51Z" fill="#D4D4D5"/>
<path d="M148.211 179.45C150.351 179.45 152.491 179.47 154.641 179.47C152.491 180.89 150.351 180.76 148.211 179.45Z" fill="#D6D6D7"/>
<path d="M91.7891 179.1C93.8691 177.98 95.9191 177.02 97.1491 180.16C95.5091 179.07 93.5891 179.39 91.7891 179.1Z" fill="#4F4F51"/>
<path d="M183.151 95.1902C183.271 94.1202 183.391 93.0402 183.511 91.9702C184.971 93.8302 184.861 95.6202 183.281 97.3402C181.551 96.7202 183.721 95.8802 183.161 95.1902H183.151Z" fill="#CDCDCF"/>
<path d="M37.6504 130.24C37.9104 130.31 38.1604 130.38 38.4204 130.45C38.4204 132.21 38.4304 133.97 38.4404 135.72C36.8704 134.08 37.6204 132.1 37.6504 130.23V130.24Z" fill="#969699"/>
<path d="M199.15 131.36C197.83 129.61 197.83 127.85 199.15 126.1C199.15 127.85 199.15 129.61 199.15 131.36Z" fill="#333333"/>
<path d="M101.369 179.11C103.129 177.87 104.899 177.73 106.689 179.06C104.919 179.08 103.139 179.1 101.369 179.11Z" fill="#4F4F51"/>
<path d="M147.07 180.21C145.33 180.19 143.59 180.16 141.85 180.14C143.48 178.67 145.46 179.51 147.28 179.35C147.21 179.64 147.14 179.93 147.06 180.22L147.07 180.21Z" fill="#424243"/>
<path d="M133.339 54.57C131.539 54.58 129.749 54.6 127.949 54.61C129.739 53.28 131.529 53.17 133.339 54.57Z" fill="#D6D6D7"/>
<path d="M38.4095 139.83C38.4095 141.65 38.4095 143.47 38.4095 145.29C37.1295 143.47 36.9595 141.65 38.4095 139.83Z" fill="#ACACAF"/>
<path d="M58.7496 104.76C58.3696 104.74 57.9796 104.73 57.5996 104.71C57.6996 102.95 57.7896 101.2 57.8896 99.4399C59.4296 101.01 58.5896 102.96 58.7496 104.75V104.76Z" fill="#515052"/>
<path d="M134.34 55.8198C134.34 55.5398 134.34 55.2498 134.34 54.9698C136.2 55.0398 138.24 53.8098 139.84 55.7398C138.01 55.7698 136.18 55.7898 134.34 55.8198Z" fill="#525154"/>
<path d="M188.84 192.13C188.84 190.31 188.84 188.48 188.84 186.66C190.17 188.48 190.21 190.3 188.84 192.13Z" fill="#ABABAD"/>
<path d="M73.6708 64.0901C74.0308 64.1101 74.4009 64.1301 74.7609 64.1401C76.6709 62.4801 78.6809 61.3901 81.1509 63.0701C82.5309 63.0901 83.9208 63.1001 85.3008 63.1201C87.8508 62.5401 90.4009 62.5101 92.9609 63.1301C95.4309 62.8701 98.0808 64.2901 100.361 62.3101C101.411 61.3301 102.441 61.2901 103.441 62.3801C105.041 64.0901 107.011 63.0001 108.831 63.0801C110.931 62.4001 113.091 62.8901 115.221 62.7401C118.351 63.2901 121.271 61.5401 124.391 61.9401C125.361 62.0501 126.171 62.5101 126.931 63.0801C128.331 63.7401 129.091 62.4701 130.131 62.0201C131.551 61.4101 132.811 61.9801 134.081 62.5201C135.741 62.9401 137.421 62.6501 139.101 62.7401C141.111 62.9001 143.171 62.3601 145.141 63.1201C146.171 63.1101 147.191 63.1001 148.221 63.0901C150.121 62.3901 152.101 62.8901 154.041 62.7301C156.481 62.5901 158.931 62.1801 161.381 62.7201C163.341 62.7301 165.311 62.7901 167.271 62.6701C172.961 60.7301 173.381 65.3401 174.791 68.7201C174.771 69.0501 174.841 69.3501 174.991 69.6401C175.771 71.5901 174.811 73.9701 176.481 75.7001C175.981 79.0001 177.641 82.6201 175.011 85.6001C175.061 87.7701 173.981 90.0601 175.751 92.0301C176.961 98.1201 177.261 104.16 174.721 110.03C174.391 110.04 174.071 110.12 173.771 110.26C169.481 112.68 165.531 115.38 164.791 120.82C164.301 123.73 165.461 126.78 164.001 129.59C160.521 129.46 157.021 131.64 153.571 129.47C152.871 129.44 152.161 129.41 151.451 129.38C149.551 129.21 147.651 129.03 145.791 129.69C144.821 129.74 143.841 129.9 142.931 129.42C141.521 128.77 140.741 130 139.701 130.48C125.721 131.9 111.691 132.22 97.6509 131.92C95.1409 131.68 92.6208 131.78 90.1108 131.79C88.3308 131.88 86.5409 131.77 84.7509 131.79C83.0609 131.72 81.3608 131.68 79.6708 131.87C78.0008 132.32 76.3509 132.41 74.7709 131.54C67.4109 131.22 71.2109 125.75 71.3209 122.82C71.4609 119.05 71.3809 115.86 68.4609 113.23C64.0409 112.9 63.2708 110.57 64.9908 106.89C64.9908 103.69 64.9908 100.49 64.9908 97.2901C64.0108 94.7401 64.0509 92.1401 64.6409 89.5201C64.6409 87.5601 64.6709 85.6001 64.6209 83.6501C64.5009 83.1201 64.4609 82.5801 64.5009 82.0301C65.2409 79.3701 64.5708 76.7201 64.4808 74.0501C64.5008 65.7601 66.7009 63.3701 73.6509 64.0801L73.6708 64.0901Z" fill="#EEEBFF"/>
<path d="M90.6101 171.72C82.6901 169.77 74.6402 171.17 66.6502 170.81C63.6702 170.67 60.6801 170.84 57.6901 170.81C50.0901 170.73 48.3902 167.81 51.3302 159.95C53.1102 159.44 54.8901 159.45 56.6701 159.95C60.7101 159.95 65.1502 160.99 68.7002 159.67C73.0402 158.05 68.6702 152.47 71.4002 149.42C73.1202 147.82 71.3002 146.52 71.0202 145.1C70.7502 144.46 70.5401 143.8 70.6101 143.08C70.7601 141.57 69.6602 139.79 71.5902 138.68C76.3102 136.67 81.3202 139.12 86.0902 137.74C88.4602 137.28 90.8702 137.5 93.2602 137.28C105.91 137.16 118.56 136.66 131.19 137.6C139.35 137.6 147.51 137.6 155.68 137.6C156.55 136.62 157.37 135.4 158.83 136.83C159.08 137.07 159.32 137.31 159.57 137.55C159.71 137.31 159.84 137.08 159.98 136.84C162.15 135.11 163.9 135.98 165.52 137.72C166.07 139.42 166.83 141.07 166.65 142.93C166.46 145.48 165 147.94 166.17 150.58C166.28 150.93 166.4 151.27 166.51 151.62C167.74 153.21 167.46 155.1 167.59 156.92C167.98 163.27 173.69 161.73 176.63 161.65C180.19 161.56 183.88 161.55 187.5 161.25C188.66 162.95 188.17 164.74 187.8 166.53C184.17 170.21 179.3 169.14 174.9 169.88C172.8 170.82 170.44 169.59 168.36 170.7C159.95 172.77 151.43 171.64 142.94 171.69C139.44 170.85 135.9 171.52 132.38 171.31C129.48 171.54 126.52 170.8 123.66 171.78C120.18 171.78 116.69 171.8 113.21 171.81C111.15 170.67 108.81 171.86 106.71 171.02C103.64 172.44 100.42 171.77 97.2401 171.76C95.0301 171.05 92.8201 171.07 90.6201 171.76L90.6101 171.72Z" fill="#EEEBFF"/>
<path d="M191.72 128.14C191.56 132.83 191.12 137.55 193.14 142.02C193.64 144.16 193.64 146.3 193.14 148.43C192.94 149.88 192.9 151.39 191.76 152.52C189.49 153.88 186.99 152.87 184.62 153.19C181.92 153.19 179.23 153.19 176.53 153.19C175.59 153.22 174.84 152.9 174.43 152C174.02 150.09 174.88 148.05 173.83 146.2C176.02 142.46 172.68 139.29 172.76 135.77C173.26 132.69 170.93 129.79 172.2 126.66C172.37 124.31 171.81 121.92 172.57 119.6C172.68 119.3 172.77 118.99 172.83 118.67C177.04 116.27 181.28 118.62 185.5 118.58L185.4 118.83C187.06 119.75 189.12 118.43 190.71 119.78L190.92 119.65C192.69 122.34 192.44 125.23 191.73 128.15L191.72 128.14Z" fill="#EEEBFF"/>
<path d="M63.2295 148.42C63.3595 150.72 62.5695 152.11 59.9695 151.72C56.8195 153.37 53.3695 151.14 50.1995 152.5C48.8595 152.54 47.5095 152.58 46.1695 152.62C43.2595 150.11 46.1795 146.79 44.9995 144.04C46.4195 137.72 46.3495 131.41 44.9995 125.09C46.3595 123.73 44.1395 120.38 47.6995 120.22C51.0595 120.72 54.4895 119.22 57.8095 120.61C59.1895 121.19 59.9195 119.91 60.9595 119.5C62.2095 118.92 63.2395 119.24 63.9895 120.35C64.7295 121.45 64.0595 122.2 63.2395 122.87C62.5595 124.13 63.8295 124.92 63.9895 125.98C63.3295 128.88 63.3095 131.77 63.9995 134.67C62.4395 137.36 63.1195 140.26 63.2395 143.1C64.7895 144.87 65.7095 146.65 63.2395 148.42H63.2295Z" fill="#EEEBFF"/>
<path d="M85.4898 139C80.8098 140.88 76.2398 138.32 71.5898 138.66C72.9898 136.44 79.1598 136.37 74.7898 131.56C76.1998 131.2 77.6098 130.84 79.0198 130.47C80.7998 131.12 82.5798 131.07 84.3598 130.5L89.5898 130.44C92.1298 131.13 94.6798 131.12 97.2198 130.44C106.78 130.4 116.35 130.56 125.9 130.23C130.53 130.07 135.14 128.6 139.72 130.49C139.51 132.05 138.67 132.58 137.15 132.15C131.1 130.42 130.28 131.18 131.2 137.58C126.93 140.1 122.26 138.6 117.79 138.76C110.02 139.03 102.24 138.83 94.4598 138.82C93.9298 138.82 93.3998 138.74 92.8798 138.69C90.3998 138.28 87.9098 137.64 85.4998 139H85.4898Z" fill="#333333"/>
<path d="M60.6794 184.05C59.7294 176.75 66.1195 179.47 68.8395 178.78C71.6895 178.06 71.4995 182.92 71.1495 184C70.4595 186.12 70.7595 188.11 70.5295 190.13C70.2795 192.33 69.0194 193.65 67.0394 194.12C64.8394 194.64 63.3695 193.66 62.7795 191.38C62.1395 188.92 61.3894 186.49 60.6794 184.05Z" fill="white"/>
<path d="M182.1 189.99C180.88 193.96 177.07 190.77 174.99 193.11C174.85 190.25 174.75 187.97 174.64 185.68C174.18 183.89 174.11 182.11 174.69 180.34C174.86 177.59 176.61 177.12 178.97 177.13C183.17 177.13 180.16 181.21 182.1 182.43C181.55 184.95 181.53 187.47 182.1 189.99Z" fill="white"/>
<path d="M73.6706 64.0898C65.4706 65.9798 65.0106 66.5698 65.3006 74.9298C65.9306 77.4498 65.8806 79.9698 65.3306 82.4898L65.0906 82.3898C64.8806 82.8598 64.5506 83.2298 64.1006 83.4898C61.6106 81.0998 61.2306 78.0898 62.6406 75.2498C63.5806 73.3698 63.9006 71.9498 63.4006 69.8498C62.7706 67.2098 64.4006 64.8498 66.7206 63.7998C68.8506 62.8398 71.5406 60.6398 73.6806 64.0998L73.6706 64.0898Z" fill="#333333"/>
<path d="M174.721 110.05C176.071 104.11 174.081 97.9698 175.751 92.0498C179.121 95.1198 180.611 98.5098 177.601 102.7C176.321 104.49 177.871 106.08 178.001 107.77C178.211 110.49 177.361 111.52 174.721 110.05Z" fill="#333333"/>
<path d="M164.32 119.58C164.15 113.11 168.28 110.99 173.78 110.27C170.99 113.76 168.2 117.25 165.4 120.74C164.65 120.72 164.6 120.04 164.32 119.59V119.58Z" fill="#333333"/>
<path d="M175.02 85.6099C175.3 82.4399 175.59 79.2699 175.87 76.1099C175.32 75.3399 175.28 74.5999 175.99 73.8999C177.14 74.0599 178.26 74.5999 177.82 75.8599C177.08 77.9899 177.37 79.5999 178.46 81.6899C180.09 84.8199 177.6 85.5299 175.02 85.6199V85.6099Z" fill="#333333"/>
<path d="M174.79 68.7201C172.25 66.9701 172.4 61.7501 167.48 63.0801C167.06 62.9401 166.9 62.7601 167.01 62.5601C167.13 62.3401 167.25 62.2301 167.38 62.2301C167.53 60.7401 168.52 59.5001 169.75 60.4401C171.45 61.7401 174.52 61.5001 174.79 64.4801C174.92 65.8901 174.79 67.3101 174.79 68.7301V68.7201Z" fill="#333333"/>
<path d="M185.501 118.57C181.281 118.6 177.051 118.63 172.831 118.66C171.301 115.23 174.381 114.77 175.711 115.63C178.801 117.64 182.491 116.86 185.501 118.56V118.57Z" fill="#333333"/>
<path d="M191.72 128.14C189.65 125.48 191.87 122.41 190.91 119.64C195.87 124.04 196.07 126.22 191.72 128.14Z" fill="#333333"/>
<path d="M126.931 63.08C126.251 63.1 125.571 63.12 124.891 63.13C123.251 61.98 121.021 63.6 119.471 62C119.781 59.19 121.731 58.85 123.981 59.05C126.461 59.27 126.981 60.98 126.921 63.08H126.931Z" fill="#333333"/>
<path d="M160.92 63.1002C158.83 63.4702 156.73 65.5302 154.65 63.0602C154.25 62.8802 154.12 62.6802 154.24 62.4802C154.36 62.2702 154.49 62.1702 154.62 62.1702C156.84 58.4102 158.96 59.6302 161.04 62.3002C161.38 62.5302 161.48 62.7302 161.33 62.8902C161.2 63.0302 161.06 63.1002 160.92 63.1002Z" fill="#333333"/>
<path d="M153.58 129.49L164.13 129.17C164.54 128.73 164.91 128.75 165.26 129.24C163.28 131.11 160.36 130.33 158.09 132.01C156.23 133.39 154.75 131.01 153.58 129.49Z" fill="#333333"/>
<path d="M64.9999 106.9C64.9799 109.66 64.9999 112.39 68.4699 113.24C66.7599 114.06 64.6799 115.24 63.6399 112.86C62.7799 110.9 61.7099 108.22 64.9999 106.9Z" fill="#333333"/>
<path d="M165.201 137.94C163.401 137.85 161.97 136.03 159.98 136.83C160.04 134.71 161.08 133.42 163.25 133.63C165.74 133.87 166.011 135.94 166.281 137.89C165.941 138.29 165.571 138.3 165.201 137.93V137.94Z" fill="#333333"/>
<path d="M166.489 138.83C170.749 141.46 170.749 143.12 166.489 146.28C165.379 145.37 165.959 144.11 165.809 143C166.039 141.61 165.239 140.05 166.489 138.83Z" fill="#333333"/>
<path d="M81.1498 63.0699C79.0198 63.4299 76.8898 63.7799 74.7598 64.1399C75.2098 61.6599 76.6098 60.1599 79.1998 60.1499C81.1598 60.1499 81.0898 61.6899 81.1498 63.0699Z" fill="#333333"/>
<path d="M63.2292 122.87C64.1292 120.62 63.1192 119.67 60.9492 119.5C61.3792 119.22 61.7692 118.81 62.2392 118.69C64.0592 118.19 66.4292 117.31 66.9992 119.91C67.5892 122.55 65.2592 122.83 63.2292 122.87Z" fill="#333333"/>
<path d="M63.2295 148.42C64.9095 146.65 62.6395 144.87 63.2295 143.1C65.2495 143.11 67.2795 143.38 67.0995 146.01C66.9395 148.27 65.0295 148.43 63.2295 148.42Z" fill="#333333"/>
<path d="M44.9995 144.04C47.2595 146.64 45.3294 149.82 46.1694 152.62C43.2894 152.1 42.6394 150.43 43.6594 147.84C44.1494 146.59 44.5595 145.31 44.9995 144.04Z" fill="#333333"/>
<path d="M172.54 127.25C171.56 130.11 175.04 132.86 172.75 135.76C171.82 132.92 169.64 130.24 171.68 127.04C172.08 126.63 172.37 126.7 172.54 127.25Z" fill="#333333"/>
<path d="M65.0705 88.8199C65.0505 91.6499 65.0305 94.4699 65.0105 97.2999C62.1905 94.7299 63.3004 91.7399 64.1204 88.7899C64.4504 88.3299 64.7604 88.3199 65.0604 88.8199H65.0705Z" fill="#333333"/>
<path d="M70.6202 143.06C71.0002 143.42 71.3802 143.77 71.7602 144.13C72.0902 145.26 72.5102 146.4 71.3702 147.35C69.8502 147.17 68.6502 146.55 68.5502 144.85C68.4602 143.45 69.5402 143.21 70.6202 143.06Z" fill="#333333"/>
<path d="M57.8001 120.62C54.1901 120.6 50.5901 120.57 46.9801 120.55C46.7001 120.32 46.6201 120.11 46.7501 119.93C46.8701 119.77 46.9801 119.68 47.1001 119.68C49.5801 119.64 52.0601 119.59 54.5401 119.55C55.6701 118.87 56.7401 118.74 57.6801 119.89C57.7101 120.13 57.7501 120.38 57.8001 120.61V120.62Z" fill="#7B7A82"/>
<path d="M132.111 170.98C135.741 170.86 139.421 170.02 142.941 171.67L132.331 171.74C132.021 171.65 131.891 171.5 131.931 171.31C131.971 171.09 132.031 170.98 132.111 170.98Z" fill="#B5B3C1"/>
<path d="M167.58 156.9C166.19 155.35 166.09 153.53 166.5 151.6C170.91 152.54 168.37 154.9 167.58 156.9Z" fill="#333333"/>
<path d="M50.1995 152.5C53.3295 150.61 56.7194 152.03 59.9694 151.72C59.8894 151.99 59.8394 152.26 59.7994 152.53C58.8594 153.58 57.7994 153.54 56.6594 152.89L50.1895 152.51L50.1995 152.5Z" fill="#A2A1AD"/>
<path d="M119.48 62C121.22 62.67 123.4 61.28 124.9 63.13C121.63 63.11 118.36 63.08 115.09 63.06C114.8 62.69 114.86 62.42 115.31 62.25C116.7 62.17 118.09 62.09 119.48 62.01V62Z" fill="#9998A2"/>
<path d="M133.321 63.0699C131.931 63.7199 131.141 62.5399 130.131 62.0199C131.691 58.1999 133.031 60.3999 134.391 62.1799C134.161 62.6299 133.801 62.9199 133.321 63.0699Z" fill="#333333"/>
<path d="M165.261 129.24C164.881 129.22 164.511 129.19 164.131 129.17C164.201 125.97 164.261 122.78 164.331 119.58C164.691 119.96 165.051 120.35 165.411 120.73C165.361 123.57 165.311 126.4 165.261 129.24Z" fill="#918F99"/>
<path d="M132.11 170.98C132.18 171.23 132.25 171.49 132.33 171.74C129.44 171.74 126.55 171.75 123.66 171.76C126.34 169.98 129.26 170.9 132.11 170.99V170.98Z" fill="#7A7980"/>
<path d="M175.76 152.84H184.49C184.79 153.07 184.87 153.25 184.73 153.4C184.61 153.53 184.49 153.59 184.36 153.59C181.56 153.63 178.76 153.66 175.97 153.7C175.62 153.58 175.47 153.41 175.53 153.2C175.59 152.96 175.67 152.84 175.76 152.84Z" fill="#9C9BA6"/>
<path d="M63.9899 134.66C62.4999 131.77 62.4998 128.87 63.9798 125.97C63.9798 128.87 63.9799 131.76 63.9899 134.66Z" fill="#918F99"/>
<path d="M184.369 153.6C184.409 153.35 184.449 153.11 184.489 152.86C186.909 152.75 189.339 152.64 191.759 152.53C189.579 154.81 186.859 153.41 184.369 153.6Z" fill="#7C7B83"/>
<path d="M172.54 127.25C172.25 127.2 171.96 127.13 171.68 127.04C171.95 124.56 170.78 121.9 172.56 119.59C172.56 122.14 172.55 124.69 172.54 127.24V127.25Z" fill="#8B8A93"/>
<path d="M146.051 129.03C147.941 127.82 149.771 127.56 151.461 129.39C151.151 130.53 150.221 130.24 149.421 130.26C148.511 129.25 146.811 130.41 146.051 129.03Z" fill="#CCCADA"/>
<path d="M158.83 136.82C157.56 136.19 156.79 137.6 155.68 137.59C155.8 136.45 155.45 134.98 157.15 134.79C158.53 134.63 158.75 135.74 158.84 136.82H158.83Z" fill="#333333"/>
<path d="M182.099 189.99C180.829 187.47 180.619 184.96 182.099 182.43C182.099 184.95 182.099 187.47 182.099 189.99Z" fill="#BCBBBE"/>
<path d="M92.9608 63.1302C90.4108 63.1302 87.8608 63.1302 85.3008 63.1202C87.8508 61.5702 90.4108 61.7102 92.9608 63.1302Z" fill="#9897A1"/>
<path d="M166.171 143.1C166.281 144.16 166.381 145.22 166.491 146.28C166.381 147.71 166.271 149.14 166.161 150.56C164.421 148.22 165.561 145.57 165.351 143.07C165.641 142.59 165.911 142.62 166.181 143.09L166.171 143.1Z" fill="#C2BFCE"/>
<path d="M175.989 73.8999C175.949 74.6399 175.909 75.3699 175.869 76.1099C174.099 74.1599 174.969 71.8399 174.989 69.6499C176.349 70.8299 175.709 72.4799 175.989 73.9099V73.8999Z" fill="#4A4A4C"/>
<path d="M103.439 62.3801C102.409 62.3601 101.389 62.3301 100.359 62.3101C100.429 61.2701 100.639 60.2201 101.939 60.2501C103.239 60.2801 103.399 61.3401 103.439 62.3801Z" fill="#333333"/>
<path d="M65.0696 88.8199C64.7596 88.8199 64.4396 88.7999 64.1296 88.7899C64.1296 87.0199 64.1096 85.2499 64.0996 83.4799C64.4296 83.1099 64.7597 82.7499 65.0897 82.3799C65.0897 84.5199 65.0796 86.6699 65.0696 88.8099V88.8199Z" fill="#434345"/>
<path d="M193.141 148.43C193.141 146.29 193.141 144.15 193.141 142.02C194.461 144.16 194.461 146.3 193.141 148.43Z" fill="#57565A"/>
<path d="M115.31 62.2502C115.22 62.5202 115.15 62.7902 115.09 63.0602C113 63.0602 110.92 63.0802 108.83 63.0802C110.82 61.4802 113.14 62.4402 115.31 62.2402V62.2502Z" fill="#4D4D50"/>
<path d="M56.6699 152.88C57.7199 152.76 58.7599 152.64 59.8099 152.52C59.7399 153.59 59.5899 154.64 58.1699 154.62C57.0599 154.61 56.8499 153.74 56.6699 152.88Z" fill="#333333"/>
<path d="M175.76 152.84C175.82 153.13 175.89 153.42 175.97 153.71C175.04 153.9 174.06 155.2 173.23 153.99C172.92 153.53 173.56 152.42 173.77 151.61C174.08 151.12 174.37 151.15 174.65 151.64C175.02 152.04 175.38 152.45 175.75 152.85L175.76 152.84Z" fill="#333333"/>
<path d="M47.1003 119.68C47.0403 119.97 47.0003 120.26 46.9803 120.55C44.8703 121.43 47.1203 124.22 44.9903 125.1C45.4203 123.19 43.6203 120.41 47.1003 119.68Z" fill="#333333"/>
<path d="M168.35 170.68C170.36 169.08 172.67 169.79 174.89 169.86C172.87 171.4 170.56 170.67 168.35 170.68Z" fill="#75747B"/>
<path d="M90.6094 171.72C92.8194 170.19 95.0294 170.24 97.2294 171.72C95.0194 171.72 92.8094 171.72 90.6094 171.72Z" fill="#76757C"/>
<path d="M145.14 63.1302C142.92 63.1102 140.71 63.0902 138.49 63.0602C138.27 62.8202 138.23 62.6102 138.35 62.4402C138.46 62.2802 138.56 62.2002 138.66 62.2002C140.81 62.5502 143.19 61.3902 145.14 63.1302Z" fill="#9B9AA5"/>
<path d="M154.621 62.1698C154.641 62.4698 154.651 62.7698 154.651 63.0598C152.511 63.0598 150.361 63.0798 148.221 63.0898C150.171 61.4898 152.491 62.4698 154.621 62.1698Z" fill="#515154"/>
<path d="M160.92 63.1002C160.98 62.8402 161.02 62.5702 161.04 62.3002C163.15 62.2702 165.26 62.2502 167.38 62.2202C167.42 62.5002 167.45 62.7902 167.48 63.0702C165.29 63.0702 163.11 63.0802 160.92 63.0902V63.1002Z" fill="#78777E"/>
<path d="M106.711 170.99C108.911 170.99 111.251 169.8 113.211 171.78C111.041 171.56 108.721 172.55 106.711 170.99Z" fill="#4B4B4D"/>
<path d="M146.05 129.03C147.14 129.52 148.69 128.79 149.42 130.26C147.25 130.03 144.92 131.06 142.93 129.42C143.97 129.29 145.01 129.15 146.05 129.02V129.03Z" fill="#333333"/>
<path d="M56.67 159.93H51.3301C53.1101 158.62 54.89 158.62 56.67 159.93Z" fill="#515053"/>
<path d="M174.659 151.63C174.369 151.62 174.069 151.61 173.779 151.6C173.789 149.79 173.809 147.99 173.819 146.18C175.599 147.76 174.679 149.76 174.649 151.62L174.659 151.63Z" fill="#454547"/>
<path d="M138.66 62.2002C138.58 62.4802 138.52 62.7702 138.5 63.0602C136.77 63.0602 135.05 63.0602 133.33 63.0702C133.69 62.7702 134.04 62.4802 134.4 62.1802C135.82 62.1802 137.25 62.1902 138.67 62.2002H138.66Z" fill="#444446"/>
<path d="M190.701 119.76C188.951 119.32 186.931 120.44 185.391 118.81C187.171 119.08 189.271 117.52 190.701 119.76Z" fill="#9C9AA5"/>
<path d="M174.69 180.34L174.64 185.68C173.35 183.89 173.31 182.11 174.69 180.34Z" fill="#545355"/>
<path d="M166.169 143.1C165.889 143.1 165.619 143.08 165.339 143.08C165.289 141.37 165.239 139.65 165.189 137.94C165.549 137.93 165.909 137.91 166.269 137.9C166.279 138.23 166.349 138.54 166.479 138.84C166.369 140.26 166.269 141.68 166.159 143.11L166.169 143.1Z" fill="#BBB8C7"/>
<path d="M57.6791 119.89C56.6291 119.78 55.5891 119.66 54.5391 119.55C55.9591 116.22 56.8091 118.13 57.6791 119.89Z" fill="#333333"/>
<path d="M187.8 166.51C187.7 164.75 187.6 162.99 187.5 161.23C189.39 162.89 188.98 164.67 187.8 166.51Z" fill="#4D4D4F"/>
<path d="M71.3594 147.35C71.4894 146.28 71.6194 145.2 71.7494 144.13C73.0394 145.98 73.2294 147.76 71.3994 149.4C71.3894 148.72 71.3694 148.03 71.3594 147.35Z" fill="#BFBDCC"/>
<path d="M65.3308 82.4902C65.3308 79.9702 65.3108 77.4502 65.3008 74.9302C66.6308 77.4402 66.9508 79.9602 65.3308 82.4902Z" fill="#B1AFBD"/>
<path d="M97.2101 130.44C94.6701 131.98 92.1201 131.94 89.5801 130.44C92.1201 130.44 94.6701 130.44 97.2101 130.44Z" fill="#9795A0"/>
<path d="M84.3595 130.49C82.5695 131.9 80.7895 131.76 79.0195 130.46C80.7995 130.46 82.5795 130.48 84.3595 130.49Z" fill="#555558"/>
<path d="M85.4902 139C87.8702 136.87 90.3502 137.4 92.8702 138.69C90.4102 138.79 87.9502 138.9 85.4902 139Z" fill="#58575B"/>
</g>
<defs>
<clipPath id="clip0_936_11152">
<rect width="240" height="240" fill="white"/>
</clipPath>
</defs>
</svg>
