<svg width="240" height="240" viewBox="0 0 240 240" fill="none" xmlns="http://www.w3.org/2000/svg">
<g clip-path="url(#clip0_936_10497)">
<rect width="1282" height="721" transform="translate(-438 -51)" fill="white"/>
<path d="M94.4052 220.793C86.7846 221.591 79.7083 219.234 72.6695 216.887C68.052 215.348 70.0323 211.132 69.3941 207.997C68.8779 205.969 68.8028 203.951 69.441 201.932C68.54 200.486 68.5025 198.89 68.5119 197.238C68.6057 186.836 68.6433 176.425 68.6902 166.023C70.6141 164.314 70.6516 162.625 68.662 160.944C67.6672 155.677 69.4034 150.561 69.6474 145.36C69.7882 142.431 72.1626 141.201 74.9875 140.854C79.5862 140.281 80.093 137.08 79.4736 133.371C78.9574 130.236 78.2817 127.128 77.6717 124.012C77.8219 122.115 77.2681 120.209 77.6529 118.313C78.7791 115.393 78.0471 112.68 76.6956 110.042C76.1794 105.677 73.9927 101.555 74.7154 97.0022C76.6018 93.1625 75.2222 89.98 72.6882 87.0416C72.6882 85.6991 72.6882 84.3566 72.6976 83.0235C74.2461 78.9303 71.6371 75.6727 70.4921 72.1146C68.2866 70.6313 70.0885 69.3639 70.708 68.0308C71.2523 66.1908 71.1115 64.5009 69.6944 63.0646C68.0989 60.2481 68.6433 57.1501 68.5025 54.1459C67.6391 51.1793 70.2481 47.5086 66.7006 45.0771C65.5931 41.8195 65.4711 38.4679 65.7058 35.0789C66.6349 33.4266 65.6682 32.2625 64.7109 31.0796C64.8517 25.9537 67.686 23.9259 72.5568 24.2545C73.8238 24.7896 75.0063 25.6627 76.5079 25.2496L78.5257 24.2826C79.9898 26.0945 81.7823 25.4843 83.5655 24.9773C84.7668 25.5688 85.4801 24.2263 86.5312 24.2357C88.0234 24.9586 89.6283 24.4047 91.158 24.6394C92.8943 25.9631 94.8276 24.5643 96.6202 25.0337C98.8069 23.4189 101.472 23.7006 103.687 24.2075C108.342 25.2684 112.856 25.259 117.446 24.2263C119.98 25.0431 122.589 24.339 125.151 24.6488C128.961 27.9909 124.775 29.4179 123.508 31.5584C121.387 32.7037 118.957 32.131 116.742 32.8163C115.991 32.9478 115.231 32.9572 114.48 32.8445C112.584 32.3282 110.632 32.3563 108.68 32.3282C107.741 32.3 106.812 32.1592 105.94 31.8118C104.569 30.6853 103.208 31.0138 101.866 31.8963C100.449 32.3282 99.0415 32.3 97.6525 31.7931C91.8713 28.235 89.4124 28.357 85.649 32.422C84.7856 32.9384 83.8752 32.9853 82.9367 32.6755C81.7448 31.5302 80.5435 31.0232 79.3234 32.6474C77.8124 33.3702 76.2358 33.3139 74.6403 33.0792C72.8571 32.5629 72.6976 33.3233 73.3733 34.7315C73.683 35.8299 73.7863 36.9565 73.9083 38.083C74.4339 40.4394 74.7623 42.8334 75.4099 45.171C75.6539 46.1567 75.7759 47.1519 75.8228 48.1564C75.8697 50.156 75.7572 52.1744 76.4329 54.1084C76.7895 57.0187 77.9063 59.8257 77.5591 62.8205C77.1649 64.4352 76.6112 66.0687 78.263 67.3736C78.6853 67.8806 78.948 68.4439 78.9762 69.101C78.7416 70.9787 78.5727 72.8563 79.0607 74.7245C79.1264 75.1469 79.1358 75.56 79.117 75.9825C78.6008 77.8131 79.8397 79.165 80.4309 80.7046C81.7542 84.5349 80.8814 88.5436 81.3788 92.4397C80.7781 96.0447 81.0128 99.4337 83.894 102.147C84.1474 106.174 85.4988 110.07 85.1422 114.21C84.8982 117.055 86.8878 118.576 89.4312 119.374C92.4156 121.918 91.9182 124.753 88.7273 125.946C83.9034 127.757 85.1422 130.067 87.2069 132.94C87.7512 134.038 88.2393 135.165 89.037 136.122C90.7545 138.394 93.2133 138.582 95.7567 138.591C110.651 138.638 125.545 138.779 140.439 138.929C145.817 140.929 145.469 137.587 144.934 134.085C144.925 132.874 145.329 131.804 146.014 130.827C146.342 130.161 147.543 129.87 147.149 129.006C146.943 128.555 146.014 128.95 145.404 129.034C142.964 129.353 140.533 129.541 138.14 128.809C135.915 126.912 133.569 125.955 130.847 127.889C128.736 128.377 126.652 128.433 124.588 127.664C121.078 125.279 120.984 122.838 124.494 120.35C125.789 119.749 127.187 119.702 128.576 119.618C132.499 119.618 136.422 119.693 140.326 119.355C142.11 119.299 143.902 120.106 145.666 119.242C146.22 118.923 146.755 118.567 147.215 118.116C148.867 116.351 148.013 114.417 147.609 112.511C147.253 110.774 147.684 109.169 148.444 107.62C149.543 105.639 149.064 103.414 149.374 101.321C149.43 100.842 149.524 100.373 149.646 99.9125C150.322 98.1288 150.124 96.1761 150.697 94.3736C151.57 92.7683 152.349 91.1347 151.504 89.2477C151.194 87.7738 151.166 86.2905 151.119 84.7978C151.138 82.9953 151.063 81.1928 151.729 79.4654C155.568 75.1375 156.957 70.4905 153.531 65.2238C154.216 59.4783 153.325 53.5733 155.342 47.978C156.187 46.2506 158.899 44.9926 156.703 42.4954C156.262 41.1247 156.243 39.7635 156.816 38.421C157.379 36.7969 162.081 36.1209 157.952 33.436C157.088 33.22 156.234 33.0041 155.436 32.6004C153.878 30.8824 152.236 30.7979 150.49 32.3376C149.749 32.4033 149.158 32.0653 148.632 31.5959C145.385 27.7093 142.232 29.8122 139.078 31.7461C137.849 32.1873 136.629 32.131 135.418 31.7179C133.353 30.1032 128.755 30.5257 129.327 27.099C129.918 23.5316 134.339 26.6954 136.516 24.9398C138.027 25.6533 138.975 23.372 140.505 24.2075C142.832 26.057 144.878 24.9492 146.896 23.5973C148.031 23.5316 149.167 23.5691 150.303 23.5598C152.367 23.6255 154.479 23.2969 156.478 24.1137C159.322 26.1133 162.729 22.0671 165.488 24.9586C166.192 26.686 166.182 28.4134 165.497 30.1408C165.431 30.7791 165.356 31.4175 165.291 32.0559C164.211 33.5486 164.286 35.1352 164.934 36.7687C165.112 38.5243 164.559 40.3362 165.309 42.0542C163.376 44.7767 165.685 48.4474 163.282 51.0573C163.029 53.132 161.724 55.6762 165.488 55.939C165.816 56.0235 166.145 56.0986 166.483 56.1831C169.176 57.2815 171.269 59.2812 173.568 60.971C177.66 63.6466 179.274 68.1059 180.185 72.3399C180.842 75.3816 181.583 78.6393 181.536 81.8875C182.127 83.6243 182.156 85.3517 181.517 87.0885C180.269 90.2804 181.142 93.9511 179.256 96.9929C178.158 97.7063 177.191 98.4949 177.519 100.016C176.769 102.006 176.018 103.996 175.267 105.987C172.958 106.775 173.137 109.028 172.451 110.774C171.156 111.854 169.861 112.943 168.575 114.023C162.119 115.863 161.48 115.572 161.321 110.671C163.357 106.925 166.332 103.893 169.035 100.654C172.639 99.3962 173.484 97.0773 171.71 93.7352C171.428 92.2425 171.776 90.9376 172.799 89.811C174.441 88.6939 175.239 87.5016 173.09 86.0746C172.273 84.2533 172.536 82.4978 173.343 80.7516C173.822 80.2916 174.676 80.0381 174.854 79.5124C175.68 77.1372 172.189 68.5096 169.824 66.7728C169.448 66.5193 169.139 66.1908 168.885 65.8152C168.003 64.0878 167.703 61.3278 164.671 63.487C163.526 64.1348 162.644 65.0266 162.025 66.1908C159.481 68.3125 160.955 70.7252 161.537 73.0722C161.63 73.7857 161.63 74.5085 161.584 75.222C161.537 75.9543 161.405 76.6678 161.227 77.3813C160.523 79.503 160.87 81.7185 160.645 83.8872C159.453 87.3326 160.861 91.0878 159.444 94.505C158.824 95.9883 158.637 97.5843 158.374 99.1521C158.28 99.5933 158.139 100.025 157.98 100.438C156.872 102.532 157.773 104.813 157.388 106.972C157.304 107.423 157.163 107.855 156.985 108.277C156.018 109.779 155.474 111.601 157.041 112.708C161.086 115.572 159.322 117.665 156.459 119.806C154.667 119.74 154.582 120.594 155.342 121.89C154.601 123.11 155.145 124.49 154.864 125.767C154.226 127.11 153.118 128.311 153.541 129.992C152.696 135.211 152.311 140.187 158.543 142.713C160.007 143.304 159.397 145.05 159.444 146.308C159.538 148.899 159.162 151.547 160.589 153.931C161.142 155.94 161.124 157.949 160.598 159.958C159.566 160.944 159.538 161.93 160.598 162.906C161.124 165.263 161.133 167.61 160.598 169.966C161.452 179.129 159.613 188.329 161.208 197.557C161.649 200.092 160.307 203.106 161.283 205.922C160.72 207.912 160.758 209.903 161.264 211.902C161.612 218.605 160.364 220.107 153.681 219.816C150.537 219.685 147.741 221.76 144.578 220.802C142.579 219.957 140.477 220.586 138.431 220.389C136.113 220.577 133.747 219.985 131.458 220.755C130.801 220.746 130.153 220.736 129.496 220.727C124.822 220.154 120.148 220.201 115.465 220.699C112.162 219.206 108.924 222.623 105.62 220.83C103.95 219.957 102.148 220.577 100.421 220.389C98.4127 220.558 96.3668 220.013 94.3959 220.755L94.4052 220.793Z" fill="#333333"/>
<path d="M123.481 30.9013C123.049 28.5918 127.188 27.8596 125.489 25.1089C125.114 24.8742 125.011 24.6676 125.161 24.4986C125.302 24.339 125.442 24.2639 125.593 24.2639L125.489 24.095C127.47 23.2406 129.478 23.5035 131.496 23.8978C133.073 24.6582 135.156 23.1092 136.498 24.9774C135.344 29.1457 132.134 25.9444 129.844 26.5922C130.219 30.2911 134.996 28.0473 135.494 31.1454C135.785 31.6805 135.682 32.1405 135.212 32.516C133.748 33.3797 132.19 33.2389 130.614 32.9479C128.68 32.2344 126.569 32.5348 124.607 31.9058C124.11 31.6993 123.734 31.3707 123.472 30.9013H123.481Z" fill="#333333"/>
<path d="M156.459 119.843C156.328 117.965 158.336 117.242 158.768 115.684C156.065 113.703 152.226 112.126 156.29 108.023C157.735 110.577 160.41 109.159 162.418 109.91C161.189 116.153 166.041 113.384 168.566 114.06C165.234 117.458 161.227 119.449 156.459 119.843Z" fill="#333333"/>
<path d="M72.6877 87.0322C77.4178 89.4262 78.2343 93.4161 74.7149 96.9929C73.4103 93.801 71.8337 90.6654 72.6877 87.0322Z" fill="#333333"/>
<path d="M70.5016 72.105C73.045 75.372 76.9398 78.3668 72.7071 83.0139C72.3411 79.3056 68.512 76.292 70.5016 72.105Z" fill="#333333"/>
<path d="M66.701 45.0581C73.1767 46.9075 69.479 50.7942 68.5029 54.1269C64.9647 51.6861 66.9919 48.1468 66.701 45.0581Z" fill="#333333"/>
<path d="M76.7054 110.033C80.6096 111.92 80.1497 114.821 78.5731 117.994C77.9536 118.595 77.3343 118.604 76.7336 117.966C76.6961 115.318 74.0307 112.69 76.7054 110.033Z" fill="#333333"/>
<path d="M173.558 61.0086C170.593 60.3045 168.256 58.6804 166.473 56.2207C170.33 55.6011 172.132 58.0326 173.558 61.0086Z" fill="#333333"/>
<path d="M115.465 220.736C120.139 219.478 124.822 219.478 129.496 220.765C124.822 220.765 120.148 220.746 115.465 220.736Z" fill="#5F5F61"/>
<path d="M83.5554 24.9679C81.5001 27.4652 79.5668 29.0799 78.5156 24.2732C80.2143 24.3483 82.0819 23.2218 83.5554 24.9679Z" fill="#333333"/>
<path d="M146.465 24.2356C144.475 28.1597 142.486 27.2491 140.496 24.2356C141.482 24.1417 142.467 24.0384 143.462 23.9445C144.513 23.5502 145.555 23.231 146.474 24.2356H146.465Z" fill="#333333"/>
<path d="M69.6946 63.0459C73.1577 64.0598 73.5425 65.7121 70.7082 68.0122C69.3567 66.5664 69.3192 64.8484 69.6946 63.0459Z" fill="#333333"/>
<path d="M76.7325 117.966C77.3425 117.975 77.9525 117.985 78.572 117.994C78.1872 119.984 79.2195 122.181 77.6804 124.002C76.0661 122.19 76.4134 120.078 76.7325 117.966Z" fill="#535355"/>
<path d="M165.478 55.9765C162.034 56.7745 161.762 56.1736 163.273 51.0947C163.395 53.0005 163.188 55.0565 165.478 55.9765Z" fill="#333333"/>
<path d="M64.7013 31.0703C66.9818 31.9152 69.5064 32.7038 65.6961 35.0696C64.7669 33.8867 64.1569 32.6193 64.7013 31.0703Z" fill="#333333"/>
<path d="M96.6113 25.0243C94.9126 25.2684 93.2609 28.2913 91.5059 25.0994C91.7217 24.6676 92.0502 24.3765 92.5101 24.2263C93.9178 24.2733 95.5227 23.2875 96.6113 25.0243Z" fill="#333333"/>
<path d="M125.593 24.2542C125.602 24.5453 125.565 24.8269 125.489 25.1086C122.824 24.6485 119.962 25.9441 117.428 24.2261C120.149 24.2355 122.871 24.2449 125.593 24.2542Z" fill="#828185"/>
<path d="M164.428 36.0551C161.031 33.9428 164.278 33.2575 165.282 32.084C165.273 33.3889 165.263 34.6939 165.254 36.0082C165.01 36.5527 164.728 36.5433 164.428 36.0551Z" fill="#333333"/>
<path d="M172.442 110.803C172.724 108.822 171.363 105.874 175.258 106.015C174.319 107.611 173.381 109.207 172.442 110.803Z" fill="#333333"/>
<path d="M146.464 24.2354L143.451 23.9443C145.713 22.339 148.2 23.2496 150.612 23.306C150.546 23.5313 150.49 23.7566 150.424 23.9819C149.101 24.0664 147.778 24.1509 146.454 24.2354H146.464Z" fill="#D9D9DA"/>
<path d="M150.434 23.9822C150.49 23.7569 150.546 23.5316 150.621 23.3063C152.592 23.4471 154.779 22.0577 156.468 24.1418C154.46 24.0855 152.442 24.0292 150.434 23.9822Z" fill="#B2B1B4"/>
<path d="M177.52 100.053C175.408 97.4997 177.032 97.096 179.256 97.0303C178.674 98.0348 178.102 99.0487 177.52 100.053Z" fill="#333333"/>
<path d="M153.531 130.029C151.476 128.264 152.818 127.129 154.264 126.002C155.099 126.584 154.967 127.316 154.601 128.095C154.357 128.8 154.536 129.748 153.531 130.029Z" fill="#333333"/>
<path d="M68.6621 160.944C71.5715 162.615 71.7217 164.314 68.6903 166.023C69.6945 164.324 69.6194 162.634 68.6621 160.944Z" fill="#5B5B5E"/>
<path d="M160.598 170.003C160.598 167.647 160.598 165.3 160.598 162.943C161.987 165.3 161.855 167.647 160.598 170.003Z" fill="#C9C8CA"/>
<path d="M131.457 220.793C133.672 219.253 136.159 220.136 138.533 219.995C138.824 220.258 138.89 220.455 138.73 220.595C138.608 220.708 138.477 220.765 138.327 220.765C136.037 220.774 133.747 220.783 131.457 220.793Z" fill="#606062"/>
<path d="M154.602 128.095C154.489 127.4 154.376 126.696 154.264 126.002C154.705 124.669 153.907 123.007 155.334 121.927C155.212 124.002 156.178 126.199 154.602 128.095Z" fill="#9A9A9D"/>
<path d="M69.4318 201.923C69.413 203.941 69.4036 205.969 69.3849 207.988C67.8833 205.95 68.268 203.932 69.4318 201.923Z" fill="#BFBFC1"/>
<path d="M161.265 211.94C159.961 209.94 160.045 207.95 161.284 205.959L161.265 211.94Z" fill="#464648"/>
<path d="M94.4062 220.793C96.302 219.009 98.5263 220.314 100.6 220.135C100.835 220.361 100.891 220.539 100.769 220.689C100.657 220.821 100.553 220.886 100.45 220.886C98.4418 220.858 96.424 220.821 94.4156 220.793H94.4062Z" fill="#9C9C9E"/>
<path d="M138.328 220.764C138.375 220.501 138.45 220.248 138.534 219.994C140.571 220.088 142.739 219.309 144.569 220.839C142.485 220.811 140.402 220.792 138.318 220.764H138.328Z" fill="#B3B3B6"/>
<path d="M131.495 23.8977C129.496 23.9635 127.487 24.0292 125.488 24.0949C127.44 22.5553 129.449 22.6397 131.495 23.8977Z" fill="#D4D4D6"/>
<path d="M76.498 25.2402C74.6867 26.8737 73.5698 25.7472 72.5469 24.2451C74.086 23.71 75.3343 24.3014 76.498 25.2402Z" fill="#333333"/>
<path d="M164.428 36.0552C164.7 36.0271 164.981 36.0083 165.253 36.0083C165.272 38.0361 165.291 40.0545 165.3 42.0824C163.771 40.2517 164.728 38.0643 164.428 36.0552Z" fill="#5F5F61"/>
<path d="M92.5189 24.2354C92.1811 24.5264 91.8526 24.8174 91.5147 25.1084C89.8442 24.8831 87.9953 25.6529 86.5312 24.2354C88.5303 24.2354 90.5292 24.2354 92.5283 24.2354H92.5189Z" fill="#49484A"/>
<path d="M160.599 159.996C160.599 157.987 160.599 155.978 160.59 153.969C161.838 155.978 161.951 157.987 160.599 159.996Z" fill="#D8D8D9"/>
<path d="M165.488 30.1783C165.488 28.4509 165.488 26.7235 165.479 24.9961C167.008 26.7235 167.065 28.4509 165.488 30.1783Z" fill="#333333"/>
<path d="M181.508 87.1258C181.508 85.389 181.517 83.6616 181.527 81.9248C182.991 83.6616 182.878 85.3984 181.508 87.1258Z" fill="#747477"/>
<path d="M100.439 220.886C100.505 220.642 100.552 220.389 100.59 220.135C102.288 220.201 104.175 219.037 105.62 220.868C103.893 220.868 102.166 220.877 100.439 220.886Z" fill="#D8D8D9"/>
<path d="M130.604 31.9711C132.209 31.9617 133.804 31.9524 135.409 31.9336C138.487 31.5581 141.519 30.9197 144.513 30.0935C146.305 29.8025 148.013 29.8776 149.393 31.2764C149.552 31.8491 149.881 32.1119 150.481 31.8772C152.133 30.9572 153.794 30.9478 155.437 31.896C156.403 31.9617 157.37 32.0368 158.337 32.1026C159.876 34.3087 158.768 36.1864 157.614 38.064C157.614 39.7256 157.614 41.3967 157.614 43.0584C158.243 44.6262 157.464 45.856 156.619 47.0577C154.789 53.2725 155.775 59.7784 154.63 66.0684C155.69 70.6592 155.202 75.0058 152.621 79.0427C152.537 80.9954 152.452 82.9575 152.368 84.9102C151.551 86.8535 152.011 88.8625 152.096 90.8528C152.039 91.923 151.514 92.8337 151.129 93.8006C150.566 95.8566 151.429 98.044 150.566 100.072C150.481 100.353 150.425 100.645 150.388 100.945C149.252 103.217 150.575 105.77 149.571 108.061C148.313 109.554 148.201 111.253 148.67 113.065C148.933 115.158 149.665 117.336 147.628 119.026C147.225 119.43 146.831 119.834 146.427 120.237C144.775 120.65 143.133 120.669 141.491 120.219C137.277 121.814 132.903 120.725 128.605 120.96C126.69 120.096 124.823 120.444 122.964 121.157C118.985 121.739 114.978 121.373 110.98 121.467C109.309 121.345 107.639 121.383 105.968 121.308C105.161 121.27 104.363 121.139 103.575 120.951C101.022 120.05 98.4882 120.256 95.9448 121.026C93.7018 121.533 91.5526 121.308 89.5348 120.162C86.1468 120.622 83.6973 118.885 84.0258 115.787C84.5232 111.093 82.0455 106.662 83.3501 102.025C80.6378 99.5555 81.0789 96.1382 80.6378 92.9839C79.2394 88.7593 80.4782 84.2718 79.352 80.019C78.6763 78.761 78.4323 77.4185 78.6293 76.0009C78.5636 75.7005 78.4886 75.3907 78.4041 75.0903C77.8035 73.0531 77.8692 71.0159 78.3572 68.9693C78.5731 68.3122 78.1695 68.1056 77.6345 68.0024C76.4708 66.8852 76.5365 65.4488 76.6116 64.0124C76.208 60.7173 75.8138 57.4127 75.4103 54.1175C74.4624 52.146 75.6167 49.921 74.6407 47.9589C74.575 47.0389 74.5093 46.1095 74.4436 45.1895C73.477 42.8988 74.7815 40.0354 72.6511 38.0358C72.5478 36.7121 72.454 35.3884 72.3507 34.0647C71.9378 32.9287 71.8064 31.943 73.4957 31.9336C75.5041 31.9336 77.5031 31.9148 79.5115 31.9148C80.5064 31.2201 81.5106 31.2201 82.5148 31.9148C83.5096 31.9148 84.5138 31.9148 85.5086 31.9148C88.906 30.3282 92.4066 29.7931 96.0574 30.9009C98.4882 31.9711 100.966 31.774 103.462 31.1919C105.17 31.2483 106.831 31.8115 108.558 31.5956C110.557 31.7458 112.594 31.2576 114.565 31.9336H116.376C119.023 31.2107 121.716 31.774 124.382 31.5956C126.446 31.774 128.558 31.2013 130.585 31.9805L130.604 31.9711Z" fill="white"/>
<path d="M117.531 147.829C127.958 147.885 138.385 148.007 148.812 147.941C151.402 147.923 152.519 148.326 152.566 151.359C152.659 158.897 153.251 166.417 153.635 173.956C154.114 175.645 154.142 177.326 153.617 179.006C151.824 180.415 153.42 181.917 153.429 183.391C153.476 189.774 153.626 196.158 152.678 202.523C152.453 204.016 153.429 205.659 153.382 207.217C153.176 214.23 147.854 212.916 143.49 213.122C141.482 213.611 139.473 213.639 137.465 213.104C128.812 212.644 120.215 214.822 111.543 213.77C109.845 213.254 108.146 213.235 106.457 213.78C97.6254 213.742 88.8597 212.85 80.0941 211.893C77.6446 211.63 76.4714 209.968 76.5184 207.424C76.6498 199.256 76.0679 191.098 76.4057 182.902C76.5278 179.992 76.0022 176.988 76.3119 174.012C75.8802 171.656 75.9083 169.29 76.2931 166.933C76.7624 161.657 76.3964 156.428 75.5986 151.208C75.1106 148.035 77.5883 146.073 80.798 146.984C85.9316 148.43 91.1591 148.223 96.3959 147.866C98.47 147.322 100.535 147.284 102.609 147.885C103.538 147.885 104.467 147.895 105.387 147.904C107.667 147.087 110.023 147.707 112.332 147.519C114.068 147.641 115.832 147.228 117.531 147.838V147.829Z" fill="#EEEBFF"/>
<path d="M141.536 140.14C128.698 141.501 115.84 138.882 102.926 140.609C99.388 141.079 95.1741 140.131 91.2605 140.037C88.5389 139.971 88.6609 137.455 87.4314 136.113C86.934 134.019 86.7182 131.85 85.7046 129.898C85.5638 128.058 85.8266 126.499 88.1916 126.49C90.3596 126.574 92.5181 126.743 94.6955 126.593C99.3504 125.898 103.996 126.377 108.651 126.584C110.641 126.659 112.64 126.668 114.629 126.537C117.792 126.678 121.011 126.114 124.089 127.269C126.257 127.776 128.454 127.4 130.64 127.513C132.968 127.26 135.258 127.551 137.52 128.114C140.495 128.105 143.47 128.086 146.445 128.076C147.355 128.987 147.28 129.973 146.651 130.996C146.332 132.001 146.013 132.996 145.694 134C146.069 134.864 145.947 135.765 145.91 136.666C145.431 138.61 144.371 139.924 142.212 140.027C141.987 140.065 141.771 140.093 141.546 140.131L141.536 140.14Z" fill="white"/>
<path d="M162.419 109.901C161.819 110.061 161.03 110.033 160.636 110.408C156.591 114.248 156.526 111.009 156.291 108.014C156.432 107.723 156.498 107.413 156.488 107.085C157.849 104.879 155.944 102.213 157.492 100.025L157.511 100.081C158.572 98.523 157.436 96.6079 158.328 95.0213C159.726 91.4914 157.586 87.586 159.482 84.1124C160.13 83.3989 159.876 82.4132 160.242 81.6058C160.223 79.3996 161.256 77.2591 160.655 75.0154L160.496 73.1378C161.462 70.8565 159.379 68.2279 161.293 66.0592C161.106 63.7592 162.11 62.6514 164.456 62.8955C167.009 62.6044 168.248 64.2943 169.383 66.1437L169.336 66.1062C173.672 70.0867 175.605 76.8649 173.606 81.0331C173.606 82.6948 173.606 84.3659 173.606 86.0276C174.573 87.3701 174.507 88.6938 173.588 90.0269C172.612 91.2097 172.086 92.4959 172.612 94.0449C173.165 97.0397 171.973 99.2928 169.599 101.02C167.544 104.259 165.488 107.498 162.41 109.901H162.419Z" fill="white"/>
<path d="M108.407 127.907C103.818 128.339 99.2289 126.865 94.6396 127.917C92.6875 126.875 90.4538 128.067 88.4924 127.119C85.6111 126.621 86.5966 128.583 86.6716 129.973C87.0377 131.024 87.3474 132.076 86.3807 132.996C82.561 129.334 83.1241 127.137 88.0794 125.363C90.7072 124.424 90.9982 122.443 89.5341 120.162C91.824 120.087 94.114 120.021 96.4134 119.946C98.8065 119.289 101.2 119.27 103.593 119.946C104.231 120.021 104.879 120.087 105.517 120.162C107.178 120.725 108.83 120.707 110.491 120.162C114.827 120.162 119.153 120.162 123.489 120.153C123.949 120.303 124.278 120.594 124.484 121.026C122.419 123.016 122.504 124.997 124.484 126.987C124.841 127.194 124.953 127.382 124.813 127.56C124.681 127.72 124.55 127.804 124.418 127.804C121.134 127.832 117.858 127.86 114.573 127.888C112.518 127.231 110.453 127.231 108.398 127.888L108.407 127.907Z" fill="#333333"/>
<path d="M173.616 81.0329C174.442 75.4095 171.795 70.7906 169.346 66.106C173.794 66.3031 175.277 69.1383 174.855 72.9874C174.667 74.6678 174.836 75.7756 175.896 77.0148C178.731 80.3194 176.356 80.8076 173.625 81.0329H173.616Z" fill="#333333"/>
<path d="M95.475 31.9151C92.1527 30.7228 88.8304 33.0417 85.5175 31.9057C85.4611 29.8779 86.0149 28.1411 88.3799 28.1505C91.6741 28.1693 95.475 26.8925 97.5115 31.0326C97.0423 31.7931 96.0663 31.4175 95.475 31.9151Z" fill="#333333"/>
<path d="M152.631 79.0333C153.297 74.7054 153.973 70.387 154.639 66.0591C158.281 71.1943 157.539 75.9822 152.631 79.0333Z" fill="#333333"/>
<path d="M149.392 31.2764C147.787 31.2388 146.183 31.2013 144.568 31.1637C142.851 31.6895 141.143 31.9429 139.463 31.0041C143.001 26.9955 146.276 27.08 149.383 31.2858L149.392 31.2764Z" fill="#333333"/>
<path d="M137.511 128.123C135.428 129.869 133.466 129.165 131.533 127.832C131.148 127.682 131.017 127.504 131.12 127.316C131.232 127.119 131.345 127.015 131.467 127.015C134.123 123.842 136.216 123.777 137.502 128.123H137.511Z" fill="#333333"/>
<path d="M157.623 38.0639C156.656 35.9329 158.486 34.1397 158.346 32.1025C159.997 32.8066 161.809 33.3793 161.33 35.792C160.917 37.848 159.34 38.0921 157.623 38.0639Z" fill="#333333"/>
<path d="M80.6376 92.9839C82.3551 95.7534 82.0642 99.1237 83.3499 102.025C78.3946 100.231 79.9338 96.4762 80.6376 92.9839Z" fill="#333333"/>
<path d="M169.382 66.1439C167.74 65.0643 166.097 63.9846 164.455 62.8956C164.83 60.7552 166.36 60.7645 167.796 61.3935C169.908 62.323 169.382 64.3695 169.382 66.1439Z" fill="#333333"/>
<path d="M169.607 101.02C170.612 98.692 171.616 96.3732 172.62 94.0449C174.628 99.0112 174.244 99.903 169.607 101.02Z" fill="#333333"/>
<path d="M161.283 66.0591C161.264 68.4436 162.381 70.9596 160.485 73.1376C159.866 70.678 157.069 67.9742 161.283 66.0591Z" fill="#333333"/>
<path d="M145.301 136.976C145.433 135.991 145.555 134.996 145.686 134.01C146.991 136.085 147.047 138.46 145.799 140.29C144.898 141.605 142.946 141.351 141.538 140.14L141.416 139.84C143.124 139.445 145.273 139.652 145.301 136.976Z" fill="#484849"/>
<path d="M146.642 131.005C146.576 130.029 146.501 129.062 146.436 128.086C147.252 126.978 148.547 126.565 149.092 127.86C149.908 129.822 148.472 130.724 146.642 131.005Z" fill="#333333"/>
<path d="M155.446 31.896C153.794 31.896 152.142 31.8866 150.49 31.8772C152.151 28.2534 153.803 28.291 155.446 31.896Z" fill="#333333"/>
<path d="M173.597 90.0266C173.597 88.6935 173.616 87.3604 173.616 86.0273C174.677 86.1306 176.084 85.8208 176.244 87.3604C176.432 89.1536 175.183 89.8389 173.588 90.0266H173.597Z" fill="#333333"/>
<path d="M156.628 47.0579C156.093 45.5089 156.685 44.2415 157.623 43.0586C160.148 44.9644 160.007 45.5464 156.628 47.0579Z" fill="#333333"/>
<path d="M139.472 30.9951C141.171 31.0514 142.87 31.1078 144.578 31.1547C141.65 32.9384 138.478 31.8025 135.418 31.9339C135.446 31.6711 135.474 31.3988 135.512 31.1359C136.835 31.089 138.158 31.0421 139.482 30.9951H139.472Z" fill="#777779"/>
<path d="M82.515 31.9056H79.5117C79.5962 30.779 79.3522 29.2676 81.0134 29.2676C82.6745 29.2676 82.4211 30.779 82.515 31.9056Z" fill="#333333"/>
<path d="M72.6504 38.0264C76.1229 39.688 73.9362 42.7767 74.443 45.18C72.8757 43.0396 73.6077 40.317 72.6504 38.0264Z" fill="#D0CFD1"/>
<path d="M150.613 92.9652C150.435 92.1484 150.304 91.3505 151.317 90.9468C151.768 90.6839 151.955 90.0549 152.584 90.0361C154.292 91.8574 153.11 92.984 151.618 94.026C150.895 94.0354 150.867 93.3971 150.613 92.9652Z" fill="#333333"/>
<path d="M124.363 31.8491C121.707 31.8772 119.051 31.9054 116.395 31.9242C118.525 29.9715 121.2 31.7834 123.49 30.9009C123.837 30.9854 124.175 31.0699 124.522 31.1544C124.832 31.3891 124.916 31.5674 124.757 31.6989C124.644 31.8021 124.503 31.8491 124.353 31.8491H124.363Z" fill="#99999C"/>
<path d="M157.493 100.035C156.817 102.335 158.562 104.982 156.488 107.094C157.061 104.776 154.621 102.034 157.493 100.035Z" fill="#333333"/>
<path d="M95.4746 31.9152C96.1503 31.6242 96.826 31.3238 97.5112 31.0327C99.1817 30.9952 100.843 30.9576 102.513 30.9201C102.898 30.676 103.274 30.6666 103.649 30.9389C103.874 31.3519 103.799 31.6899 103.377 31.934C100.74 31.934 98.1118 31.934 95.4746 31.934V31.9152Z" fill="#68686A"/>
<path d="M76.2921 166.934C76.2921 169.29 76.3015 171.656 76.3109 174.012C75.0627 171.656 75.1377 169.29 76.2921 166.934Z" fill="#69686D"/>
<path d="M150.613 92.9653C150.951 93.3221 151.28 93.6694 151.618 94.0262C151.017 95.9977 152.303 98.2883 150.566 100.063C150.585 97.6969 150.595 95.3311 150.613 92.9653Z" fill="#7B7A7D"/>
<path d="M160.571 82.0468C160.336 82.7978 160.58 83.8117 159.482 84.1215C159.773 81.7651 158.647 79.2398 160.317 77.043C161.396 78.6671 161.002 80.3569 160.561 82.0562L160.571 82.0468Z" fill="#333333"/>
<path d="M78.6285 76.001C80.2991 77.0806 79.3137 78.6484 79.3512 80.019C77.8402 78.9113 76.5357 77.7565 78.6285 76.001Z" fill="#333333"/>
<path d="M149.581 108.042C149.666 105.648 148.699 103.132 150.398 100.926C150.304 103.32 151.158 105.817 149.581 108.042Z" fill="#69696B"/>
<path d="M160.57 82.0473L160.326 77.0341C160.439 76.3581 160.551 75.6916 160.664 75.0156C162.015 77.372 161.903 79.719 160.58 82.0379L160.57 82.0473Z" fill="#D7D7D8"/>
<path d="M112.66 147.772C110.239 147.81 107.808 147.857 105.387 147.895C107.564 146.167 110.079 147.247 112.435 147.059C112.698 147.153 112.82 147.284 112.801 147.472C112.773 147.679 112.726 147.782 112.66 147.782V147.772Z" fill="#B3B1BF"/>
<path d="M147.637 119.008C148.876 117.177 148.294 115.027 148.678 113.046C149.42 115.224 150.875 117.524 147.637 119.008Z" fill="#333333"/>
<path d="M131.476 127.016C131.476 127.288 131.504 127.56 131.542 127.832C129.167 127.832 126.802 127.832 124.428 127.823C124.456 127.551 124.475 127.279 124.484 127.006C126.812 127.006 129.139 127.016 131.476 127.025V127.016Z" fill="#666568"/>
<path d="M76.6118 64.0127C78.4325 64.9609 77.0716 66.7352 77.6347 68.0026C75.814 67.0544 74.6034 65.9466 76.6118 64.0127Z" fill="#333333"/>
<path d="M152.583 90.036C152.161 90.3364 151.739 90.6462 151.316 90.9466C152.02 88.9939 150.509 86.6563 152.368 84.9102C152.443 86.6188 152.508 88.3274 152.583 90.036Z" fill="#676769"/>
<path d="M137.455 213.094C139.463 213.094 141.472 213.104 143.48 213.113C141.463 214.409 139.454 214.39 137.455 213.094Z" fill="#59585D"/>
<path d="M86.3711 133.005C86.4649 132.001 86.5682 130.987 86.662 129.982C88.2106 131.869 87.3284 134.057 87.4316 136.122C86.0332 135.437 86.7934 134.019 86.3711 133.005Z" fill="#CBCBCC"/>
<path d="M74.6506 47.9497C76.3211 49.8273 75.27 52.0429 75.4201 54.1082C73.7778 52.2306 74.7632 50.0151 74.6506 47.9497Z" fill="#8B8A8D"/>
<path d="M114.584 31.9242C112.575 31.943 110.558 31.9524 108.549 31.9712C108.221 31.8491 108.099 31.7083 108.174 31.5299C108.258 31.3422 108.343 31.2389 108.446 31.2389C110.52 31.2483 112.688 30.3846 114.584 31.9242Z" fill="#959598"/>
<path d="M78.3656 68.979C78.3844 71.0162 78.3938 73.0534 78.4125 75.1C77.2769 73.0722 76.8734 71.035 78.3656 68.979Z" fill="#828285"/>
<path d="M103.583 31.1547C103.227 31.0795 102.861 30.9951 102.504 30.92C102.635 30.1407 102.785 29.3615 103.762 29.2301C105 29.0705 105.338 29.906 105.498 30.8918C104.953 31.6992 104.296 31.6053 103.583 31.1453V31.1547Z" fill="#333333"/>
<path d="M102.598 147.885C100.524 147.885 98.4589 147.866 96.3848 147.866C98.4589 146.467 100.533 146.505 102.598 147.885Z" fill="#A19FAB"/>
<path d="M112.659 147.773C112.593 147.529 112.527 147.294 112.434 147.059C114.151 147.172 116 146.449 117.53 147.829C115.906 147.81 114.282 147.792 112.659 147.773Z" fill="#6F6E74"/>
<path d="M73.5049 31.9245C72.4068 32.2437 72.6133 33.2763 72.3599 34.0555C71.5434 33.511 70.4829 32.9947 71.4496 31.8212C72.0596 31.0795 72.8667 31.0608 73.5049 31.9338V31.9245Z" fill="#333333"/>
<path d="M103.583 31.1544C104.222 31.0699 104.86 30.9854 105.498 30.9009C106.483 31.0135 107.459 31.1262 108.445 31.2388C108.482 31.4829 108.511 31.727 108.548 31.9711C106.821 31.9523 105.104 31.943 103.377 31.9242C103.443 31.6707 103.518 31.4078 103.593 31.1544H103.583Z" fill="#B9B9BC"/>
<path d="M158.328 95.0308C158.356 96.7675 159.266 98.6451 157.511 100.091C157.633 98.3823 156.901 96.5235 158.328 95.0308Z" fill="#4A494B"/>
<path d="M124.485 121.045C124.157 120.754 123.819 120.463 123.49 120.172C125.208 120.35 127.15 119.111 128.614 120.951C127.235 120.979 125.865 121.017 124.485 121.045Z" fill="#454547"/>
<path d="M106.447 213.78C108.137 212.616 109.835 212.54 111.534 213.77H106.447V213.78Z" fill="#B2B0BD"/>
<path d="M153.605 178.997C153.605 177.317 153.624 175.627 153.624 173.946C154.835 175.636 154.957 177.317 153.605 178.997Z" fill="#636267"/>
<path d="M141.5 120.209C143.142 120.209 144.794 120.219 146.437 120.228C144.785 121.402 143.142 121.411 141.5 120.209Z" fill="#333333"/>
<path d="M124.363 31.8494C124.42 31.6147 124.467 31.3894 124.523 31.1547C126.541 31.502 128.793 30.1314 130.614 31.9714L124.363 31.8494Z" fill="#C4C4C6"/>
<path d="M103.584 119.956C101.191 119.956 98.7975 119.956 96.4043 119.956C98.7975 118.538 101.191 118.351 103.584 119.956Z" fill="#605F62"/>
<path d="M110.492 120.181C108.83 121.439 107.169 121.402 105.518 120.181C107.179 120.181 108.83 120.181 110.492 120.181Z" fill="#444344"/>
<path d="M99.4274 173.834C102.149 166.934 110.755 163 117.306 166.333C120.356 167.882 124.401 167.112 126.503 170.933C129.497 176.359 129.356 182.612 125.79 186.264C119.981 192.216 112.266 193.502 106.41 190.263C102.731 188.226 99.4086 185.597 98.6953 180.969C99.5775 178.659 98.4138 176.134 99.4274 173.834Z" fill="#333333"/>
<path d="M99.4256 173.833C99.2286 176.218 100.261 178.725 98.6936 180.968C98.7123 178.565 97.6143 176.049 99.4256 173.833Z" fill="#535255"/>
<path d="M145.301 136.977C146.165 140.863 143.528 140 141.416 139.84C142.749 138.939 144.466 138.563 145.301 136.977Z" fill="#D8D7D9"/>
<path d="M88.4922 127.119C90.5569 127.25 92.7812 126.171 94.6394 127.917C92.5653 127.842 90.3786 128.659 88.4922 127.119Z" fill="#CDCDD0"/>
<path d="M108.408 127.908C110.464 126.499 112.528 126.471 114.584 127.908C112.528 127.908 110.464 127.908 108.408 127.908Z" fill="#AAAAAC"/>
<path d="M113.944 183.973C107.281 183.973 104.381 181.11 106.511 176.481C108.013 173.224 111.044 172.285 114.142 173.12C117.088 173.918 121.133 174.82 120.711 178.894C120.373 182.18 117.708 184.283 113.944 183.973Z" fill="white"/>
</g>
<defs>
<clipPath id="clip0_936_10497">
<rect width="240" height="240" fill="white"/>
</clipPath>
</defs>
</svg>
