<svg width="240" height="240" viewBox="0 0 240 240" fill="none" xmlns="http://www.w3.org/2000/svg">
<g clip-path="url(#clip0_936_16392)">
<rect width="1389" height="602" transform="translate(-646 -32)" fill="white"/>
<path d="M120.643 175.033C123.131 169.274 127.938 165.619 132.621 161.839C134.295 160.063 135.494 157.539 138.571 157.89C142.767 157.89 146.104 155.208 149.927 154.009C160.028 150.829 163.783 151.191 170.095 158.773C170.694 159.497 171.621 159.949 172.402 160.527L172.266 160.391C173.986 167.192 176.259 173.879 176.112 181.042C176.089 182.434 177.401 182.196 178.374 182.106C180.535 184.346 180.003 187.017 179.573 189.665C179.098 191.679 177.526 192.89 176.18 194.282C176.813 196.703 172.922 196.511 173.51 198.91C172.436 200.845 171.78 203.255 168.794 202.949C158.693 208.811 148.298 209.241 137.62 204.703C135.155 203.651 132.711 202.565 130.257 201.49C128.685 200.641 126.332 200.596 126.637 197.869C125.427 194.474 121.989 192.245 121.672 188.375C119.319 186.394 121.366 183.136 119.511 181.008C119.376 180.193 119.24 179.379 119.104 178.575C118.81 177.036 119.511 175.939 120.654 175.033H120.643Z" fill="#333333"/>
<path d="M75.8857 117.244C74.7772 116.621 73.8723 115.524 72.4019 115.784C64.4275 115.297 60.1293 110.036 56.6455 103.699L56.6794 103.744C55.718 102.182 55.4126 100.406 54.9941 98.6632C54.7905 95.3816 54.338 92.0661 56.5324 89.1693C55.865 85.8877 57.8558 82.9795 57.8672 79.7998C58.806 77.4461 58.2064 74.7077 59.7334 72.5124C60.5705 69.0385 62.9345 66.5603 65.2419 64.0369C69.936 60.314 75.4106 61.7511 80.6702 61.7172C83.7129 62.2716 86.8008 62.7356 89.1875 64.9874C89.9453 65.474 90.7031 65.9606 91.461 66.4472C94.7412 67.1827 98.2024 67.5787 100.057 70.9961C100.385 71.1658 100.725 71.2564 101.087 71.279C105.102 72.9651 107.41 76.5295 110.17 79.5961C113.224 83.319 113.563 87.8001 113.778 92.3264C111.651 103.62 106.211 111.914 94.1078 114.268C92.7505 114.528 91.4045 115.015 90.2168 115.795C89.8435 116.169 89.4703 116.531 89.097 116.904C84.7309 118.353 80.3196 117.719 75.9083 117.266L75.8857 117.244Z" fill="#333333"/>
<path d="M58.918 71.0869C54.9817 72.8408 52.2896 77.435 46.5775 75.0135C43.1277 73.5537 35.7528 69.3329 34.8932 66.2777C32.8685 59.0922 34.7009 49.8472 39.3497 47.0295C42.9806 44.8229 47.2562 44.9248 51.0567 47.0748C53.4094 48.41 55.4454 50.2998 57.6285 51.9406C59.0763 53.2193 60.6938 54.3961 60.411 56.6819C60.445 59.5561 59.212 62.5548 61.2594 65.2253C63.2275 68.2806 60.5241 69.4574 58.918 71.0869Z" fill="#333333"/>
<path d="M189.143 165.268C181.949 169.082 177.583 163.062 172.255 160.391L172.391 160.527C172.323 158.909 172.244 157.279 172.176 155.661C171.577 153.262 171.577 150.852 172.176 148.442C172.335 148.091 172.425 147.717 172.436 147.333C173.884 142.863 177.368 140.204 180.976 137.635C181.349 137.273 181.734 136.899 182.119 136.537C184.053 134.772 186.338 135.1 188.622 135.485C191.575 136.458 195.239 136.221 196.45 140.124C196.45 140.487 196.529 140.837 196.687 141.166C199.934 145.488 198.995 150.433 198.825 155.276C198.079 160.991 193.249 162.767 189.165 165.257L189.143 165.268Z" fill="#333333"/>
<path d="M140.867 135.156C142.36 130.177 141.682 124.486 149.317 122.822C159.406 120.616 164.824 125.764 165.028 135.1C165.265 145.578 153.932 152.073 146.104 148.464C143.276 147.162 142.292 144.673 140.833 142.41C138.876 139.988 138.662 137.578 140.856 135.168L140.867 135.156Z" fill="#333333"/>
<path d="M70.816 35.0011C76.3697 29.6488 83.0546 31.0293 89.0042 35.0577C90.4407 35.8498 91.5831 36.7664 90.5538 38.6222C90.0787 41.123 91.9903 42.7072 92.9179 44.6535C94.5693 47.3919 94.5127 49.8588 91.7528 51.8956C88.8119 56.7953 82.8284 60.5069 79.1862 58.8435C73.4967 56.2409 67.5923 53.1177 68.6216 45.2193C68.9044 43.058 68.7008 40.8401 68.7234 38.6561C68.5085 36.9135 69.6962 35.9743 70.816 35.0011Z" fill="#333333"/>
<path d="M119.386 56.8515C119.895 61.3892 117.124 64.3878 114.41 67.4092C113.335 68.6086 112.136 68.5407 110.858 67.7826C107.623 69.8081 104.49 68.4276 101.334 67.5336C99.4904 66.9678 97.477 66.5718 97.6919 63.9239C95.6785 58.7526 97.6466 53.5699 97.6466 48.3873C98.2461 46.5768 98.5742 44.4947 101.255 44.7549C109.851 42.7068 114.873 41.5639 119.398 49.3605C120.19 51.8613 120.178 54.362 119.398 56.8628L119.386 56.8515Z" fill="#333333"/>
<path d="M56.5302 89.1695V99.1048C54.2454 100.598 52.2208 102.556 49.4382 103.145C46.5879 102.975 43.7035 103.563 40.8758 102.771C35.3107 103.303 35.2089 96.9661 31.431 95.2461C30.3677 94.2277 30.1302 92.7566 29.8135 91.4893C28.6371 86.9403 29.904 82.4366 32.8223 79.2456C35.7632 76.0432 39.8238 78.3064 43.3416 79.4832C43.6356 79.6643 43.9524 79.7548 44.2917 79.7548C48.1827 81.3616 51.7796 83.3532 54.0644 87.0874C53.9853 88.864 54.7657 89.6108 56.5416 89.1469L56.5302 89.1695Z" fill="#333333"/>
<path d="M178.408 190.468C178.397 187.685 178.386 184.901 178.374 182.117C178.431 179.775 177.899 177.195 180.829 175.996C182.039 173.336 184.324 172.126 186.971 171.413C188.441 170.994 189.9 170.304 191.393 170.225C194.504 170.066 198.734 166.581 200.453 170.383C202.184 174.185 205.396 178.723 202.422 183.407C199.956 187.277 198.972 192.754 192.92 193.207C189.979 194.338 186.846 193.15 183.871 193.942C181.157 194.214 179.155 193.343 178.408 190.48V190.468Z" fill="#333333"/>
<path d="M135.03 152.176C134.951 152.572 135.007 152.934 135.222 153.274C135.38 155.277 135.098 156.963 132.575 157.098C129.295 157.675 126.501 160.21 122.904 159.486C121.366 159.78 120.269 159.079 119.364 157.936C117.011 155.028 114.104 152.459 113.527 148.442C114.602 145.251 113.12 141.822 114.41 138.642C119.239 133.098 123.153 132.622 132.564 136.413C134.43 136.843 135.414 137.952 135.233 139.932C135.03 140.283 134.962 140.657 135.041 141.064C135.912 144.764 135.889 148.464 135.041 152.165L135.03 152.176Z" fill="#333333"/>
<path d="M90.1914 115.773C91.7297 112.458 95.3266 113.284 97.8942 112.254C106.208 108.905 110.178 102.511 112.146 94.3072C112.361 93.3906 112.995 92.5758 113.436 91.7158C113.752 91.1501 114.069 91.1501 114.397 91.7158C115.2 102.058 105.801 115.377 90.1914 115.773Z" fill="#E5E2F5"/>
<path d="M43.319 79.5058C42.9344 79.5624 42.5386 79.6303 42.154 79.6643C38.4553 79.9245 33.6594 75.4887 31.5442 82.4027C30.3452 86.3406 29.3725 90.1427 31.2727 94.1032C31.4311 94.4427 31.3745 94.8727 31.4198 95.2687C26.3864 90.1766 29.0444 84.8582 31.3066 79.834C33.2974 75.4322 37.6069 77.684 40.955 77.3332C42.3689 77.1861 43.0815 78.1819 43.319 79.5058Z" fill="#E6E3F6"/>
<path d="M197.931 155.695C197.592 150.851 198.463 145.895 196.664 141.165C202.026 145.759 200.408 151.361 198.96 156.951C198.451 156.668 198.112 156.249 197.931 155.695Z" fill="#E7E4F7"/>
<path d="M56.6426 103.688C60.9634 108.939 65.1824 114.314 72.3989 115.773C64.2436 115.83 59.1423 111.915 56.6426 103.688Z" fill="#E4E2F5"/>
<path d="M132.576 157.11C133.458 155.831 134.341 154.564 135.223 153.285C137.134 154.236 137.553 156.284 138.571 157.891C136.354 158.864 135.551 161.953 132.621 161.84C132.61 160.267 132.587 158.683 132.576 157.11Z" fill="white"/>
<path d="M197.931 155.695C198.271 156.114 198.621 156.533 198.961 156.951C198.384 162.903 194.029 164.397 189.143 165.268C191.179 161.251 197.173 160.878 197.931 155.695Z" fill="#E7E4F8"/>
<path d="M114.4 91.7152C114.083 91.7152 113.755 91.7152 113.439 91.7152C112.07 87.766 111.844 83.4547 109.604 79.7884C109.276 79.4829 109.163 79.1773 109.288 78.8831C109.412 78.6002 109.536 78.4531 109.65 78.4531C114.683 81.6329 114.615 86.6458 114.389 91.7152H114.4Z" fill="#E4E1F4"/>
<path d="M109.648 78.4531C109.637 78.8945 109.614 79.3471 109.603 79.7884C106.764 76.9481 103.913 74.1079 101.074 71.2676C105.949 71.2563 108.245 74.3229 109.659 78.4531H109.648Z" fill="#E9E7FA"/>
<path d="M54.0423 87.11C50.7847 84.6658 47.5271 82.2216 44.2695 79.7773C49.2916 79.8566 52.8094 81.9613 54.0423 87.11Z" fill="#E0DDF0"/>
<path d="M58.9176 71.0864C58.3973 68.6196 62.096 67.8275 61.259 65.2249C62.5824 64.8288 63.9057 64.4328 65.2291 64.0254C64.7201 67.5333 62.1412 69.8417 60.2749 72.5688C59.5962 72.3878 59.4944 71.6522 59.008 71.2901L58.9176 71.0864Z" fill="#ECEAF9"/>
<path d="M178.408 190.469C180.094 191.216 180.942 193.422 183.182 193.218C183.668 193.569 184.437 193.637 184.437 194.475C181.632 196.828 178.951 193.196 176.18 194.293C175.558 192.223 176.915 191.306 178.408 190.469Z" fill="white"/>
<path d="M89.1735 64.9763C86.1082 64.4671 83.009 64.0485 80.6562 61.7061C84.2306 60.8687 87.6805 60.3708 89.1735 64.9763Z" fill="#E3E1F3"/>
<path d="M180.975 137.646C178.125 140.883 175.286 144.108 172.436 147.344C172.831 141.958 176.304 139.276 180.975 137.646Z" fill="#E8E5F9"/>
<path d="M91.7539 51.8953C93.213 49.6547 92.5231 47.0634 92.919 44.6531C94.7401 44.506 95.1359 46.3958 96.3802 47.0634C95.102 48.9192 95.5544 52.4497 91.7539 51.8953Z" fill="white"/>
<path d="M196.437 140.136C194.627 137.771 191.517 137.782 189.277 136.198C189.006 135.972 188.915 135.745 188.994 135.519C189.085 135.293 189.175 135.18 189.266 135.18C192.75 135.259 196.946 134.274 196.437 140.136Z" fill="#E9E6F9"/>
<path d="M50.4459 102.386C51.9955 100.417 53.8053 98.9121 56.52 99.1045C56.5765 100.643 56.6217 102.194 56.6783 103.733C54.631 100.621 52.4932 104.072 50.412 103.642C50.0839 103.359 49.9821 103.076 50.0952 102.793C50.2083 102.522 50.3215 102.386 50.4346 102.386H50.4459Z" fill="#E7E4F7"/>
<path d="M100.034 70.9846C97.1722 69.4683 94.2992 67.952 91.4375 66.4357C93.0889 66.4244 94.729 66.4131 96.3804 66.4017C98.654 65.6549 99.0498 67.6239 99.9547 68.8573C99.9773 69.5702 100.011 70.2718 100.034 70.9846Z" fill="#DFDDEF"/>
<path d="M119.51 181.009C123.594 182.48 120.947 185.92 121.671 188.375C121.309 188.274 120.935 188.183 120.574 188.092C118.266 187.119 118.515 185.343 119.103 183.453C119.239 182.638 119.375 181.824 119.51 181.009Z" fill="#343434"/>
<path d="M140.866 135.157C140.142 137.567 140.222 139.978 140.844 142.399C137.36 139.978 136.41 137.556 140.866 135.157Z" fill="white"/>
<path d="M189.265 135.179C189.265 135.519 189.265 135.858 189.265 136.198C186.879 136.311 184.492 136.435 182.105 136.549C183.915 133.075 186.426 133.256 189.265 135.179Z" fill="#E8E5F8"/>
<path d="M135.212 139.955C134.319 138.778 133.437 137.613 132.543 136.436C132.769 135.315 133.029 133.743 134.522 134.636C136.694 135.938 136.728 137.952 135.201 139.955H135.212Z" fill="white"/>
<path d="M186.971 171.402C184.924 172.929 182.877 174.457 180.829 175.984C180.105 170.745 183.657 171.232 186.971 171.402Z" fill="white"/>
<path d="M75.8848 117.244C80.2848 117.119 84.6734 117.006 89.0734 116.882C84.7413 119.337 80.3187 118.692 75.8848 117.244Z" fill="#EEEBFF"/>
<path d="M168.793 202.95C170.365 201.603 171.937 200.257 173.51 198.91C173.679 202.294 173.691 205.485 168.793 202.95Z" fill="white"/>
<path d="M135.029 152.176C135.029 148.476 135.029 144.775 135.029 141.075C136.862 144.775 136.884 148.476 135.029 152.176Z" fill="#343434"/>
<path d="M101.243 44.7435C100.044 45.9543 98.8334 47.1651 97.6344 48.3759C97.2159 47.9346 96.7974 47.4933 96.3789 47.0633C97.6457 45.547 97.7588 41.6091 101.243 44.7435Z" fill="white"/>
<path d="M184.437 194.463C184.019 194.044 183.6 193.625 183.182 193.207C186.428 193.207 189.674 193.195 192.92 193.184C190.364 195.425 187.208 193.659 184.437 194.463Z" fill="#BCBCBC"/>
<path d="M126.636 197.869C127.846 199.08 129.045 200.279 130.256 201.49C128.514 200.811 123.616 203.301 126.636 197.869Z" fill="white"/>
<path d="M50.4461 102.386C50.4461 102.805 50.4348 103.224 50.4235 103.642C47.2338 103.405 43.897 104.819 40.877 102.782C44.0667 102.646 47.2564 102.522 50.4461 102.386Z" fill="#CAC8D8"/>
<path d="M114.399 138.665C114.037 141.923 115.507 145.352 113.516 148.464C113.697 145.182 112.001 141.742 114.399 138.665Z" fill="#646464"/>
<path d="M58.9978 71.3018C59.4163 71.7318 59.8461 72.1618 60.2647 72.5804C59.4616 74.9907 58.6585 77.3897 57.8554 79.7999C57.3125 76.8465 58.2852 74.0854 58.9978 71.3018Z" fill="#E4E1F4"/>
<path d="M99.9532 68.8575C98.7655 68.0428 97.5666 67.2167 96.3789 66.402C96.4128 65.3609 96.6503 64.433 97.6796 63.9238C98.8899 65.1233 100.112 66.3341 101.322 67.5336C100.858 67.9749 100.406 68.4162 99.9419 68.8575H99.9532Z" fill="white"/>
<path d="M60.4117 56.693C59.5973 55.0409 57.55 54.1243 57.6292 51.9517C60.5361 52.3703 62.5269 53.3322 60.4117 56.693Z" fill="white"/>
<path d="M70.8162 35.001C70.1149 36.2231 69.4137 37.4339 68.7237 38.656C66.1787 35.5781 68.1355 35.0802 70.8162 35.001Z" fill="white"/>
<path d="M90.5555 38.6222C90.0352 37.434 89.5262 36.2459 89.0059 35.0577C90.2953 35.1596 91.9241 34.5938 92.467 36.3704C92.9195 37.8867 91.8223 38.3959 90.5555 38.6222Z" fill="white"/>
<path d="M119.103 183.453C119.284 185.093 119.386 186.768 120.574 188.092C120.121 188.782 119.194 189.416 118.764 188.726C117.69 187.006 117.656 185.116 119.103 183.453Z" fill="white"/>
<path d="M119.387 56.852C119.387 54.3512 119.387 51.8504 119.387 49.3496C121.219 51.8504 121.117 54.3512 119.387 56.852Z" fill="#646464"/>
<path d="M110.857 67.7826C112.045 67.6581 113.232 67.5337 114.409 67.4092C114.33 68.6313 114.16 69.8194 112.531 69.7855C111.264 69.7629 111.049 68.7558 110.846 67.7713L110.857 67.7826Z" fill="white"/>
<path d="M172.176 148.441C172.176 150.852 172.176 153.251 172.176 155.661C170.626 153.262 170.637 150.852 172.176 148.441Z" fill="#EEEBFF"/>
<path d="M120.641 175.034L119.092 178.576C117.384 176.426 118.051 175.305 120.641 175.034Z" fill="white"/>
<path d="M119.354 157.947C120.847 157.755 121.774 158.852 122.894 159.497C120.745 161.206 119.625 160.538 119.354 157.947Z" fill="white"/>
<path d="M133.74 172.453C139.78 167.327 145.854 162.292 154.337 161.941C156.814 161.975 159.382 161.228 161.667 162.858C165.241 166.569 166.123 171.514 167.752 176.131C168.668 178.983 167.175 181.834 167.752 184.686C168.725 192.539 165.445 196.183 156.826 196.782C154.484 198.027 151.792 196.556 149.44 197.756C145.797 196.364 141.782 196.601 138.185 195.572C131.116 193.546 126.772 183.385 129.17 176.188C130.822 175.09 132.597 174.151 133.751 172.453H133.74Z" fill="#EEEBFF"/>
<path d="M161.656 162.858C159.213 162.598 156.588 163.729 154.326 161.941C157.052 159.95 159.608 159.395 161.656 162.858Z" fill="#EEEBFF"/>
<path d="M167.741 184.686C164.732 181.835 168.046 178.983 167.741 176.131C169.449 178.983 169.222 181.835 167.741 184.686Z" fill="#6F6E74"/>
<path d="M133.741 172.454C133.696 175.521 131.784 176.29 129.16 176.188C129.929 174.016 131.377 172.669 133.741 172.454Z" fill="#EEEBFF"/>
<path d="M149.43 197.756C151.692 195.945 154.316 196.85 156.816 196.782C154.554 198.661 151.941 197.767 149.43 197.756Z" fill="#B8B6C4"/>
<path d="M66.0537 84.4282C65.7144 79.2795 69.1869 75.7038 71.3812 71.6074C72.2522 69.9893 73.9149 69.5593 75.5437 70.0459C84.7283 72.7843 93.6866 76.0319 101.005 82.5611C104.387 85.5824 105.066 89.0451 103.753 93.5488C101.231 102.194 99.3083 104.502 90.7005 104.831C87.9972 104.932 87.0471 108.157 84.3437 107.241C82.0023 106.053 79.299 107.512 76.9689 106.268C67.2074 105.589 64.7982 102.907 65.1262 93.0509C66.4044 90.2785 64.9226 87.2119 66.0537 84.4169V84.4282Z" fill="#EEEBFF"/>
<path d="M66.0547 84.4282C65.8624 87.3137 67.2763 90.3803 65.1272 93.0622C65.3647 90.1766 64.0187 87.1214 66.0547 84.4282Z" fill="#6D6C72"/>
<path d="M76.9707 106.279C79.4591 106.347 82.0833 105.442 84.3455 107.252C81.8458 107.275 79.2216 108.169 76.9707 106.279Z" fill="#B8B6C4"/>
<path d="M43.0936 57.9381C43.727 56.0597 44.451 52.4726 46.2947 53.6947C49.0772 55.5392 53.3754 57.5873 52.6741 62.0684C52.1312 65.5536 49.0885 65.6894 46.1703 64.9199C45.2428 64.671 44.3605 64.2523 43.4669 63.9128C42.1209 62.0005 42.7204 59.9636 43.0936 57.9494V57.9381Z" fill="#ECE9FD"/>
<path d="M43.0931 57.938C43.2175 59.9296 43.342 61.9211 43.4664 63.9014C41.3286 62.0343 41.7245 60.0201 43.0931 57.938Z" fill="#454446"/>
<path d="M189.334 153.409C187.072 155.027 184.911 157.234 181.97 154.597C179.934 150.388 183.237 148.532 185.703 146.393C186.404 145.782 187.524 145.431 188.304 146.472C189.877 148.577 191.325 150.75 189.345 153.409H189.334Z" fill="#FDFCFF"/>
<path d="M189.335 153.409C189.233 151.067 189.527 148.611 187.242 146.676C184.55 148.713 181.722 150.58 181.96 154.609C180.082 153.477 178.917 152.38 180.648 149.969C182.491 147.401 184.177 144.379 187.299 143.78C190.466 143.168 188.656 147.457 190.647 148.464C191.156 150.071 191.438 151.655 190.432 153.194C190.058 153.285 189.696 153.353 189.323 153.421L189.335 153.409Z" fill="#E4E1F4"/>
<path d="M190.443 153.171C190.511 151.599 190.59 150.014 190.658 148.441C191.869 150.071 192.728 151.689 190.443 153.171Z" fill="#434345"/>
<path d="M153.038 130.28C155.243 131.355 157.042 132.102 156.804 134.965C156.465 138.97 153.467 140.136 150.594 140.939C149.045 141.369 147.789 139.287 148.355 137.613C149.305 134.806 149.769 131.479 153.026 130.269L153.038 130.28Z" fill="#EDEAFE"/>
<path d="M84.3448 46.2601C84.424 48.7383 83.8585 50.3338 81.6189 50.6393C79.4585 50.9335 75.7258 46.6901 75.9067 44.0648C76.0538 41.8356 77.7618 39.7875 79.4811 40.1043C82.6821 40.6814 83.4739 43.963 84.3448 46.2714V46.2601Z" fill="#EDEAFE"/>
<path d="M103.359 53.2305H112.114C109.761 55.007 110.904 58.7752 107.974 58.9676C104.468 59.2052 106.56 55.1881 103.359 53.2305Z" fill="#ECE9FD"/>
<path d="M40.3658 88.3544C42.3113 90.0178 46.1118 89.6784 46.6435 92.8468C46.9828 94.8949 44.6188 94.0576 43.4425 94.0802C40.6939 94.1368 39.065 92.5639 38.6013 89.9273C38.4203 88.8863 38.8501 87.947 40.3658 88.3431V88.3544Z" fill="#EBE8FA"/>
<path d="M195.172 178.1C195.579 182.095 192.084 183.147 190.297 185.274C188.883 186.972 187.186 185.014 186.292 184.188C184.686 182.717 186.609 181.755 187.627 181.11C189.833 179.707 192.016 178.145 195.172 178.1Z" fill="#E8E5F9"/>
<path d="M121.265 143.711C123.437 143.938 125.982 142.523 127.509 144.504C128.289 145.511 127.509 147.366 126.842 148.962C125.45 152.289 124.195 150.671 123.245 149.109C122.283 147.525 121.921 145.59 121.254 143.711H121.265Z" fill="#EDEAFE"/>
</g>
<defs>
<clipPath id="clip0_936_16392">
<rect width="240" height="240" fill="white"/>
</clipPath>
</defs>
</svg>
