<svg width="240" height="240" viewBox="0 0 240 240" fill="none" xmlns="http://www.w3.org/2000/svg">
<g clip-path="url(#clip0_936_14427)">
<rect width="1366" height="768" transform="translate(-1059 -440)" fill="white"/>
<path d="M97.1695 42.2C99.8195 42.25 102.479 42.41 105.119 42.32C108.739 42.2 109.679 44.85 109.759 47.4C109.849 49.93 108.019 51.32 105.199 50.89C103.989 50.71 102.659 51.11 101.499 50.82C95.4394 49.3 92.9494 53.46 92.2094 57.84C90.8894 65.61 86.2494 72.02 84.4494 79.5C86.3794 81.05 88.8494 79.4 90.8494 80.55C93.9694 80.91 97.1094 78.07 100.219 80.6C102.429 79.88 104.629 79.88 106.839 80.6C108.189 80.57 109.529 80.53 110.879 80.5C113.069 79.96 115.269 79.89 117.449 80.55C122.799 81.63 127.969 78.66 133.319 79.82C135.469 80.33 137.609 80.37 139.749 79.79C141.159 79.79 142.569 79.79 143.979 79.79C147.549 80.57 151.179 79.94 154.769 80.15C156.879 80.35 159.049 79.7 161.109 80.59C163.659 81.65 163.679 84.32 164.079 86.28C165.569 93.53 170.019 99.74 171.109 107.13C171.419 109.21 172.849 110.81 175.599 110.51C184.989 109.47 194.029 111.26 202.609 114.89C210.589 118.27 217.179 123.54 221.779 131.11C224.349 135.35 227.759 139.16 228.129 144.43C228.909 147.06 228.179 150.17 230.649 152.27C230.759 153.06 230.739 153.84 230.739 154.64C230.739 156.33 230.739 158.01 230.739 159.7C230.579 161.43 231.119 163.21 230.309 164.88C230.219 165.55 230.139 166.22 230.049 166.89C229.609 168.67 229.189 170.45 230.049 172.23C226.369 176.95 225.009 182.98 220.369 187.36C215.969 191.51 211.789 195.62 206.149 198.01C204.749 198.6 204.289 200.56 202.519 200.75C197.019 197.96 192.709 200.3 188.709 203.96C187.109 202.81 185.199 203.22 183.429 202.91C180.989 201.86 178.279 203.2 175.839 202.08C175.159 202 174.479 201.91 173.799 201.83C171.699 199.79 168.559 200.38 166.269 198.84C158.619 196.93 152.929 192.23 148.209 186.16C147.239 182.82 145.079 180.67 141.749 179.69C140.659 178.05 139.809 176.33 139.909 174.29C140.229 171.83 138.979 169.89 137.779 167.94C137.429 165.35 134.189 163.56 135.659 160.45C135.429 158.31 135.969 156.04 134.579 154.1C134.579 153.75 134.569 153.41 134.559 153.06C136.139 151.16 134.919 148.44 136.469 146.53C136.489 146.2 136.559 145.88 136.709 145.58C138.769 143.49 138.569 140.75 138.849 138.15C143.539 126.87 151.559 118.81 162.669 113.89C164.899 112.9 164.549 111.25 164.009 110.08C161.309 104.1 159.229 97.93 157.549 91.61C156.719 88.49 154.329 87.77 151.469 87.91C148.959 87.35 146.449 87.34 143.939 87.91C135.439 87.91 126.929 87.91 118.429 87.92C116.659 87.3 114.879 87.4 113.089 87.86C107.419 87.86 101.749 87.88 96.0794 87.89C93.2294 87.36 90.3794 87.28 87.5294 87.95C82.8494 87.18 81.2094 90.73 80.4394 93.93C79.0694 99.61 77.1594 105.06 74.6494 110.26C73.0494 113.57 74.1294 114.58 77.0894 115.89C87.0694 120.32 94.0194 128.01 99.0194 137.56C99.3894 138.27 99.2195 139.27 99.2995 140.14C100.949 141.98 99.4294 144.9 101.509 146.6C102.649 146.89 102.379 147.88 102.509 148.66C103.559 150.35 102.409 152.39 103.349 154.1C103.349 154.46 103.349 154.83 103.339 155.19C102.419 156.89 103.569 158.91 102.489 160.59C102.449 163.61 102.919 166.77 100.139 169.02C99.9694 170.81 98.0894 172.26 99.0694 174.29C98.3594 176.43 97.6495 178.56 96.9295 180.7C94.7495 182.06 91.1594 182 91.6194 186C86.6994 192.51 80.5294 197.32 72.7094 199.89C70.2494 201.02 67.3395 201.01 65.1795 202.88L62.0794 203.13C59.6394 204.25 56.9294 202.91 54.4894 203.96C53.0794 203.96 51.6694 203.95 50.2594 203.94C46.0694 202.81 42.2394 197.52 37.5094 202.86C25.6394 195.95 14.3694 188.45 9.76944 174.45C8.15944 172.48 9.62944 169.98 8.64944 167.89C8.74944 167.59 8.75947 167.29 8.67947 166.99C7.82947 165.01 8.43942 162.93 8.24942 160.91C8.24942 158.96 8.24942 157.01 8.24942 155.06C8.24942 154.54 8.24946 154.02 8.28946 153.5C10.8895 150.91 10.2895 147.69 10.0395 144.54C14.3595 132.48 21.5194 122.9 33.3694 117.17C42.1294 112.94 51.1895 110.51 60.9295 111.59C65.0595 112.05 66.4094 110.24 67.4394 106.53C69.1594 100.32 71.6594 94.32 73.8194 88.23C74.9194 86.16 73.5694 83.75 74.7094 81.69C78.2694 73.02 81.4594 64.21 84.7194 55.44C86.3794 50.98 85.4995 44.41 91.7895 42.2C93.5695 41.61 95.3594 41.62 97.1494 42.2H97.1695Z" fill="#333333"/>
<path d="M188.721 203.96C191.871 197.73 198.271 196.25 202.531 200.75C198.141 202.74 193.241 202.56 188.721 203.96Z" fill="#333333"/>
<path d="M37.5397 202.88C37.4997 199.31 39.2997 198.2 42.5497 199.24C45.4997 200.18 48.6197 200.91 50.2997 203.96C45.8797 205.59 41.8597 202.5 37.5497 202.88H37.5397Z" fill="#333333"/>
<path d="M141.76 179.7C146.04 179.734 148.193 181.89 148.22 186.17C146.07 184.01 143.91 181.86 141.76 179.7Z" fill="#333333"/>
<path d="M10.0696 144.56C11.0096 147.56 14.6396 150.92 8.94957 153.05C7.81957 151.69 8.22965 150.23 8.65965 148.77C8.67965 147.21 9.00956 145.76 10.0696 144.56Z" fill="#333333"/>
<path d="M138.87 138.17C139.49 141.03 142.06 144.45 136.73 145.6C136.06 142.73 136.73 140.24 138.87 138.17Z" fill="#333333"/>
<path d="M91.6591 186.02C89.0191 179.83 93.619 180.9 96.969 180.72C95.879 183.17 93.3191 184.14 91.6591 186.02Z" fill="#333333"/>
<path d="M166.279 198.85C168.979 199.37 172.779 197.12 173.809 201.84C170.659 202.44 168.109 201.56 166.279 198.85Z" fill="#333333"/>
<path d="M230.09 151.98C224.77 150.67 227.99 147.16 228.15 144.43C228.89 145.52 229.64 146.61 230.38 147.69C230.82 149.15 231.22 150.61 230.09 151.97V151.98Z" fill="#333333"/>
<path d="M65.2207 202.9C66.2507 198.18 70.0507 200.44 72.7507 199.91C70.5407 201.67 68.5407 203.94 65.2207 202.9Z" fill="#333333"/>
<path d="M137.79 167.95C140.83 169.29 141.63 171.38 139.92 174.3C138.83 172.31 137.08 170.54 137.79 167.95Z" fill="#333333"/>
<path d="M134.6 154.11C138.05 155.7 136.54 158.14 135.68 160.46C133.96 158.57 134.35 156.33 134.6 154.11Z" fill="#333333"/>
<path d="M101.541 146.61C97.4408 145.61 100.051 142.31 99.3307 140.15C102.381 141.51 101.071 144.37 101.541 146.61Z" fill="#333333"/>
<path d="M136.489 146.54C135.889 148.73 138.209 151.77 134.579 153.07C134.469 150.68 133.549 148.04 136.489 146.54Z" fill="#505052"/>
<path d="M8.67095 167.91C10.831 169.79 9.47095 172.27 9.79095 174.47C6.38095 172.8 8.05095 170.27 8.67095 167.91Z" fill="#4B4B4C"/>
<path d="M154.75 80.5002C151.16 80.4302 147.49 81.4702 144 79.7902C147.54 79.7702 151.08 79.7602 154.62 79.7402C154.96 79.8602 155.09 80.0102 155.01 80.1902C154.93 80.3902 154.84 80.5002 154.74 80.5002H154.75Z" fill="#59585A"/>
<path d="M87.5605 87.9599C90.4005 86.5999 93.2505 86.4999 96.1105 87.8999C93.2605 87.9199 90.4105 87.9399 87.5605 87.9599Z" fill="#5D5D5F"/>
<path d="M175.85 202.09C178.39 202.26 181.06 201.28 183.44 202.92C180.88 202.92 178.21 203.9 175.85 202.09Z" fill="#78777A"/>
<path d="M143.961 87.9199C146.471 86.4299 148.981 86.6799 151.491 87.9199C148.981 87.9199 146.471 87.9199 143.961 87.9199Z" fill="#6B6B6D"/>
<path d="M54.5195 203.98C56.8895 202.2 59.5895 203.45 62.1095 203.15C59.7695 205.13 57.0595 203.81 54.5195 203.98Z" fill="#78777A"/>
<path d="M74.7397 81.7002C74.6197 83.9002 75.5997 86.2602 73.8497 88.2402C73.9297 86.0302 73.0197 83.6902 74.7397 81.7002Z" fill="#BFBFC1"/>
<path d="M99.1102 174.31C97.2502 172.11 99.0603 170.64 100.18 169.04C101.09 171.05 99.1502 172.49 99.1102 174.31Z" fill="#333333"/>
<path d="M230.071 172.23C227.921 170.45 229.101 168.67 230.071 166.89C230.071 168.67 230.071 170.45 230.071 172.23Z" fill="#4B4B4C"/>
<path d="M90.861 80.5498C88.751 80.0598 86.2609 81.9098 84.4609 79.4998C86.5509 80.0998 88.991 78.5698 90.861 80.5498Z" fill="#8F8F92"/>
<path d="M106.85 80.6C104.64 80.6 102.44 80.6 100.23 80.6C102.44 79.12 104.64 78.96 106.85 80.6Z" fill="#4F4F51"/>
<path d="M117.461 80.5498C115.271 80.5298 113.081 80.5198 110.891 80.4998C113.091 78.8698 115.281 79.2098 117.461 80.5498Z" fill="#99989B"/>
<path d="M154.749 80.4999C154.699 80.2499 154.659 79.9899 154.619 79.7399C156.799 79.9099 159.179 78.6199 161.129 80.5799C158.999 80.5499 156.879 80.5199 154.749 80.4999Z" fill="#767679"/>
<path d="M8.74926 160.54C8.72926 162.7 8.71921 164.85 8.69921 167.01C6.76921 165.03 8.00931 162.66 7.91931 160.46C8.23931 160.02 8.51926 160.07 8.74926 160.54Z" fill="#67676A"/>
<path d="M8.75037 160.54C8.47037 160.5 8.20041 160.47 7.92041 160.46C7.89041 158.39 7.85031 156.32 7.82031 154.25C7.99031 153.75 8.29033 153.66 8.71033 153.96C8.72033 156.15 8.74037 158.35 8.75037 160.54Z" fill="#49484A"/>
<path d="M230.09 151.98C230.19 150.55 230.28 149.13 230.38 147.7C232.02 149.71 231.13 152.04 231.22 154.24C230.79 154.56 230.5 154.45 230.33 153.95C230.25 153.29 230.18 152.63 230.1 151.98H230.09Z" fill="#CDCDCF"/>
<path d="M139.77 79.79C137.63 81.09 135.49 81.1401 133.34 79.8201C135.48 79.8201 137.63 79.8 139.77 79.79Z" fill="#606062"/>
<path d="M8.71084 153.96C8.41084 154.05 8.11082 154.14 7.82082 154.25C7.90082 152.39 7.11091 150.41 8.66091 148.77C8.76091 150.2 8.85083 151.62 8.95083 153.05C8.80083 153.34 8.72085 153.64 8.72085 153.96H8.71084Z" fill="#CDCDCF"/>
<path d="M103.379 154.12C101.849 152.5 102.699 150.51 102.539 148.68C104.399 150.25 103.279 152.28 103.379 154.12Z" fill="#505052"/>
<path d="M230.319 153.95C230.619 154.04 230.919 154.13 231.209 154.24C231.179 155.96 231.139 157.67 231.109 159.39C230.879 159.89 230.6 159.94 230.27 159.47C230.28 157.63 230.3 155.79 230.31 153.96L230.319 153.95Z" fill="#49484A"/>
<path d="M102.521 160.61C102.701 158.79 101.851 156.82 103.371 155.21C103.281 157.04 104.401 159.06 102.521 160.61Z" fill="#333333"/>
<path d="M230.27 159.47C230.55 159.44 230.829 159.41 231.109 159.39C231.039 161.25 232.149 163.27 230.329 164.88L230.28 159.47H230.27Z" fill="#67676A"/>
<path d="M113.119 87.8701C114.909 86.6401 116.689 86.6101 118.459 87.9301C116.679 87.9101 114.899 87.8901 113.119 87.8701Z" fill="#555456"/>
<path d="M97.1705 42.1999C95.3805 42.1999 93.6005 42.1999 91.8105 42.1999C93.5905 40.8099 95.3805 40.7899 97.1705 42.1999Z" fill="#D6D6D7"/>
<path d="M94.1496 148.76C96.1996 156.49 94.6896 163.88 92.0396 171.17C92.7396 175.56 89.8695 177.7 86.6895 179.66C86.7295 181.51 84.9995 182.35 84.3295 183.8C83.1495 185.18 82.1095 186.76 80.0695 186.99C70.5695 194.62 59.5296 197.67 47.6296 196.52C41.5796 195.93 35.6596 193.69 30.9996 189.24C29.4996 187.8 26.6695 188.43 25.8695 185.91C19.4295 179.12 15.3295 170.93 15.3595 161.73C15.4095 146.45 21.1695 134.34 35.3395 126.02C43.9595 120.96 52.3696 119.86 62.0496 120.14C58.1896 131.04 56.1595 142.21 51.2095 152.44C51.1395 152.59 50.9196 152.71 50.9096 152.86C50.6196 156.47 46.4396 161.13 52.0296 163.32C57.5196 165.47 56.7296 159.37 57.7696 156.83C61.9796 146.56 65.7996 136.11 69.2796 125.57C70.3996 122.2 70.7196 121.9 74.0396 123.67C81.1096 127.45 86.8396 132.35 90.9296 139.2C92.9096 142.08 95.0896 144.89 94.1396 148.76H94.1496Z" fill="#EEEBFF"/>
<path d="M207.71 188.11C193.64 198.84 179.15 196.98 164.5 189.97C162.64 189.08 160.85 188.04 159.03 187.06C156.99 186.22 155.54 184.77 154.69 182.73C153.65 181.34 152.6 179.94 151.56 178.55C147.93 177.36 147.23 174.07 146.17 171.04C146.77 168.05 144.62 165.77 143.81 163.22C141.99 157.51 144.15 152.18 144.12 146.69C143.47 143.29 145.8 140.91 147.03 138.16C151.8 131.4 157.65 125.91 165.17 122.22C167.68 120.99 167.59 120.68 168.56 123.48C171.75 132.66 174.86 141.87 178.07 151.05C179.15 154.13 180.25 157.23 181.68 160.16C182.55 161.96 184.32 163.31 186.48 162.52C188.52 161.77 189.07 159.69 188.66 157.77C188.08 155.11 187.25 152.46 186.19 149.95C182.81 141.91 180.4 133.56 178.06 125.18C177.52 123.23 176.69 121.37 175.97 119.41C194.5 116.91 211.7 125.92 219.53 142.81C225.01 154.64 225.52 170.84 213.17 183.78C212.37 186.5 209.74 186.92 207.72 188.11H207.71Z" fill="#EEEBFF"/>
<path d="M94.1503 148.76C93.4403 145.45 90.8902 142.76 90.9402 139.2C97.0802 141.63 98.1703 144.88 94.1503 148.76Z" fill="#333333"/>
<path d="M147.02 138.16C147.46 141.49 145.2 143.89 144.11 146.69C140.16 142.17 143.9 140.27 147.02 138.16Z" fill="#333333"/>
<path d="M86.6992 179.66C88.0592 176.57 91.8293 174.99 92.0493 171.17C93.7393 177.38 92.4492 179.43 86.6992 179.66Z" fill="#333333"/>
<path d="M146.17 171.04C147.97 173.54 149.77 176.05 151.56 178.55C145.58 179.05 146.54 174.57 146.17 171.04Z" fill="#333333"/>
<path d="M207.711 188.11C208.111 184.89 212.151 186.24 213.161 183.78C213.571 188.02 210.901 188.39 207.711 188.11Z" fill="#333333"/>
<path d="M80.0801 186.99C81.0901 185.38 82.1601 183.85 84.3401 183.8C84.1501 186.51 84.3101 189.69 80.0801 186.99Z" fill="#333333"/>
<path d="M154.691 182.73C156.421 183.88 157.931 185.27 159.031 187.06C155.841 187.36 154.401 185.92 154.691 182.73Z" fill="#333333"/>
<path d="M25.8691 185.91C27.1391 187.7 30.4591 186.32 30.9991 189.24C28.5691 189.24 25.9791 189.49 25.8691 185.91Z" fill="#333333"/>
</g>
<defs>
<clipPath id="clip0_936_14427">
<rect width="240" height="240" fill="white"/>
</clipPath>
</defs>
</svg>
