<svg width="240" height="240" viewBox="0 0 240 240" fill="none" xmlns="http://www.w3.org/2000/svg">
<g clip-path="url(#clip0_936_12462)">
<rect width="1246" height="701" transform="translate(-39 -369)" fill="white"/>
<path d="M147.352 213.222C146.741 212.73 146.203 211.972 145.51 211.789C139.562 210.192 138.805 205.154 137.693 200.298C137.182 198.061 136.507 195.862 135.914 193.653C136.133 191.362 135.795 189.29 133.688 187.893C130.423 178.711 126.938 169.684 122.25 161.04C117.926 153.09 113.001 145.541 108.394 137.792C106.935 135.337 104.746 134.141 101.544 134.333C93.7907 134.789 85.9826 135.3 78.43 132.516C75.7939 131.539 73.1578 130.846 70.7041 129.239C66.0247 126.172 62.1481 127.268 61.2086 132.471C60.2326 137.892 57.7606 142.949 57.9431 148.699C58.1529 155.335 60.1961 160.693 65.7511 164.508C68.7156 163.815 71.6801 164.645 74.6537 164.508C75.274 164.581 75.8942 164.645 76.5145 164.718C77.6638 166.425 78.8496 168.096 80.5097 169.355C84.1036 171.354 83.6658 174.74 82.9725 177.807C81.7685 183.129 75.9854 188.295 70.9595 187.665C66.0886 187.054 62.0934 184.087 60.2052 179.103C60.6978 176.192 60.6887 173.28 60.2052 170.368C55.6262 166.252 53.3002 160.684 50.5273 155.399C49.3415 153.135 52.005 151.255 51.1293 149.037C50.6367 147.394 50.5729 145.751 51.1749 144.108C51.3026 137.354 52.68 130.955 56.8029 125.424C59.0103 122.467 58.0252 119.902 55.6353 117.948C48.0189 111.705 45.3006 102.641 41.9074 94.0706C40.7855 91.2502 41.9713 87.5992 41.3419 84.4776C39.9919 77.7231 41.4878 70.9778 42.9747 64.8167C44.5892 58.1262 48.4658 51.7186 53.3732 46.2329C59.9772 38.8487 67.8582 33.5181 77.1165 30.4239C86.0647 27.43 95.4873 27.713 104.609 29.146C111.87 30.287 118.692 33.5273 124.585 38.1458C130.313 42.6366 135.549 47.6568 138.623 54.4569C139.398 56.1637 139.854 56.5106 142.053 56.0725C155.343 53.3981 167.611 55.4883 177.271 65.8299C181.686 70.5488 184.449 76.3449 185.243 82.8802C185.535 85.2625 186.611 87.2432 188.481 88.4846C192.759 91.3141 192.695 94.8922 191.19 99.2004C189.594 103.755 186.848 105.571 181.923 105.38C173.011 105.033 167.721 96.5807 172.072 88.9136C172.683 87.8274 173.768 86.4035 174.79 86.2574C179.123 85.655 177.718 82.5516 177.207 80.4614C175.063 71.6168 166.453 64.6159 157.313 63.4202C153.537 62.9273 149.943 62.0145 146.057 63.1555C143.576 63.8857 143.156 64.8076 143.786 67.1077C147.471 80.4158 146.531 94.0433 139.426 105.279C133.46 114.708 138.513 121.39 140.903 128.856C142.636 134.241 146.349 138.988 148.958 144.154C151.986 150.132 155.662 155.773 159.064 161.56C159.694 163.413 160.223 165.339 162.065 166.453L166.854 172.212C168.405 173.672 168.943 175.936 170.813 177.141C173.321 177.451 173.622 180.299 175.556 181.276C176.249 182.481 176.049 184.197 177.608 184.918C179.341 186.615 178.055 188.788 178.511 190.695C177.599 193.352 179.351 196.008 178.511 198.664C177.435 211.506 163.935 219.174 153.227 214.92C151.402 213.889 149.569 212.912 147.361 213.25L147.352 213.222Z" fill="#333333"/>
<path d="M133.688 187.894C138.86 188.094 137.145 190.97 135.913 193.653C134.253 192.092 133.414 190.203 133.688 187.894Z" fill="#333333"/>
<path d="M178.512 198.636C177.7 195.98 175.274 193.324 178.512 190.668C178.877 191.015 179.242 191.362 179.607 191.709C180.063 193.671 180.099 195.633 179.579 197.587C179.214 197.934 178.859 198.28 178.494 198.627L178.512 198.636Z" fill="#333333"/>
<path d="M74.6448 164.499C71.6803 166.161 68.7158 164.828 65.7422 164.499C68.7067 163.012 71.6712 162.929 74.6448 164.499Z" fill="#333333"/>
<path d="M80.5015 169.355C77.683 169.09 76.479 167.438 76.5063 164.718C79.0421 165.229 80.1549 166.955 80.5015 169.355Z" fill="#333333"/>
<path d="M147.354 213.223C149.944 211.543 151.832 212.356 153.219 214.893C151.002 215.249 149.15 214.336 147.354 213.223Z" fill="#333333"/>
<path d="M170.814 177.123C167.713 176.913 167.302 174.54 166.855 172.194C169.783 172.55 170.212 174.896 170.814 177.123Z" fill="#333333"/>
<path d="M162.075 166.434C158.682 166.279 159.074 163.787 159.074 161.542C160.078 163.167 161.884 164.308 162.075 166.434Z" fill="#333333"/>
<path d="M60.1973 170.359C61.3922 173.271 61.4013 176.183 60.1973 179.094C60.1973 176.183 60.1973 173.271 60.1973 170.359Z" fill="#4D4D4F"/>
<path d="M177.609 184.9C174.618 184.991 175.083 183.12 175.557 181.258C176.898 182.098 177.381 183.43 177.609 184.9Z" fill="#333333"/>
<path d="M179.588 197.596C179.588 195.634 179.606 193.671 179.615 191.718C180.883 193.68 180.819 195.643 179.588 197.596Z" fill="#CECDCF"/>
<path d="M51.1668 144.099C51.1485 145.742 51.1394 147.385 51.1212 149.028C49.8259 147.376 49.8441 145.733 51.1668 144.099Z" fill="#BFBEC1"/>
<path d="M132.885 63.7308C137.41 63.6852 135.759 68.3585 137.811 70.2023C138.358 72.2012 138.358 74.2002 137.811 76.1991C137.473 84.6513 138.167 93.2677 133.934 101.108C128.854 110.537 122.049 118.177 112.143 122.814C107.299 125.077 102.237 126.866 97.0468 127.405C90.5797 128.071 83.9666 126.739 77.9555 124.493C69.4725 121.326 62.1296 116.215 57.3044 108.073C56.228 106.265 56.2098 105.389 57.2587 103.5C62.6404 93.8336 71.0779 87.6634 80.1264 81.8582C89.6037 75.7884 99.8471 71.5714 110.382 68.0116C115.399 66.3139 120.726 65.5472 125.916 64.3606C128.179 63.457 130.605 64.4519 132.885 63.7308Z" fill="#EEEBFF"/>
<path d="M49.1783 74.1361C51.7324 59.3403 58.6738 47.8304 72.4747 40.6287C82.8641 35.2069 93.5728 34.7414 104.71 36.2931C113.166 37.4705 126.666 48.0038 130.551 56.602C115.683 57.3322 101.819 61.9417 88.6107 67.902C81.2222 71.2336 74.4358 76.2902 67.7042 81.1553C62.0215 85.2536 57.2144 89.8813 53.1644 95.4765C51.9422 97.1651 50.9753 96.9643 50.355 94.6185C49.1966 90.2007 47.9378 85.7647 48.4395 81.1005C49.452 78.8642 48.2753 76.3907 49.1783 74.1453V74.1361Z" fill="white"/>
<path d="M150.353 207.162C144.898 202.251 144.178 195.031 141.423 188.806C140.721 187.528 140.511 186.031 139.681 184.817C140.456 182.353 137.61 181.239 137.528 179.094C137.099 177.734 135.968 176.676 135.859 175.179C134.792 169.127 131.937 163.705 129.027 158.502C124.603 150.589 120.772 142.292 114.87 135.209C113.31 133.338 112.362 130.599 116.302 128.902C120.079 127.277 123.864 125.488 126.692 122.038C128.051 120.376 130.568 119.719 131.681 123.142C134.345 131.33 137.993 139.015 142.189 146.582C148.592 158.137 155.078 169.446 164.181 179.204C166.726 181.933 169.909 184.471 171.168 188.569C172.126 191.663 172.728 194.493 171.852 197.587C172.436 199.458 172.126 201.092 170.521 202.361C167.273 204.825 164.993 208.969 160.013 208.421C158.234 209.033 156.391 208.595 154.594 208.732C152.916 208.933 151.593 208.138 150.353 207.162Z" fill="white"/>
<path d="M76.4511 174.385C75.5025 177.159 74.5538 180.281 70.8049 179.542C68.7617 179.14 66.4904 177.844 66.8553 174.951C67.3935 170.651 70.513 171.099 73.5414 171.436C75.3565 171.582 75.6849 173.198 76.442 174.385H76.4511Z" fill="#FEFEFE"/>
<path d="M184.331 95.4034C183.738 96.8182 182.863 98.2512 181.412 98.3059C179.406 98.3881 179.041 96.1792 178.639 94.8557C178.11 93.1397 180.318 92.9481 181.212 92.8111C182.744 92.5738 183.501 94.1803 184.331 95.3942V95.4034Z" fill="#FDFDFD"/>
<path d="M170.531 202.361C170.978 200.772 171.416 199.184 171.863 197.587C173.514 199.759 174.7 201.804 170.531 202.361Z" fill="#333333"/>
<path d="M76.4514 174.385C75.4845 173.399 74.5177 172.422 73.5508 171.436C76.3693 170.204 76.3876 170.222 76.4514 174.385Z" fill="#333333"/>
<path d="M135.85 175.179C137.556 175.991 137.976 177.351 137.52 179.094C136.662 177.917 133.679 177.652 135.85 175.179Z" fill="#333333"/>
<path d="M150.354 207.162C151.767 207.162 153.072 207.481 154.185 208.412C154.531 208.576 154.65 208.759 154.54 208.932C154.431 209.115 154.321 209.206 154.203 209.206C151.539 211.123 151.402 208.275 150.354 207.162Z" fill="#333333"/>
<path d="M49.178 74.1362C48.7858 76.4364 50.3365 78.9465 48.4392 81.0915C48.7767 78.7822 47.3902 76.2903 49.178 74.1362Z" fill="#747476"/>
<path d="M132.887 63.7308C130.67 65.1182 128.244 64.1872 125.918 64.3606C128.107 62.6903 130.533 63.5939 132.887 63.7308Z" fill="#B4B3C0"/>
<path d="M154.203 209.215C154.203 208.951 154.194 208.677 154.176 208.412C156.119 208.412 158.071 208.412 160.014 208.421C158.244 209.927 156.137 208.951 154.203 209.215Z" fill="#454547"/>
<path d="M137.812 76.199C137.812 74.2 137.812 72.2011 137.812 70.2021C139.153 72.2011 139.126 74.2 137.812 76.199Z" fill="#908E98"/>
<path d="M139.672 184.817C141.387 185.657 141.834 187.045 141.414 188.806C139.736 187.957 139.517 186.469 139.672 184.817Z" fill="#333333"/>
</g>
<defs>
<clipPath id="clip0_936_12462">
<rect width="240" height="240" fill="white"/>
</clipPath>
</defs>
</svg>
