<svg width="240" height="240" viewBox="0 0 240 240" fill="none" xmlns="http://www.w3.org/2000/svg">
<g clip-path="url(#clip0_936_13772)">
<rect width="1366" height="768" transform="translate(-748 -400)" fill="white"/>
<path d="M38.9008 209.01C38.8808 207.61 38.8508 206.22 38.8308 204.82C39.5508 202.64 39.4808 200.45 38.8708 198.26C38.8808 194.38 38.9007 190.5 38.9107 186.62C39.4207 184.6 38.8707 182.55 39.0507 180.52C39.1407 178.66 39.9307 176.74 38.6007 174.99C37.1107 174.21 37.7908 172.91 37.8408 171.77C40.1408 169.98 39.2407 167.61 38.9807 165.36C38.9007 161.79 36.8007 158.43 37.8607 154.74C38.4307 151.53 38.4107 148.31 37.8607 145.1C37.3207 136.36 37.3208 136.25 45.8308 135.62C48.6308 135.41 49.5408 134.21 49.3808 131.64C48.8808 123.81 50.3008 115.92 48.3808 108.11C47.4008 104.13 49.7108 100.28 49.5208 96.26C50.6108 93.44 49.2308 90.39 50.3408 87.58C50.7308 86.55 51.6307 86.56 52.4707 86.62C56.1107 86.86 58.4808 86.3 55.9508 81.9C55.1808 80.56 56.0908 79.28 56.9608 78.18C57.6008 75.98 57.6508 73.79 56.9408 71.6C56.9608 69.86 56.9808 68.13 57.0008 66.39C57.6308 62.47 57.5608 58.55 57.0308 54.63C56.9008 53.92 56.7608 53.21 56.6308 52.51C56.1208 49.69 56.1008 46.86 56.6508 44.04C56.9608 39.21 59.9708 35.65 63.0808 32.59C65.2908 30.42 67.7608 28.38 69.8708 26.09C75.0808 20.46 81.7407 19.51 88.5407 20.8C95.5107 22.12 97.3907 28.15 98.4207 34.33C99.1107 36.53 99.0808 38.74 98.4408 40.95C99.7808 45.91 99.4208 50.98 99.3708 56.02C99.3308 60.01 101.091 60.92 104.091 58.73C110.711 53.89 118.211 51.25 125.991 49.15C128.101 48.28 130.461 49.45 132.551 48.37C149.721 48.14 165.201 52.9 178.241 64.33C183.321 68.78 186.521 74.82 189.791 80.61C193.941 87.96 196.241 95.96 196.361 104.51C196.371 105.28 197.101 106.03 197.491 106.79C198.121 109.29 198.031 111.79 197.551 114.3C195.001 116.57 197.431 119.31 196.871 121.95C194.651 132.35 190.241 141.61 184.281 150.26C183.641 151.19 183.261 152.31 182.691 153.51C184.551 153.61 186.121 153.69 187.701 153.78C189.801 154.8 192.161 153.64 194.281 154.55C194.981 154.6 195.691 154.72 196.391 154.7C199.881 154.57 203.761 151.95 206.731 155.28C209.581 158.48 207.571 162.68 207.841 166.43C207.271 168.21 207.241 169.98 207.861 171.76C207.941 172.79 208.021 173.81 208.101 174.84C208.791 178.1 208.791 181.37 208.101 184.63C206.851 191.46 203.671 194.13 195.881 192.7C191.341 191.86 186.881 192.67 182.471 191.8C180.061 189.45 177.471 190.96 174.921 191.43C171.791 191.83 168.541 190.59 165.491 192.13C165.181 192.89 164.541 193.1 163.811 193.03C151.931 191.9 140.041 194.21 128.171 192.85C126.751 191.09 125.331 191.96 123.911 192.86C121.811 193.39 119.841 194.51 117.561 194.22C115.671 195.11 117.071 196.24 117.341 197.29V200.5C112.691 204.86 111.491 199.1 108.841 197.6C108.641 197.12 108.631 196.63 108.791 196.13C112.481 194.06 111.361 191.68 109.231 189.23C108.571 187.43 108.701 185.55 108.661 183.69C108.691 181.79 108.661 179.9 108.071 178.06C107.781 176.67 107.791 175.27 108.071 173.88C108.781 171.71 108.661 169.47 108.641 167.24C108.591 164.38 108.901 161.5 107.931 158.71C107.291 154.62 107.341 150.55 108.151 146.5C108.721 144.06 107.401 143.42 105.281 143.35C102.981 143.28 100.741 143.53 98.5308 144.19C93.7808 144.72 89.0407 144.76 84.2907 144.19C81.5507 143.42 78.8007 142.9 76.0507 144.17C71.4907 145.61 66.9708 144.27 62.4308 144.05C59.4708 143.15 56.5008 143.12 53.5308 144.01C48.1808 144.12 46.6507 146.82 47.4107 151.96C48.1007 156.65 47.5507 161.47 47.9907 166.23C47.6507 168.45 47.5808 170.68 47.6808 172.91C47.9708 179.31 48.0608 185.71 48.1408 192.11C47.8708 194.15 47.3707 196.18 48.0407 198.24C48.1707 198.99 48.1708 199.74 48.0608 200.49C47.6708 202.12 47.4508 203.77 47.5708 205.45C47.6208 207.33 48.7508 207.71 50.3408 207.45C51.9708 207.05 53.6008 206.66 55.2808 207.13C56.9108 207.89 58.5308 208.85 60.2808 207.38C61.0108 207.15 61.7508 207.13 62.5008 207.25C63.0208 207.36 63.5307 207.46 64.0507 207.55C70.9607 208.66 71.4008 209.74 67.1508 215.26C66.7408 215.57 66.2808 215.76 65.7708 215.83C63.8908 214.82 62.0308 215.02 60.1908 215.93C58.3708 215.93 56.5407 215.93 54.7207 215.93C52.5707 216.12 50.3708 215.5 48.2608 216.34L47.7608 216.45L47.2708 216.31C44.5408 213.82 41.6408 211.55 38.9308 209.04L38.9008 209.01Z" fill="#333333"/>
<path d="M66.4006 215.21C66.4606 214.86 66.4006 214.41 66.6106 214.19C70.2006 210.23 69.1606 208.63 64.0206 208.93C63.4106 208.97 62.7706 208.42 62.1406 208.15C66.2706 204.87 71.1206 206.88 75.6106 206.32C78.1406 206.55 80.6806 206.48 83.2106 206.4C89.5606 206.57 95.9206 205.95 102.261 206.17C105.861 206.3 107.601 205.31 107.541 201.57C107.511 200.01 107.671 198.36 109.161 197.29C112.371 197.1 113.151 203.14 117.321 200.48C117.831 205.92 117.321 210.9 112.441 214.6C109.301 216.98 105.851 216.41 102.421 216.43C93.9906 216.48 85.5506 216.45 77.1206 216.43C75.0106 216.43 72.9006 216.35 70.7906 216.31C69.4906 215.28 67.5806 216.66 66.4006 215.19V215.21Z" fill="#333333"/>
<path d="M38.9003 209.01C42.9003 210.04 45.8603 212.25 47.2403 216.28C40.7303 216.56 38.8303 214.9 38.9003 209.01Z" fill="#333333"/>
<path d="M176.061 190.91C178.661 187.82 180.871 187.53 182.451 191.8C180.631 191.54 179.021 194.62 177.061 192.13C176.771 191.69 176.181 191.5 176.061 190.92V190.91Z" fill="#333333"/>
<path d="M123.891 192.85C124.091 191.16 124.841 189.85 126.731 190.05C128.361 190.22 128.041 191.71 128.151 192.84C126.731 192.83 125.321 194.58 123.891 192.85Z" fill="#333333"/>
<path d="M176.061 190.91C176.391 191.31 176.731 191.72 177.061 192.12C173.201 192.12 169.331 192.12 165.471 192.12C168.751 189.58 172.551 191.49 176.061 190.91Z" fill="#4B4B4C"/>
<path d="M39.7807 181.31C41.1507 183.35 40.4706 185.06 38.9106 186.63C37.5006 185.09 37.4407 183.28 37.8407 181.38C38.4707 180.74 39.1107 180.7 39.7807 181.32V181.31Z" fill="#333333"/>
<path d="M57.0203 54.6299C58.4503 58.5499 58.3802 62.4799 56.9902 66.3899C57.0002 62.4699 57.0103 58.5499 57.0203 54.6299Z" fill="#636365"/>
<path d="M37.8594 145.11C39.2594 148.33 39.2194 151.54 37.8594 154.75C37.8594 151.54 37.8594 148.32 37.8594 145.11Z" fill="#666668"/>
<path d="M208.08 184.64C208.08 181.38 208.08 178.11 208.08 174.85C209.77 178.11 209.59 181.38 208.08 184.64Z" fill="#6F6F72"/>
<path d="M56.6401 44.04C56.6401 46.86 56.6301 49.68 56.6201 52.51C55.2401 49.69 55.2201 46.86 56.6401 44.04Z" fill="white"/>
<path d="M50.3306 87.5898C50.0006 90.4798 51.4406 93.5298 49.5106 96.2698C49.6906 93.3698 48.4106 90.3298 50.3306 87.5898Z" fill="#97979A"/>
<path d="M117.329 197.28C116.029 196.52 115.129 195.52 115.599 193.89C115.779 193.25 116.179 192.51 116.999 192.87C117.319 193.01 117.369 193.74 117.549 194.21C117.479 195.23 117.409 196.26 117.329 197.28Z" fill="#333333"/>
<path d="M66.4009 215.21C67.7909 215.85 69.6608 214.67 70.7908 216.33C67.9008 216.27 65.0008 216.22 62.1108 216.16C61.8808 215.65 61.9908 215.24 62.4408 214.91C63.4608 214.44 64.3908 214.75 65.3008 215.24C65.6708 215.23 66.0309 215.22 66.3909 215.2L66.4009 215.21Z" fill="#B6B5B8"/>
<path d="M62.1509 215.5C62.1409 215.72 62.1308 215.95 62.1108 216.17C59.6208 216.22 57.1208 216.27 54.6308 216.33C54.3208 216.11 54.2308 215.92 54.3708 215.78C54.4908 215.65 54.6208 215.59 54.7508 215.59C56.8608 215.48 58.9708 215.36 61.0708 215.25C61.5108 215.02 61.8609 215.1 62.1409 215.52L62.1509 215.5Z" fill="#ADACAF"/>
<path d="M39.7798 181.31L37.8398 181.37C38.9398 179.35 38.8098 177.18 38.5998 175C40.7098 176.78 39.4698 179.19 39.7798 181.31Z" fill="#535355"/>
<path d="M38.97 165.37C39.73 167.71 41.2701 170.19 37.8301 171.78C39.1401 169.81 38.43 167.48 38.97 165.37Z" fill="#4B4A4C"/>
<path d="M197.55 114.31C197.53 111.81 197.51 109.3 197.49 106.8C198.87 109.29 198.98 111.8 197.55 114.31Z" fill="#CBCBCD"/>
<path d="M98.4399 40.9501C98.4399 38.7401 98.4299 36.5401 98.4199 34.3301C99.8799 36.5301 100.11 38.7401 98.4399 40.9501Z" fill="#6F6E72"/>
<path d="M132.55 48.3702C130.57 50.3502 128.19 49.0002 125.99 49.1502C128 47.4502 130.36 48.5902 132.55 48.3702Z" fill="#CECECF"/>
<path d="M54.7603 215.57C54.7203 215.82 54.6803 216.07 54.6403 216.32C52.5103 216.32 50.3702 216.32 48.2402 216.32C50.2402 214.56 52.5703 215.64 54.7703 215.57H54.7603Z" fill="#89898C"/>
<path d="M56.9297 71.6001C58.2997 73.7901 58.5797 75.9801 56.9497 78.1801C56.9497 75.9901 56.9297 73.7901 56.9297 71.6001Z" fill="#A1A1A4"/>
<path d="M38.8701 198.27C40.3301 200.46 40.3001 202.65 38.8301 204.83C38.8401 202.64 38.8501 200.46 38.8701 198.27Z" fill="#98989A"/>
<path d="M194.26 154.56C192.06 154.38 189.68 155.68 187.68 153.79C189.87 154.08 192.25 152.74 194.26 154.56Z" fill="#9C9B9E"/>
<path d="M207.84 171.76C206.56 169.99 206.43 168.21 207.82 166.43C207.82 168.21 207.83 169.98 207.84 171.76Z" fill="#505051"/>
<path d="M109.17 197.3C109.02 200.63 109.99 204.7 108.42 207.1C106.79 209.59 102.58 206.77 99.7902 207.32C94.3202 208.42 88.9402 207.64 83.5302 207.82C80.9802 207.14 78.4402 207.14 75.8902 207.82C71.3102 207.93 66.7302 208.04 62.1502 208.15C61.4402 208.14 60.7302 208.13 60.0202 208.12C58.6102 209.15 57.1902 208.79 55.7802 208.12C53.9002 207.62 52.1402 208.02 50.4402 208.83C48.8802 207.57 47.2602 206.36 46.7602 204.25C46.7902 203 46.5102 201.73 47.0502 200.52C47.0502 199.8 47.0602 199.08 47.0702 198.36C46.5502 196.59 46.5602 194.82 47.0702 193.05C46.1802 186.35 46.3902 179.61 46.3502 172.88C47.3402 170.79 46.1102 168.43 47.1702 166.35C45.3302 163.26 46.5002 159.87 46.2202 156.63C46.0802 155.06 46.3102 153.47 46.1802 151.9C45.7268 146.153 48.2035 143.13 53.6102 142.83C56.4702 142.34 59.3402 142.27 62.1902 142.88C66.7702 142.37 71.3402 144.42 75.9202 142.92C78.4702 142.2 81.0302 142.42 83.6002 142.8C88.8402 142.82 94.0802 142.84 99.3202 142.86C101.32 142.17 103.42 142.83 105.41 142.47C108.62 141.89 109.62 143.63 109.94 146.31C108.12 150.42 109.22 154.72 109.16 158.94C109.89 161.74 109.33 164.6 109.5 167.43C109.31 169.62 109.92 171.85 109.09 174C109.09 175.35 109.09 176.71 109.09 178.06C109.89 179.82 109.34 181.68 109.5 183.49C109.55 185.65 109.38 187.81 109.62 189.96C110.62 192.15 110.61 194.26 109.16 196.26V197.32L109.17 197.3Z" fill="#EEEBFF"/>
<path d="M106.93 96.0699C106.51 91.2999 108.74 88.3499 112.55 85.4099C118.85 80.5599 125.51 77.4599 133.45 77.1499C135.18 78.1099 137.21 76.9899 138.93 77.9699C151.18 78.4599 160.51 86.1099 165.77 97.4499C168.8 103.99 168.67 110.3 168.65 116.92C168.64 120.49 166.32 123.59 164.87 126.28C162.1 131.41 158.85 136.78 153.05 139.79C142.11 145.47 131.09 148.48 119.13 143.05C118.28 142.66 117.44 142.59 117.53 141.48C117.85 137.46 114.66 136.36 111.96 135.64C107.2 134.37 106.11 131.46 106.93 127.15C107.7 123.88 107.71 120.61 106.93 117.34C107.61 113.16 107.51 108.98 106.95 104.79C107.71 101.88 107.73 98.9699 106.95 96.0599L106.93 96.0699Z" fill="white"/>
<path d="M139.87 153.85C141.6 153.09 143.25 152.02 145.06 151.62C158.83 148.6 167.11 139.99 173.14 127.39C179.71 113.67 177.83 100.77 170.99 88.8399C164.28 77.1199 152.81 70.8099 139.09 69.5899C131.22 68.8899 123.14 69.3798 116.28 73.1098C110.66 76.1598 104.44 79.1899 100.81 86.1399C99.4804 81.3899 99.1004 77.3899 99.5104 73.4099C99.8804 69.7999 103.64 68.7799 105.92 67.0299C120.88 55.4799 138.19 53.8999 155.25 59.6199C164.53 62.7299 172.93 69.3599 178.92 78.2099C188.09 91.7599 190.37 106.76 188.58 122.42C187.98 127.67 185.13 132.91 182.35 137.59C179.43 142.51 176.52 147.52 172.07 151.55C169.92 153.5 167.74 154.49 165.39 154.64C158.74 155.07 152.01 154.14 145.42 155.79C143.37 156.31 141.77 154.79 139.89 154.54C139.89 154.31 139.89 154.08 139.89 153.85H139.87Z" fill="#EEEBFF"/>
<path d="M116.49 175.91C115.93 172.04 118.97 168.33 116.72 164.25C116.11 163.14 118.03 162 119.64 162.26C131.28 164.13 142.97 163.34 154.66 163.1C156.78 162.17 159.13 163.27 161.25 162.36C165.48 163.84 169.7 162.27 173.92 162.34C175.72 162.92 177.51 163.02 179.29 162.27L179.2 162.08C181 161.42 182.81 161.5 184.62 162.02C188.51 162.07 192.41 162.29 196.29 162.12C198.88 162 199.7 162.88 199.53 165.41C199.37 167.87 199.6 170.35 199.66 172.82C201.28 176.02 201.45 179.22 199.66 182.42C199.51 182.71 199.44 183.02 199.44 183.34C197.75 184.71 195.99 184.83 194.16 183.65C181.48 185.17 168.75 184.18 156.05 184.57C154.56 184.62 153.09 185.17 151.61 185.48C149.82 186.14 148.18 184.88 146.43 185.04C142.51 185.04 138.6 185.03 134.69 185.05C132.29 185.97 129.89 184.97 127.49 185.04C124.84 185.26 122.14 184.55 119.53 185.47C118.1 185.49 116.16 186.31 116.48 183.55C117.69 181 116.44 178.45 116.49 175.9V175.91Z" fill="#EEEBFF"/>
<path d="M84.3891 135.49C78.3591 136.44 72.4891 134.37 66.5091 134.57C64.8091 135.6 62.7591 134.43 61.0491 135.42C54.7991 136.09 57.0591 129.14 57.2191 128.65C59.3591 121.98 56.2992 115.55 56.8992 109.06C57.9592 107.35 56.8791 105.34 57.6891 103.6C57.7591 102.9 57.9591 102.17 57.8691 101.49C56.9991 95.2501 58.6192 93.0801 64.7692 94.1801C68.9592 94.9301 72.9091 95.0201 76.9891 94.2801C79.1691 94.7701 81.3492 94.8101 83.5192 94.2601C86.8892 94.1901 90.2691 94.3401 93.6091 94.0001C98.5391 93.4901 99.5192 96.0601 99.4592 100.25C99.3192 110.16 99.4191 120.07 99.4291 129.99C99.4291 135.54 95.2491 134.35 91.9891 134.66C89.5391 135.64 86.8292 134.31 84.3992 135.49H84.3891Z" fill="white"/>
<path d="M71.6804 86.3701C63.5104 86.9001 63.4605 86.8001 65.2505 78.4001C65.6505 76.5001 65.3704 74.5901 64.4304 72.8401C65.4604 70.3801 64.1604 67.6801 65.2304 65.2301C63.9804 61.1501 64.7904 56.8701 64.1704 52.7801C62.9404 44.6601 67.5905 39.2601 72.6505 34.4601C74.8305 32.4001 77.0005 29.7201 80.6205 28.9201C85.4605 27.8501 90.6304 29.8701 90.6704 34.5901C90.7104 39.2201 91.6805 43.6901 91.8305 48.2501C91.1305 50.0401 91.2405 51.8501 91.7705 53.6501C91.2205 57.8701 90.1905 62.1001 91.8305 66.3101C91.0005 68.2201 91.6004 70.2301 91.4104 72.1901C91.2204 74.1901 91.8404 76.2501 90.9804 78.2001C91.0004 80.2801 91.0205 82.3601 91.0305 84.4401C91.1805 86.0301 90.0305 85.9301 89.0005 86.0401C87.1205 86.2501 85.1704 85.5601 83.3504 86.5301C81.9704 86.5101 80.5905 86.4901 79.2005 86.4601C76.7005 85.7101 74.2005 85.9201 71.6905 86.3601L71.6804 86.3701Z" fill="#EEEBFF"/>
<path d="M199.67 182.42C199.67 179.22 199.67 176.02 199.67 172.82C205.28 173.6 201.62 178.64 203.36 181.32C203.86 182.09 201.39 183.32 199.67 182.42Z" fill="#333333"/>
<path d="M118.56 150.22C118.97 150.53 119.35 150.92 119.8 151.15C121.71 152.13 125.83 151.68 124.52 154.84C123.71 156.79 119.78 156.54 117.33 154.72C117.15 153.06 115.87 151.1 118.55 150.22H118.56Z" fill="#ECE9FD"/>
<path d="M109.17 196.24C109.18 194.14 109.19 192.03 109.2 189.93C109.45 189.33 109.75 189.34 110.09 189.86C112.19 190.01 113.29 191.13 113.18 193.24C113.05 195.8 111.29 196.29 109.17 196.24Z" fill="#333333"/>
<path d="M109.931 146.29C107.811 140.75 102.901 143.81 99.3008 142.85C102.141 140.83 105.321 142.04 108.291 142.15C110.861 142.25 109.771 144.73 109.921 146.29H109.931Z" fill="#8D8B95"/>
<path d="M47.4102 204.75C48.9002 205.76 50.3203 206.8 50.4303 208.83C48.2203 209.04 45.5502 209.91 46.2202 205.93C46.5602 205.48 46.6303 204.76 47.4003 204.75H47.4102Z" fill="#EEEBFF"/>
<path d="M134.439 184.76C138.769 184.77 143.099 184.78 147.429 184.8C147.739 184.99 147.849 185.18 147.739 185.37C147.639 185.56 147.529 185.65 147.419 185.65C143.109 185.64 138.789 185.63 134.479 185.62C134.139 185.45 134.029 185.26 134.129 185.06C134.229 184.86 134.329 184.76 134.439 184.76Z" fill="#717077"/>
<path d="M134.439 184.76C134.429 185.05 134.439 185.33 134.479 185.62C131.909 188.66 129.429 184.94 126.899 185.52C126.589 185.11 126.699 184.83 127.169 184.67C129.589 184.7 132.019 184.73 134.439 184.77V184.76Z" fill="#333333"/>
<path d="M194.16 183.65C195.92 183.55 197.68 183.45 199.44 183.34C197.84 186.29 196.15 187.65 194.16 183.65Z" fill="#333333"/>
<path d="M147.42 185.66C147.46 185.38 147.46 185.09 147.42 184.81C148.86 184.74 150.45 183.74 151.6 185.49C150.39 189.96 148.86 186.68 147.42 185.67V185.66Z" fill="#333333"/>
<path d="M139.87 153.85C139.87 154.08 139.87 154.31 139.87 154.54C138.48 154.94 137.09 155.34 135.7 155.73C135.16 154.29 132.2 156.64 132.6 153.74C132.91 153.71 133.21 153.63 133.49 153.5C135.25 152.92 137.02 153.01 138.79 153.43C139.15 153.57 139.51 153.71 139.87 153.85Z" fill="#ECE9FD"/>
<path d="M106.92 117.35C108.53 120.62 108.49 123.89 106.92 127.16V117.35Z" fill="#545456"/>
<path d="M116.489 175.91C118.159 178.46 118.109 181.01 116.479 183.56C117.059 181.01 114.669 178.46 116.489 175.91Z" fill="#333333"/>
<path d="M83.3496 86.5402C85.4296 84.0902 88.9897 87.0702 91.0297 84.4502C91.9297 85.6702 91.4696 86.4602 90.1196 86.5302C87.8696 86.6502 85.6096 86.5502 83.3496 86.5402Z" fill="#605F64"/>
<path d="M106.93 96.0698C108.34 98.9798 108.62 101.89 106.93 104.8V96.0698Z" fill="#656467"/>
<path d="M62.1698 142.87C59.3098 142.85 56.4498 142.84 53.5898 142.82C56.4598 141.41 59.3198 141.49 62.1698 142.87Z" fill="#656469"/>
<path d="M109.131 167.42L109.161 158.92C111.071 161.67 109.621 164.7 109.881 167.59C109.531 167.97 109.291 167.89 109.131 167.42Z" fill="#75757C"/>
<path d="M62.1501 215.5C61.7901 215.41 61.4401 215.32 61.0801 215.23C62.5101 211.49 63.9001 213.56 65.3101 215.25C64.2601 215.33 63.2101 215.41 62.1501 215.5Z" fill="#333333"/>
<path d="M55.7695 208.12H60.0095C58.5995 211.86 57.1795 209.76 55.7695 208.12Z" fill="#333333"/>
<path d="M127.169 184.67C127.079 184.95 126.99 185.23 126.9 185.52C124.44 185.51 121.98 185.49 119.52 185.48C121.89 183.55 124.619 184.96 127.169 184.67Z" fill="#817F87"/>
<path d="M132.591 153.74C133.001 155.37 135.251 154.14 135.691 155.73H130.051C130.541 154.15 131.701 154.15 132.581 153.74H132.591Z" fill="#59595D"/>
<path d="M83.5804 142.79C81.0204 142.83 78.4604 142.87 75.9004 142.91C78.4404 141.41 81.0004 141.44 83.5804 142.79Z" fill="#94939D"/>
<path d="M84.3906 135.49C86.7506 133.64 89.4306 134.7 91.9806 134.66C89.6006 136.31 86.9406 135.37 84.3906 135.49Z" fill="#68686A"/>
<path d="M71.6797 86.3698C74.1997 85.0698 76.7097 84.9498 79.1897 86.4698C76.6897 86.4398 74.1797 86.3998 71.6797 86.3698Z" fill="#BBB9C7"/>
<path d="M65.2308 65.2202C64.9708 67.7602 66.1808 70.4502 64.4308 72.8302C64.5308 70.2702 63.3508 67.5802 65.2308 65.2202Z" fill="#9C9AA5"/>
<path d="M161.25 162.36C159.21 164.01 156.87 163.03 154.66 163.1C156.69 161.33 159.04 162.43 161.25 162.36Z" fill="#9896A0"/>
<path d="M90.9707 78.1999C90.9907 75.9999 91.0108 73.7999 91.0308 71.5999C91.3708 71.2099 91.6207 71.2499 91.8107 71.7399C91.6407 73.9099 92.9007 76.2599 90.9707 78.1999Z" fill="#C1BECD"/>
<path d="M83.5105 94.2598C81.3405 95.4998 79.1605 95.5998 76.9805 94.2798C79.1605 94.2798 81.3405 94.2698 83.5105 94.2598Z" fill="#B3B3B6"/>
<path d="M118.561 150.22C116.631 151.31 118.061 153.31 117.341 154.72C116.581 152.9 114.621 150.76 118.561 150.22Z" fill="#4A494C"/>
<path d="M47.1495 166.35C46.9895 168.54 47.9595 170.87 46.3295 172.88C46.3495 170.67 45.3495 168.34 47.1495 166.35Z" fill="#A4A2AE"/>
<path d="M110.079 189.86C109.789 189.9 109.489 189.92 109.189 189.93C109.159 187.81 109.139 185.68 109.109 183.56C109.259 183.08 109.519 183.01 109.899 183.34C109.959 185.51 110.019 187.69 110.079 189.86Z" fill="#67666C"/>
<path d="M109.13 167.42C109.38 167.48 109.63 167.53 109.88 167.59C109.87 169.75 110.89 172.04 109.09 173.98C109.1 171.8 109.12 169.61 109.13 167.43V167.42Z" fill="#A3A1AD"/>
<path d="M179.29 162.26C177.52 163.69 175.73 163.67 173.92 162.33C175.71 162.31 177.5 162.28 179.29 162.26Z" fill="#C8C6D6"/>
<path d="M138.781 153.44C137.011 153.46 135.25 153.49 133.48 153.51C135.23 152.17 137.001 152.17 138.781 153.44Z" fill="#434344"/>
<path d="M47.0599 193.05C47.0599 194.82 47.0599 196.59 47.0599 198.36C45.7399 196.59 45.7099 194.82 47.0599 193.05Z" fill="#444345"/>
<path d="M61.0508 135.42C62.6808 133.89 64.6608 134.66 66.5108 134.57C64.9208 136.36 62.9008 135.33 61.0508 135.42Z" fill="#C9C8CA"/>
<path d="M47.4091 204.75C47.0191 205.14 46.6191 205.54 46.2291 205.93C46.3891 204.11 45.5391 202.13 47.0491 200.51C47.1691 201.92 47.2891 203.34 47.4191 204.75H47.4091Z" fill="#444345"/>
<path d="M57.6804 103.6C57.6804 105.46 58.7104 107.47 56.8904 109.06C57.0904 107.23 56.1604 105.24 57.6804 103.6Z" fill="#616164"/>
<path d="M138.919 77.9801C137.089 77.7501 135.049 78.8701 133.439 77.1601C135.269 77.4101 137.339 76.0501 138.919 77.9801Z" fill="#C0C0C2"/>
<path d="M91.8091 71.7401C91.5491 71.7001 91.2892 71.65 91.0292 71.61C90.9492 69.79 90.3191 67.9001 91.8191 66.3101C91.8191 68.1201 91.8191 69.9301 91.8191 71.7401H91.8091Z" fill="#9E9CA8"/>
<path d="M91.76 53.65C90.36 51.83 90.47 50.03 91.82 48.25C91.8 50.05 91.78 51.85 91.76 53.65Z" fill="#B4B1BF"/>
<path d="M184.631 162.02C182.821 162.04 181.021 162.06 179.211 162.08C181.001 160.52 182.811 160.77 184.631 162.02Z" fill="#717076"/>
<path d="M109.91 183.34C109.65 183.41 109.38 183.48 109.12 183.56C109.12 181.72 109.1 179.88 109.09 178.04C110.86 179.58 109.84 181.54 109.91 183.34Z" fill="#A7A5B2"/>
<path d="M75.8906 207.82C78.4406 206.36 80.9806 206.27 83.5306 207.82C80.9806 207.82 78.4406 207.82 75.8906 207.82Z" fill="#898791"/>
</g>
<defs>
<clipPath id="clip0_936_13772">
<rect width="240" height="240" fill="white"/>
</clipPath>
</defs>
</svg>
