<svg width="240" height="240" viewBox="0 0 240 240" fill="none" xmlns="http://www.w3.org/2000/svg">
<g clip-path="url(#clip0_936_15737)">
<rect width="1371" height="595" transform="translate(-326 -95)" fill="white"/>
<path d="M101.958 56.8931C107.853 57.6648 112.207 62.776 118.872 62.0602C124.499 61.445 128.72 57.62 134.101 56.8931C135.016 55.6852 135.999 54.6562 137.673 55.6964C140.308 55.9424 142.363 54.1082 144.819 53.7279C147.253 54.1641 149.709 54.9247 151.919 53.0233C152.768 52.6878 153.572 52.7885 154.342 53.2806C159.5 54.2201 164.658 55.1595 169.816 56.099C172.149 58.6826 175.231 58.3023 178.234 58.2464C181.528 59.5437 185.558 59.3424 187.713 62.9326C188.561 64.0174 188.762 65.1694 188.003 66.3885C185.681 68.6365 183.269 67.7082 181.048 66.3437C178.614 64.845 176.336 64.7779 173.969 66.3102C171.401 66.9141 168.867 66.2766 166.433 65.7286C159.344 64.1181 152.187 63.8385 144.975 64.2187C141.458 61.1319 138.89 62.6306 136.702 65.9635C132.984 68.0885 129.389 70.4148 125.806 72.7747C123.729 74.0385 123.963 75.649 125.113 77.3937C125.393 78.1766 125.393 78.9595 125.136 79.7536C123.896 81.5766 121.898 83.3437 124.767 85.4352C125.236 86.4418 125.113 87.5154 125.102 88.5779C125.27 90.4233 126.007 92.2687 125.136 94.1141C123.227 96.72 124.611 99.1358 125.605 101.563C126.353 102.905 125.995 104.213 125.482 105.511C124.645 107.58 124.812 109.738 125.024 111.886C125.292 113.865 125.917 115.778 125.995 117.78C126.051 118.652 126.018 119.525 125.928 120.386C125.169 123.215 125.337 126.045 125.973 128.875C126.118 130.373 126.129 131.872 126.096 133.382C126.062 134.59 125.917 135.798 125.649 136.972C124.778 139.477 124.935 142.094 124.946 144.678C125.951 147.519 123.684 152.294 129.49 152.25C131.511 152.026 133.42 151.366 135.385 150.919C137.551 150.371 139.694 149.756 141.949 149.711C145.667 149.521 149.385 149.599 153.103 149.577C156.486 149.767 159.88 149.644 163.263 149.677C167.192 149.487 170.966 150.606 174.807 151.019C175.398 151.086 175.99 151.221 176.571 151.388C180.489 152.753 184.285 154.498 188.293 155.549C190.772 155.057 189.421 153.357 189.376 152.082C189.198 151.545 189.075 151.008 188.985 150.46C188.807 149.319 188.829 148.19 189.019 147.049C189.678 144.51 189.789 141.915 189.667 139.31C189.756 136.614 188.628 134.019 188.907 131.302C189.22 129.188 190.392 127.354 190.727 125.251C190.861 121.627 191.218 118.004 190.191 114.447C189.834 112.691 189.722 110.946 190.303 109.213C192.268 107.267 193.038 105.119 191.308 102.581C190.794 100.534 190.883 98.4424 190.839 96.3622C190.85 94.2036 190.839 92.045 190.883 89.8865C190.917 88.7233 191.062 87.5714 191.453 86.4641C192.681 84.6747 193.239 82.8628 191.576 80.9951C190.694 79.2951 189.789 77.6174 189.108 75.828C188.974 72.7523 186.44 70.124 187.434 66.8358C193.049 66.4108 195.316 70.8622 198.04 74.4076C199.19 75.9062 199.603 77.9977 200.563 79.7089C201.914 83.2543 197.404 87.0122 200.965 90.4681C201.635 92.0227 200.585 92.9957 199.77 94.047C198.643 98.1852 200.92 101.977 200.987 106.003C200.764 107.983 201.68 109.962 200.965 111.942C199.782 115.062 202.282 118.361 200.507 121.46C199.525 124.222 200.876 127.219 199.659 129.96C199.056 137.811 200.865 145.606 200.139 153.502C199.96 155.493 197.47 157.495 199.737 159.631C200.396 162.036 200.362 164.429 199.759 166.834C198.888 168.366 198.018 169.91 197.147 171.442C196.421 172.996 195.293 173.88 193.496 173.656C186.094 167.55 177.62 163.713 168.208 161.946C166.165 161.063 164.022 161.275 161.889 161.32C152.254 161.767 142.53 160.19 133.051 163.501C129.468 164.754 125.973 165.827 123.048 168.388C120.056 171.028 116.372 171.8 113.234 169.317C104.414 162.338 94.2324 161.163 83.5815 161.331C80.4219 161.376 77.2512 161.387 74.0917 161.32C71.6578 161.298 69.2016 160.973 66.8347 161.879C63.5077 163.098 60.0802 164.004 56.5969 164.642C51.8632 165.503 48.391 168.243 45.5106 171.911C43.5345 173.813 41.4244 174.439 39.0575 172.56C38.4769 171.867 38.209 170.983 37.6954 170.256C36.9362 169.16 36.1659 168.064 35.4067 166.968C36.1547 164.575 35.4402 161.991 36.2999 159.609C34.7703 150.125 34.5247 140.596 35.5072 131.033C35.7081 127.745 37.1484 124.3 34.2902 121.392C34.0558 118.194 33.5311 114.973 35.0718 111.919C33.252 110.13 35.496 107.703 34.1228 105.835C34.5582 101.91 35.9761 98.0621 35.0718 94.0246C34.2791 92.8279 34.2679 91.6424 35.0718 90.4457C35.7863 86.7997 35.0048 83.2543 34.2791 79.7089C37.5726 76.3536 38.7449 71.3878 42.8088 68.5918C44.5504 67.3951 45.9683 65.5049 48.4692 66.6905C49.9205 69.6878 47.0066 71.9694 47.1518 74.7543C46.2586 77.3266 44.8296 79.6529 43.7019 82.1135C42.6636 83.7576 43.8917 84.9655 44.5169 86.2964C44.93 87.3812 45.0752 88.5108 45.131 89.6516C45.1868 91.7431 45.1645 93.8233 45.1756 95.9036C45.1198 97.9615 45.1756 100.031 44.8407 102.066C44.7402 102.614 44.5616 103.14 44.3495 103.654C42.686 105.634 43.5791 107.49 44.6621 109.336C45.0975 110.79 45.2091 112.277 45.2203 113.776C45.2426 117.623 45.1645 121.471 45.2985 125.318C45.4659 127.208 46.013 129.042 46.2028 130.933C46.4707 133.773 45.5217 136.469 45.265 139.242C45.0305 141.938 45.3431 144.588 45.9683 147.217C46.147 148.078 46.2251 148.95 46.2586 149.834C46.426 152.294 46.0018 154.755 46.0576 155.773C46.1469 156.287 46.7387 155.773 47.3862 155.281C51.2938 153.927 55.1455 152.429 59.1647 151.388C59.7676 151.198 60.3817 151.064 60.9957 150.952C64.8363 150.225 68.6657 149.409 72.6068 149.61C75.6547 149.61 78.6914 149.688 81.7393 149.521C85.8144 149.543 89.8894 149.431 93.9533 149.677C96.1974 149.867 98.3521 150.538 100.529 151.053C102.494 151.601 104.47 152.093 106.491 152.35C111.794 152.988 109.327 148.391 110.544 146.288C111.359 143.258 111.392 140.227 110.521 137.196C110.209 136.077 109.997 134.948 109.773 133.818C109.226 131.827 108.847 129.825 109.282 127.767C109.93 125.586 110.019 123.406 109.293 121.225C108.97 119.804 108.88 118.384 109.115 116.941C109.36 115.554 109.93 114.257 110.421 112.948C111.571 110.108 111.515 107.379 109.729 104.784C109.461 103.99 109.472 103.196 109.729 102.413C111.269 99.6615 112.989 96.9325 110.689 93.745C110.053 92.1233 109.997 90.4569 110.22 88.7681C110.309 88.2089 110.466 87.672 110.678 87.1575C111.593 85.0214 114.931 82.9299 110.767 80.7154C110.332 80.3687 109.997 79.9437 109.729 79.4628C109.483 78.6352 109.561 77.8411 109.997 77.0918C112.297 75.3358 112.107 73.7812 109.595 72.4391C106.357 69.9786 102.818 68.0214 99.3458 65.9299C97.2245 62.8095 94.8241 60.9306 91.2627 64.1069C81.851 63.7266 72.5956 65.27 63.2956 66.2543C60.3259 64.7668 57.4789 64.4872 54.5092 66.5115C52.4884 67.8983 50.1773 68.3904 48.0672 66.3885C47.2522 65.1582 47.4643 64.0062 48.3128 62.8878C50.7579 59.7227 54.5091 58.8056 57.9143 57.3069C61.018 59.1523 63.6864 58.0786 66.2095 56.0543C71.3675 55.1148 76.5255 54.1753 81.6835 53.2358C82.2529 52.9227 82.8446 52.8668 83.4587 53.0457C85.8032 54.9806 88.8623 53.3253 91.3408 54.5891C93.8082 54.0747 95.8178 56.6247 98.3521 55.6516C99.904 54.9806 100.875 56.0319 101.925 56.8483L101.958 56.8931Z" fill="#333333"/>
<path d="M44.7512 171.486C46.2919 166.398 50.6796 164.418 55.0337 163.411C58.7292 162.561 62.4358 161.633 66.1312 160.749C68.4646 159.564 71.1106 160.951 73.444 159.832C83.8158 159.329 94.2099 158.994 104.28 162.114C107.473 163.098 110.577 164.351 112.91 167.248C115.355 170.29 119.129 170.558 121.563 167.65C126.821 161.342 134.447 161.141 141.268 159.933C148.168 158.714 155.458 159.776 162.581 159.832C164.524 160.861 166.79 159.653 168.722 160.716C174.505 163.176 181.449 162.192 186.529 166.8C188.851 168.903 191.263 170.916 193.63 172.963C194.969 176.385 192.77 177.805 190.225 179.058C184.732 174.003 177.988 171.061 171.379 167.885C169.425 166.923 167.259 167.281 165.205 166.957C159.076 165.659 152.868 166.252 146.705 166.107C144.863 166.028 143.021 165.95 141.19 166.107C132.984 167.997 125.928 172.068 119.609 177.537C118.939 177.537 118.269 177.537 117.6 177.537C111.202 173.477 105.051 168.981 97.749 166.576C95.7506 165.771 93.6629 166.028 91.5974 166.062C87.4777 165.995 83.3357 166.353 79.2383 165.704C76.4249 164.899 73.6114 164.161 70.9989 166.319C62.4693 168.064 54.5648 171.755 46.3031 174.338C45.008 173.79 44.26 172.963 44.74 171.453L44.7512 171.486Z" fill="#EEEBFF"/>
<path d="M98.4963 165.537C105.597 168.389 113.01 170.737 117.61 177.571C114.64 183.666 113.267 183.208 107.629 179.785C103.007 176.967 98.0832 173.925 92.4451 172.941C90.1006 174.048 87.4435 172.639 85.1101 173.88C71.8467 172.795 59.7667 176.162 48.6692 183.409C45.3198 185.59 42.551 185.333 41.0215 181.139C40.5079 180.378 40.3628 179.539 40.5526 178.644C41.6802 176.273 42.5622 173.634 45.9562 173.779C53.8383 169.641 61.9884 166.342 70.9423 165.436C73.2199 164.306 75.6091 163.837 78.1434 164.172C82.8883 164.318 87.6332 164.474 92.3781 164.62C94.3096 165.66 96.576 164.418 98.4963 165.525V165.537Z" fill="#333333"/>
<path d="M146.002 164.709C152.779 164.63 159.623 163.299 166.243 165.838C168.164 166.856 170.419 165.603 172.317 166.755C177.04 168.22 180.657 171.945 185.625 173.063C188.271 173.656 188.829 176.72 190.225 178.745C190.537 179.013 190.638 179.282 190.537 179.55C190.437 179.818 190.325 179.953 190.225 179.953C189.142 182.726 187.367 184.314 184.185 183.498C182.052 181.787 178.67 182.76 176.95 180.132C173.299 177.727 169.738 175.479 165.082 174.987C159.545 174.405 154.186 172.236 148.47 172.951C145.701 174.059 142.675 172.672 139.918 173.813C136.323 177.391 131.131 178.219 127.235 181.776C124.142 184.616 121.105 181.049 119.609 177.57C122.601 169.596 130.919 169.35 136.858 165.659C137.774 165.089 138.98 164.966 140.04 164.63C142.017 165.324 144.004 165.212 145.991 164.697L146.002 164.709Z" fill="#333333"/>
<path d="M48.3236 62.9321L48.3682 66.6341C44.0476 68.9157 40.0284 71.4769 38.7444 76.6999C38.1862 78.9703 36.1989 79.3729 34.2787 79.7532C34.1447 78.5565 34.0107 77.3486 33.8767 76.1519C33.5864 74.6308 34.2786 73.5459 35.4174 72.6512C40.0172 69.7992 43.1879 65.0571 48.3124 62.9321H48.3236Z" fill="#333333"/>
<path d="M187.678 66.6341C187.689 65.4038 187.711 64.1624 187.722 62.9321C192.356 65.292 194.968 70.1124 199.445 72.6512C200.863 73.4341 201.991 74.34 200.975 76.1742L200.573 79.7308C198.876 78.8025 197.703 77.7959 196.989 75.6262C195.549 71.1973 191.797 68.5913 187.678 66.6341Z" fill="#333333"/>
<path d="M190.236 179.942C190.236 179.539 190.236 179.137 190.236 178.734C191.52 176.9 193.34 175.39 193.641 172.985C194.814 172.471 195.975 171.968 197.147 171.453C197.862 176.743 194.769 178.935 190.236 179.942Z" fill="white"/>
<path d="M37.6954 170.29C38.0862 170.703 38.4769 171.117 38.8677 171.542C40.2967 173.835 41.0447 176.284 40.5423 179.013C39.571 181.026 38.0861 180.814 36.4561 179.953C32.85 176.217 38.8007 173.712 37.6842 170.301L37.6954 170.29Z" fill="white"/>
<path d="M66.2327 56.0984C63.5421 60.7287 61.6664 61.0195 57.9375 57.351C60.7621 57.351 63.2518 55.0806 66.2327 56.0984Z" fill="#333333"/>
<path d="M178.244 58.2461C174.66 60.5948 171.523 61.1652 169.826 56.0987C172.818 56.0763 175.643 56.725 178.244 58.2461Z" fill="#333333"/>
<path d="M200.975 111.952C199.099 109.962 199.155 107.993 200.997 106.014C201.969 107.993 205.318 109.984 200.975 111.952Z" fill="white"/>
<path d="M176.961 180.121C179.149 181.72 182.8 180.165 184.196 183.487C181.315 183.386 178.111 183.957 176.961 180.121Z" fill="white"/>
<path d="M34.291 121.425C38.5335 124.154 36.256 127.711 35.5079 131.066C34.8157 127.89 35.9545 124.479 34.291 121.425Z" fill="#656565"/>
<path d="M101.957 56.8928C100.383 57.6421 99.5347 56.2105 98.3848 55.6961C98.5746 54.4994 99.0211 53.448 100.473 53.7388C102.237 54.0967 101.835 55.6513 101.957 56.8816V56.8928Z" fill="white"/>
<path d="M34.1232 105.879C36.1887 107.635 35.0052 109.895 35.0722 111.964C30.5394 110.599 34.7373 107.859 34.1232 105.879Z" fill="white"/>
<path d="M199.781 94.0692C199.033 92.4922 200.462 91.6422 200.975 90.4902C202.17 90.6804 203.219 91.1277 202.929 92.5817C202.572 94.3488 201.02 93.9462 199.781 94.0692Z" fill="white"/>
<path d="M137.672 55.6956C136.478 56.0983 135.294 56.4897 134.1 56.8923C134.222 55.6621 133.821 54.1075 135.585 53.7496C137.025 53.4588 137.471 54.5101 137.672 55.7068V55.6956Z" fill="white"/>
<path d="M36.2989 159.642C36.1984 162.125 37.4041 164.753 35.4057 167.001C34.1329 164.362 35.0038 161.968 36.2989 159.642Z" fill="#D2D2D2"/>
<path d="M200.977 76.1744C200.463 75.0001 199.961 73.8257 199.447 72.6514C200.72 72.752 202.328 72.1928 202.864 73.9487C203.31 75.4474 202.227 75.9507 200.977 76.1744Z" fill="white"/>
<path d="M139.928 173.802C142.596 171.677 145.633 173.186 148.48 172.94C145.811 175.009 142.786 173.6 139.928 173.802Z" fill="#9E9E9E"/>
<path d="M199.67 129.97C200.061 127.152 198.609 124.143 200.518 121.47C200.463 124.322 201.903 127.331 199.67 129.97Z" fill="#656565"/>
<path d="M91.3731 54.6447C88.5373 54.3539 85.5229 55.6624 82.877 53.6828C83.5803 52.8999 84.3842 52.7992 85.2885 53.3249C87.2199 54.1973 89.7543 52.3407 91.3731 54.6447Z" fill="#505050"/>
<path d="M151.986 53.6937C149.608 55.2259 147.219 55.2483 144.818 53.7273C146.806 53.593 148.782 53.4477 150.769 53.3134C151.283 53.0786 151.696 53.1792 151.986 53.6825V53.6937Z" fill="#505050"/>
<path d="M151.985 53.6944C151.583 53.5714 151.169 53.4484 150.768 53.3253C150.946 52.151 151.337 51.1556 152.811 51.3122C153.972 51.4352 154.173 52.3635 154.34 53.2918C153.559 53.426 152.777 53.5602 151.985 53.6944Z" fill="white"/>
<path d="M199.77 166.845C199.77 164.44 199.759 162.036 199.748 159.642C201.213 162.036 201.425 164.44 199.77 166.845Z" fill="#D2D2D2"/>
<path d="M85.1211 173.88C87.3317 171.71 89.9888 173.119 92.4562 172.94C90.2121 174.797 87.5884 173.723 85.1211 173.88Z" fill="#D2D2D2"/>
<path d="M85.2777 53.3139C84.4739 53.4369 83.67 53.5488 82.8662 53.6718C82.4754 53.5376 82.0958 53.4146 81.7051 53.2804C81.8725 52.3633 82.0735 51.435 83.2346 51.3008C84.7083 51.133 85.0879 52.1284 85.2777 53.3139Z" fill="white"/>
<path d="M35.0721 90.4902C35.0721 91.6869 35.0721 92.8725 35.0721 94.0692C33.8886 93.879 32.895 93.4876 33.0736 92.0113C33.2187 90.8481 34.1454 90.658 35.0721 90.4902Z" fill="white"/>
<path d="M35.4263 72.6514C35.5937 74.1165 34.5108 75.0336 33.8855 76.152C32.1997 74.0158 32.8584 72.9086 35.4263 72.6514Z" fill="white"/>
<path d="M36.4668 179.942C37.7842 179.897 39.1909 180.154 40.0394 178.734C40.486 178.387 40.9102 178.387 41.3345 178.778C41.234 179.561 41.1336 180.344 41.0331 181.127C39.4477 180.971 37.6391 181.664 36.4668 179.93V179.942Z" fill="white"/>
<path d="M110.085 116.728C110.174 118.317 110.263 119.894 110.364 121.482C108.723 123.495 108.734 125.497 110.386 127.499C110.197 129.557 110.096 131.592 111.313 133.426C109.895 136.167 112.385 139.086 110.933 141.826C107.07 144.823 109.582 150.147 106.724 153.513C104.581 153.938 102.515 153.949 100.774 152.339C99.0209 150.829 97.5025 148.089 94.823 151.12C90.4688 151.12 86.1035 151.12 81.7494 151.131C79.2039 150.236 76.569 150.963 73.99 150.684C69.2005 149.274 64.2211 146.411 60.3024 152.328C59.9228 152.428 59.532 152.529 59.1524 152.619C56.6851 151.668 54.3405 150.315 51.6945 152.473C50.031 153.826 48.0773 153.345 46.3468 152.194C45.6769 151.645 45.3643 150.863 45.0182 150.113C45.0405 149.33 45.0517 148.536 45.074 147.753C47.519 144.555 45.7662 141.971 43.8683 139.41C43.0756 136.457 45.5317 133.963 45.0628 131.067C48.0549 128.315 44.527 126.313 44.259 123.931C44.0246 120.33 44.7726 116.684 43.8013 113.116C43.6785 111.55 43.5668 109.973 43.444 108.407C42.3387 106.763 42.5955 105.186 43.6561 103.643L43.7119 103.71C44.8619 101.361 43.991 98.8672 44.2702 96.4514C44.2702 94.36 44.2702 92.2573 44.2702 90.1659C44.0692 88.2534 44.873 86.1619 43.2989 84.4843C42.8076 83.7685 42.5732 82.9744 42.6067 82.1132C43.645 79.731 44.0692 77.0356 46.0788 75.1455C50.0869 68.0323 56.3278 64.3192 62.6804 65.2698C72.494 63.0665 82.4193 62.183 92.4673 62.8988C95.2249 62.5521 97.3908 64.006 99.6126 65.281C103.755 66.2988 107.026 68.8264 110.197 71.4882C111.871 73.3784 111.972 75.3468 110.52 77.4047C110.476 78.154 110.442 78.8922 110.397 79.6415C112.005 81.5317 111.782 83.7909 111.67 86.0277C111.67 86.3073 111.693 86.5869 111.693 86.8554C111.57 87.2804 111.447 87.7053 111.324 88.1192C110.107 91.3626 111.279 94.4271 112.094 97.5027C112.206 99.3481 111.637 100.981 110.52 102.446C110.52 103.218 110.509 103.99 110.498 104.761C112.072 105.913 112.262 107.513 111.983 109.28C110.364 111.517 107.439 113.429 110.107 116.751L110.085 116.728Z" fill="white"/>
<path d="M124.712 133.415C124.745 131.827 124.779 130.239 124.812 128.65C128.05 125.877 128.039 123.092 124.834 120.296C124.812 119.502 124.79 118.708 124.768 117.914C128.764 114.57 126.375 111.751 124.019 108.933C124.064 107.535 123.74 106.114 124.377 104.772C124.075 103.911 126.665 103.452 124.712 102.368C123.439 101.104 124.232 99.482 123.975 98.0393C124.377 94.684 126.654 91.2504 123.562 88.0406C123.83 87.2577 124.098 86.486 124.366 85.7031C122.858 83.7123 123.383 81.7327 124.388 79.7642C124.388 78.959 124.388 78.1649 124.388 77.3596C123.171 75.3129 123.551 73.3557 124.723 71.432C129.021 70.0899 131.812 65.8511 136.49 65.2248C138.712 63.961 140.878 62.507 143.635 62.8425C154.152 61.0754 164.312 63.9833 174.595 65.236C181.885 65.7169 186.362 70.2689 190.069 75.9392C191.699 77.2031 192.201 79.0596 192.636 80.9386C192.871 81.4978 192.96 82.0794 192.938 82.6721C192.302 84.9425 191.475 87.1906 191.833 89.6287C191.833 91.7314 191.833 93.8452 191.833 95.9478C191.152 98.9564 191.062 101.931 192.346 104.839C192.592 106.148 192.257 107.311 191.464 108.351C191.442 110.286 191.431 112.232 191.408 114.167C192.335 117.276 191.609 120.475 191.855 123.606C191.676 126.201 187.88 127.823 189.879 131.01C189.857 133.862 192.223 136.39 191.04 139.398C190.381 142.127 188.372 144.666 189.89 147.708C189.968 148.894 190.057 150.068 190.136 151.254C188.293 153.233 186.061 153.423 183.917 152.093C181.36 150.516 179.194 151.332 176.95 152.585L175.789 152.283C171.837 146.31 166.88 148.816 162.001 150.65C159.054 150.918 156.05 150.18 153.136 151.086C149.173 151.086 145.221 151.086 141.257 151.075C138.567 148.033 136.937 150.18 135.307 152.294C133.253 152.339 131.611 154.486 129.356 153.468C127.536 151.623 127.771 149.218 127.771 146.959C127.771 144.465 126.52 142.631 125.158 140.774C123.975 138.37 126.174 135.775 124.745 133.37L124.712 133.415Z" fill="white"/>
<path d="M190.068 75.9616C185.1 72.1254 180.634 67.5511 174.594 65.2583C176.067 61.1202 178.725 63.3347 180.667 64.4419C182.911 65.7169 184.988 67.059 187.69 66.634C188.516 69.732 191.028 72.4051 190.068 75.9616Z" fill="#333333"/>
<path d="M176.928 152.607C177.966 149.308 180.467 147.742 183.035 150.035C185.491 152.238 187.724 151.209 190.113 151.265L190.169 151.187C190.839 153.513 191.33 155.795 188.829 157.428C184.977 155.526 180.523 155.124 176.928 152.596V152.607Z" fill="white"/>
<path d="M125.75 140.584C132.304 143.403 128.139 149.196 129.334 153.502C126.766 154.386 123.819 156.186 124.5 150.852C124.723 149.062 122.78 147.485 123.428 145.472C123.83 144.913 124.031 144.253 124.31 143.627C124.689 142.564 124.645 141.3 125.739 140.584H125.75Z" fill="white"/>
<path d="M62.6355 65.2361C55.6801 66.1308 50.9463 70.7611 46.0339 75.1118C45.018 71.7901 47.9319 69.5532 48.3673 66.6341C51.125 67.0815 53.2462 65.7618 55.4568 64.3525C57.9465 62.7756 60.6036 62.0262 62.6355 65.2249V65.2361Z" fill="#333333"/>
<path d="M162.682 150.046C164.926 146.098 168.99 146.87 172.317 146.97C174.739 147.049 175.979 149.621 175.778 152.305C171.68 153.256 167.94 150.795 163.91 151.075C163.329 150.929 162.916 150.583 162.682 150.035V150.046Z" fill="white"/>
<path d="M46.0676 151.321C47.8651 151.254 49.6625 153.244 51.4823 151.187C54.7647 147.462 57.1427 149.084 59.13 152.607C55.189 153.759 51.6945 156.41 47.3292 156.186C43.991 155.325 45.4647 153.211 46.0787 151.321H46.0676Z" fill="white"/>
<path d="M106.713 153.502C106.713 151.019 106.747 148.548 106.713 146.065C106.691 143.638 107.562 141.994 110.208 141.77C111.302 142.24 111.525 143.302 111.916 144.253C112.072 145.025 112.083 145.785 111.715 146.512C111.637 148.078 111.414 149.655 111.514 151.209C111.827 156.108 109.583 155.404 106.724 153.491L106.713 153.502Z" fill="white"/>
<path d="M60.2807 152.317C61.9107 145.651 66.8007 144.801 73.3766 150.057C73.1422 150.605 72.7179 150.941 72.1374 151.097C68.1851 151.5 64.2329 151.914 60.2695 152.317H60.2807Z" fill="white"/>
<path d="M124.835 120.307C127.135 120.833 129.345 121.392 129.334 124.49C129.334 127.588 127.124 128.136 124.813 128.651C123.239 125.866 123.328 123.081 124.835 120.296V120.307Z" fill="white"/>
<path d="M124.811 109.571C127.133 109.895 128.953 111.215 129.098 113.485C129.266 116.136 127.301 117.478 124.778 117.925C124.342 115.979 123.918 114.044 123.482 112.098C124.197 111.405 123.628 110.018 124.811 109.571Z" fill="white"/>
<path d="M43.8353 139.387C49.6409 143.346 49.8307 144.689 45.0411 147.731C42.864 145.203 43.7125 142.239 43.8353 139.387Z" fill="white"/>
<path d="M41.3344 178.778C40.899 178.767 40.4747 178.745 40.0393 178.734C38.6102 176.497 38.7777 174.003 38.8782 171.531C40.8543 173.142 42.8081 173.231 44.7619 171.486C45.1638 172.247 45.5657 173.007 45.9677 173.768C43.7571 174.819 42.9309 177.157 41.3344 178.778Z" fill="#ECE9FD"/>
<path d="M110.087 116.728C108.144 116.505 106.615 115.61 106.927 113.496C107.262 111.214 108.926 109.906 111.248 109.582C112.543 110.633 112.03 111.93 111.728 113.194C111.181 114.38 110.634 115.554 110.087 116.739V116.728Z" fill="white"/>
<path d="M99.5671 65.2471C96.6197 66.1642 94.4315 64.7885 92.4219 62.8648C92.6228 61.5003 92.8685 59.8227 94.6659 60.2589C97.178 60.874 99.2099 62.328 99.5671 65.2359V65.2471Z" fill="#333333"/>
<path d="M143.624 62.8654C141.614 64.7779 139.426 66.1647 136.479 65.2476C136.836 62.3285 138.868 60.8746 141.38 60.2706C143.177 59.8345 143.423 61.5121 143.624 62.8766V62.8654Z" fill="#333333"/>
<path d="M110.387 127.499C108.478 127.364 106.904 126.615 106.893 124.501C106.893 122.387 108.456 121.627 110.365 121.481C112.039 123.483 112.106 125.485 110.387 127.499Z" fill="white"/>
<path d="M94.8126 151.108C94.7791 149.196 95.1363 147.585 97.5814 147.82C100.339 148.089 100.819 150.035 100.774 152.327C98.508 153.278 96.8557 151.243 94.8237 151.108H94.8126Z" fill="white"/>
<path d="M135.295 152.327C135.507 150.504 134.614 148.133 137.684 147.787C140.207 147.496 141.424 148.525 141.257 151.108L135.306 152.327H135.295Z" fill="white"/>
<path d="M189.876 147.742C184.372 144.152 189.463 142.038 191.026 139.432C191.138 142.273 191.998 145.214 189.876 147.742Z" fill="white"/>
<path d="M44.9187 125.083C46.8725 125.273 48.3238 126.111 48.201 128.292C48.0894 130.138 46.7385 130.865 45.0415 131.044C45.1866 129.344 43.244 128.181 43.8469 126.358C44.0925 125.843 44.126 125.127 44.9298 125.083H44.9187Z" fill="white"/>
<path d="M189.868 131.044C187.423 130.697 187.613 128.874 187.769 127.163C187.959 125.027 189.623 125.138 191.141 125.083C191.945 125.138 191.978 125.843 192.224 126.369C191.443 127.923 190.65 129.489 189.868 131.044Z" fill="white"/>
<path d="M110.488 77.371C110.376 75.4026 110.276 73.423 110.164 71.4546C112.844 71.6671 113.647 73.5908 113.58 75.7717C113.525 77.6171 111.738 77.2368 110.488 77.371Z" fill="#333333"/>
<path d="M111.347 79.8091C116.885 81.9005 115.389 84.3163 111.66 86.8328L111.314 86.9782C110.689 84.5847 110.633 82.1913 111.347 79.8091Z" fill="#333333"/>
<path d="M110.487 102.413C109.515 100.623 112.329 99.4713 111.291 97.6594C110.866 96.4068 110.464 95.143 111.67 94.0581C115.377 97.4246 113.244 99.9634 110.487 102.402V102.413Z" fill="#333333"/>
<path d="M124.388 79.7759C124.388 81.7555 124.376 83.7351 124.365 85.7147C118.649 83.7127 120.625 81.7443 124.388 79.7759Z" fill="#333333"/>
<path d="M191.52 104.817C190.828 102.044 188.517 99.2701 191.487 96.4853C191.766 95.9149 192.067 95.9037 192.414 96.4293C192.503 98.8451 192.581 101.261 192.67 103.677C192.849 104.616 192.369 104.896 191.532 104.817H191.52Z" fill="#525252"/>
<path d="M44.9192 125.083L43.8347 126.358L43.7676 113.093C45.8584 116.929 44.3043 121.112 44.9192 125.083Z" fill="#B4B4B4"/>
<path d="M192.222 126.358C191.864 125.933 191.496 125.508 191.139 125.072C191.228 121.448 191.306 117.813 191.395 114.189C193.617 118.115 192.021 122.298 192.222 126.358Z" fill="#B4B4B4"/>
<path d="M124.755 97.6702L124.711 102.379C123.806 99.6386 120.167 97.0103 124.376 94.0688C125.581 95.1537 125.179 96.4063 124.755 97.6702Z" fill="#333333"/>
<path d="M191.52 104.817C191.9 104.437 192.279 104.057 192.659 103.676C195.417 106.059 196.366 107.971 191.453 108.374C191.475 107.188 191.498 106.003 191.52 104.817Z" fill="#333333"/>
<path d="M124.756 97.6707C124.633 96.474 124.51 95.2661 124.376 94.0694C125.481 91.8773 123.036 90.1661 123.561 88.0635C127.759 90.7924 125.716 94.3043 124.756 97.6707Z" fill="#D5D5D5"/>
<path d="M111.291 144.208C110.934 143.403 110.565 142.587 110.208 141.781C110.788 139.03 109.248 135.988 111.302 133.427C111.425 134.623 111.536 135.82 111.659 137.028C112.128 139.455 112.642 141.882 111.291 144.208Z" fill="#DCDCDC"/>
<path d="M125.749 140.585C125.716 141.871 126.051 143.269 124.756 144.208C123.416 141.871 123.93 139.444 124.387 137.028C124.499 135.831 124.6 134.623 124.711 133.427C126.643 135.585 125.459 138.202 125.749 140.596V140.585Z" fill="#DCDCDC"/>
<path d="M162.682 150.046C163.095 150.393 163.497 150.739 163.91 151.086C160.315 151.097 156.72 151.109 153.125 151.12C156.106 148.972 159.533 150.717 162.682 150.046Z" fill="#D0D0D0"/>
<path d="M72.1367 151.086C72.5498 150.739 72.9629 150.393 73.376 150.046C76.1225 150.706 79.1704 149.006 81.7271 151.12C78.534 151.12 75.3298 151.097 72.1367 151.086Z" fill="#D0D0D0"/>
<path d="M46.0676 151.321C46.1011 153.044 45.3977 154.956 47.318 156.186C46.5923 157.036 45.7438 159.374 44.9288 156.555C44.3594 154.576 44.9288 152.261 44.9846 150.102C45.3419 150.505 45.6991 150.919 46.0564 151.321H46.0676Z" fill="#DBDBDB"/>
<path d="M111.672 94.069C111.549 95.2658 111.426 96.4736 111.292 97.6704C109.774 94.4829 109.662 91.2842 111.292 88.0967C111.415 90.0875 111.538 92.0783 111.672 94.069Z" fill="#D5D5D5"/>
<path d="M111.291 144.208C111.414 141.814 111.537 139.421 111.659 137.027C113.256 140.181 113.234 143.358 111.715 146.534L111.302 144.219L111.291 144.208Z" fill="#434343"/>
<path d="M111.725 113.183C111.569 111.975 111.401 110.778 111.245 109.57C111.971 107.803 110.999 106.305 110.475 104.739C114.416 107.032 112.73 110.163 111.725 113.194V113.183Z" fill="#656565"/>
<path d="M124.712 71.4434C124.6 73.423 124.488 75.3914 124.377 77.371C120.045 75.1453 123.16 73.3447 124.712 71.4434Z" fill="#333333"/>
<path d="M188.83 157.439C190.014 155.515 190.17 153.379 190.17 151.198C192.079 156.018 191.744 157.584 188.83 157.439Z" fill="#DBDBDB"/>
<path d="M43.6226 103.609C43.5556 105.198 43.4886 106.786 43.4105 108.374C39.1456 106.596 41.6018 105.108 43.6226 103.609Z" fill="#333333"/>
<path d="M192.345 82.0347C192.379 81.6656 192.479 81.3077 192.635 80.9722C194.5 82.5603 196.822 84.1597 192.613 85.7255C191.474 84.5735 191.753 83.3209 192.345 82.0459V82.0347Z" fill="#333333"/>
<path d="M124.399 137.017C124.522 139.41 124.645 141.803 124.768 144.197C124.332 144.622 123.886 145.047 123.45 145.461C123.774 142.642 122.457 139.645 124.411 137.005L124.399 137.017Z" fill="#434343"/>
<path d="M111.347 79.8093C111.336 82.2027 111.324 84.5849 111.313 86.9784C109.424 84.7303 110.598 82.0797 110.363 79.6191C110.687 79.7198 111.011 79.7757 111.347 79.8093Z" fill="#DBDBDB"/>
<path d="M73.4553 159.844C71.2001 161.667 68.5988 160.649 66.1426 160.761C68.3755 158.804 70.988 159.9 73.4553 159.844Z" fill="#A09EAA"/>
<path d="M44.5731 96.4846C44.6625 98.934 45.7806 101.506 43.6786 103.687C43.6786 101.271 43.6562 98.8557 43.6562 96.4399C43.9917 95.9254 44.3047 95.9142 44.5842 96.4958L44.5731 96.4846Z" fill="#525252"/>
<path d="M42.5621 82.0796C42.9417 82.4599 43.3325 82.8401 43.7121 83.2204C44.2368 84.1263 44.3485 84.9763 43.4441 85.7256C40.8428 85.077 40.5525 83.8579 42.5621 82.0908V82.0796Z" fill="#333333"/>
<path d="M192.345 82.0346C192.435 83.2649 192.524 84.4952 192.613 85.7142C192.513 86.8886 192.412 88.0629 192.312 89.2373C192.077 89.7853 191.787 89.8188 191.452 89.3155C191.318 86.8327 190.57 84.2715 192.345 82.0234V82.0346Z" fill="#7A7A7A"/>
<path d="M124.812 109.57C124.521 110.487 124.711 111.673 123.483 112.098C123.829 109.66 122.411 107.009 124.387 104.783C124.532 106.383 124.666 107.982 124.812 109.581V109.57Z" fill="#656565"/>
<path d="M191.453 89.3273C191.743 89.3049 192.023 89.2826 192.314 89.249C192.347 91.6424 192.381 94.0359 192.403 96.4293C192.09 96.4517 191.788 96.474 191.475 96.4852C191.475 94.103 191.453 91.7095 191.441 89.3273H191.453Z" fill="#666666"/>
<path d="M44.5726 96.4845C44.2595 96.4845 43.9576 96.4621 43.6445 96.4286C43.6781 94.0351 43.7116 91.6417 43.7452 89.2483C44.0806 88.7338 44.3713 88.7897 44.6061 89.3266C44.6061 91.7088 44.5837 94.1023 44.5726 96.4845Z" fill="#666666"/>
<path d="M44.5947 89.3267C44.3044 89.3044 44.0253 89.282 43.7351 89.2485C43.6346 88.0741 43.5341 86.8998 43.4336 85.7143C43.5229 84.8754 43.6122 84.0478 43.7016 83.209C45.5437 85.0208 44.6729 87.2241 44.5835 89.3156L44.5947 89.3267Z" fill="#7A7A7A"/>
<path d="M168.744 160.738C166.656 160.716 164.446 161.554 162.604 159.854C164.691 159.854 166.924 158.881 168.744 160.738Z" fill="#A09EAA"/>
<path d="M78.1425 164.172C75.7644 164.731 73.5986 166.442 70.9414 165.435C72.7501 161.655 75.5077 163.243 78.1425 164.172Z" fill="#CDCBDC"/>
<path d="M172.327 166.755C170.284 166.576 168.063 167.527 166.254 165.838C168.319 165.883 170.575 164.709 172.327 166.755Z" fill="#4F4F51"/>
<path d="M146.001 164.708C144.003 166.14 142.016 166.062 140.051 164.641C142.038 164.663 144.014 164.686 146.001 164.708Z" fill="#4F4E50"/>
<path d="M98.4971 165.536C96.4205 165.503 94.221 166.263 92.3789 164.631C94.489 164.418 96.6772 163.747 98.4971 165.536Z" fill="#6F6E74"/>
</g>
<defs>
<clipPath id="clip0_936_15737">
<rect width="240" height="240" fill="white"/>
</clipPath>
</defs>
</svg>
