<svg width="240" height="240" viewBox="0 0 240 240" fill="none" xmlns="http://www.w3.org/2000/svg">
<g clip-path="url(#clip0_936_13117)">
<rect width="1366" height="768" transform="translate(-404 -406)" fill="white"/>
<path d="M54.7095 143.48C52.2995 141.39 54.8395 139.39 54.8195 137.34C54.7495 130.94 54.1195 124.5 54.2495 118.17C54.3495 113.48 53.3295 108.64 54.6895 103.97C55.7995 101.69 56.0195 99.5001 53.9495 97.5901C53.7895 95.0401 53.0995 92.4101 54.9995 90.1501C55.6695 87.8001 55.7395 85.5801 53.6195 83.8401C47.3495 87.0101 40.4095 88.7001 34.4995 92.6501C31.2595 94.8201 25.8595 93.5501 24.4195 89.9501C20.4395 79.9601 14.2895 71.0001 10.8695 60.7501C9.41952 56.4101 10.7395 52.9601 14.8595 50.9701C26.5195 45.3501 38.3595 40.1801 49.5195 33.4701C57.8295 28.4801 67.0195 24.9801 75.7595 20.7001C78.8095 19.2101 80.3595 20.0101 81.9095 23.0001C86.9395 32.7001 106.77 34.9301 113.68 25.5501C118.16 19.4601 124.38 17.7601 130.25 21.6001C140.21 28.1201 151.55 31.5601 162 36.9301C171.12 41.6201 179.8 47.1201 189.37 50.9901C192.96 52.4401 192.91 56.0801 191.64 59.2101C187.83 68.6001 182.72 77.3501 177.56 86.0301C174.62 90.9701 171.36 91.4601 166.37 88.3801C163.68 86.7201 160.68 85.8001 158 83.9501C154.23 81.3401 152.58 82.6401 151.66 87.3801C151.13 90.1001 152.63 92.3901 152.63 95.0301C152.63 99.7801 151.04 104.42 151.76 109.19C152.79 110.89 151.71 112.91 152.56 114.63C152.56 116.39 152.58 118.16 152.59 119.92C151.81 122.3 152.409 124.75 152.219 127.16C152.379 129.01 151.86 130.91 152.59 132.73C152.65 136.84 152.82 140.95 152.73 145.06C152.64 149.16 150.35 151.47 146.29 151.86C144.19 152.07 142.05 151.99 139.94 152.04C136.46 150.6 132.88 151.62 129.34 151.66C126.13 151.68 123.159 153.63 119.849 152.9C117.419 151.68 114.69 153.09 112.25 152.03L112.34 151.77C110.21 151.1 108.07 151.16 105.92 151.73C102.01 154.43 97.3295 153.05 93.2695 153.17C87.6395 153.33 81.8295 153.5 76.1395 152.8C72.8595 151.99 69.5195 152.64 66.2095 152.43C63.4495 152.23 60.6495 152.87 57.9195 152.04C56.5695 151.38 55.7995 150.34 55.7895 148.79C54.6495 147.18 56.1995 145.02 54.7095 143.48Z" fill="#333333"/>
<path d="M207.16 143.36C213.28 143.74 216.04 147.41 214.14 153.54C213.54 155.47 213.57 156.73 214.53 158.23C215.66 159.34 215.11 160.99 215.8 162.23C216.17 163.05 215.93 164.05 216.57 164.79C217.67 171.77 218.89 178.73 218.83 185.84C219.9 187.92 218.68 190.28 219.65 192.37C221.89 194.91 220.35 198.05 221.02 200.84C221.61 203.35 221.63 205.85 221.02 208.36C220.9 208.71 220.79 209.05 220.67 209.4C219.84 211.12 220.91 213.13 219.88 214.82C217.82 219.08 214.85 220.8 209.71 221.35C195.99 222.84 182.19 222.97 168.46 224C161.27 224.54 153.74 225.03 146.48 223.15C144.27 222.4 142.06 222.41 139.85 223.15C133.67 222.38 127.5 221.23 121.3 220.96C114.15 220.64 112.69 216.98 111.94 210.46C111.17 203.72 110.13 196.98 110.29 190.23C110.43 184.33 114.49 180.17 118.44 176.18C122.04 172.55 126.06 169.46 130.36 166.72C131.91 166.92 132.64 165.7 133.6 164.87C135.74 163.46 137.88 162.05 140.02 160.65C143.65 162.25 145.55 159.84 147.44 157.43C152.12 154.45 157.66 153.97 162.77 152.27C164.62 151.66 165.97 151.27 165.55 148.97C165.03 146.15 168.06 145.41 168.93 143.4C171.38 142.57 173.83 142.63 176.28 143.36C177.31 143.43 178.34 143.5 179.37 143.57C181.23 146.2 183.83 143.13 185.86 144.42C191.02 145.45 195.75 143.23 200.69 142.51C202.69 144.02 205.02 142.94 207.16 143.35V143.36Z" fill="#333333"/>
<path d="M147.43 157.43C146.75 162.41 144.11 163.55 140.01 160.65C143 160.76 144.36 157.12 147.43 157.43Z" fill="#333333"/>
<path d="M185.859 144.43C183.759 143.64 180.769 149.7 179.369 143.58C181.549 143.72 183.929 142.38 185.859 144.43Z" fill="#333333"/>
<path d="M129.33 151.67C132.91 150.61 136.46 149.96 139.93 152.05C136.4 151.92 132.87 151.79 129.33 151.67Z" fill="#4E4E50"/>
<path d="M207.159 143.36C204.819 144.51 202.499 145.45 200.689 142.52C202.859 142.66 205.229 141.32 207.159 143.36Z" fill="#333333"/>
<path d="M66.4407 152.05C69.6607 152.37 73.0307 150.88 76.1307 152.8H66.5707C66.2107 152.69 66.0707 152.54 66.1507 152.36C66.2407 152.15 66.3307 152.05 66.4407 152.05Z" fill="#6F6F72"/>
<path d="M53.6094 83.8398C57.6694 85.1598 55.7194 87.7898 54.9894 90.1498C54.5294 88.0498 54.0694 85.9398 53.6094 83.8398Z" fill="#414041"/>
<path d="M66.4402 152.05C66.4902 152.3 66.5302 152.55 66.5702 152.81C63.6702 152.7 60.6602 153.9 57.9102 152.04C60.7502 152.04 63.6002 152.04 66.4402 152.05Z" fill="#959497"/>
<path d="M133.59 164.87C133.52 167.25 133.09 169.01 130.35 166.72C131.03 165.41 131.84 164.32 133.59 164.87Z" fill="#333333"/>
<path d="M221.02 208.37C221.02 205.86 221.02 203.36 221.02 200.85C222.59 203.36 222.42 205.86 221.02 208.37Z" fill="#C3C3C5"/>
<path d="M112.24 152.04C114.78 152.27 117.5 150.91 119.84 152.91C117.31 152.61 114.6 153.86 112.24 152.04Z" fill="#C6C6C8"/>
<path d="M176.28 143.36C173.83 143.37 171.38 143.39 168.93 143.4C171.37 141.56 173.82 141.85 176.28 143.36Z" fill="#333333"/>
<path d="M151.75 127.34C152.03 124.87 150.78 122.24 152.57 119.94C152.57 122.46 152.57 124.97 152.57 127.49C152.21 127.88 151.94 127.83 151.75 127.34Z" fill="#727275"/>
<path d="M53.9395 97.5898C57.3495 99.3498 56.0894 101.65 54.6794 103.97C54.9094 101.79 54.9795 99.6298 53.9395 97.5898Z" fill="#4F4F51"/>
<path d="M139.85 223.15C142.06 221.56 144.27 221.56 146.48 223.15C144.27 223.15 142.06 223.15 139.85 223.15Z" fill="#CFCFD1"/>
<path d="M219.66 192.37C217.92 190.38 219.13 188.01 218.84 185.84C220.97 187.79 219.36 190.2 219.66 192.37Z" fill="#525254"/>
<path d="M105.92 151.73C108.07 150.42 110.21 150.34 112.34 151.77C110.2 151.76 108.06 151.74 105.92 151.73Z" fill="#434344"/>
<path d="M216.58 164.79C215.49 164.4 215.76 163.31 215.4 162.54C214.69 161.18 214.91 159.81 215.35 158.43C217.69 160.18 216.26 162.65 216.57 164.79H216.58Z" fill="#DBDBDC"/>
<path d="M215.351 158.43C215.371 159.8 215.381 161.17 215.401 162.54C212.971 161.53 214.571 159.72 214.531 158.23C214.801 158.3 215.081 158.37 215.351 158.43Z" fill="#333333"/>
<path d="M54.7109 143.48C56.9209 144.87 55.361 147.03 55.791 148.79C53.911 147.33 55.2609 145.21 54.7109 143.48Z" fill="#8F8E91"/>
<path d="M151.75 127.34C152.02 127.4 152.3 127.45 152.57 127.49C152.57 129.24 152.57 131 152.57 132.75C151.09 131.13 151.85 129.17 151.75 127.34Z" fill="#434344"/>
<path d="M152.55 114.65C151.07 113.01 151.92 111.04 151.75 109.21C153.64 110.79 152.51 112.81 152.55 114.65Z" fill="#464647"/>
<path d="M219.881 214.83C220.081 213.01 219.191 211.04 220.671 209.41C220.661 211.25 221.781 213.26 219.881 214.83Z" fill="#4E4E50"/>
<path d="M144.42 128.51C144.08 130.31 144.02 132.07 145.19 133.65C144.04 135.8 144.5 138.07 144.78 140.29C145.07 142.57 144.27 143.94 141.98 144.38C141.35 144.38 140.72 144.39 140.09 144.4C137.55 143.37 134.89 144.17 132.3 143.92C130.23 143.79 128.14 144.23 126.1 143.61C117.75 145.53 109.28 143.83 100.87 144.38C92.6702 144.91 84.3902 143.99 76.2202 145.47C74.1602 144.33 71.8002 145.54 69.7102 144.67C64.5302 146.15 63.6802 145.34 63.2502 140.35C62.5802 132.49 63.7102 124.59 62.3802 116.74C61.9202 114.01 63.8002 111.16 62.4402 108.32C63.2202 105.41 62.6102 102.45 62.8102 99.5102C62.5902 95.3302 63.2702 91.1202 62.4202 86.9602C62.3302 84.4802 62.2402 82.0102 62.1502 79.5302C61.1602 77.8202 62.3602 75.7602 61.2702 74.0702C58.8802 70.2702 56.1002 72.3302 53.6902 73.8202C46.8302 78.0502 39.3202 80.8902 32.1602 84.4902C30.1702 85.4902 30.0902 83.3502 29.7702 82.6402C26.7302 75.7602 24.2402 68.6502 20.1102 62.2602C18.8902 60.3602 18.5902 58.6602 21.8302 56.9802C32.7802 51.2802 44.2102 46.5202 54.7402 39.9602C57.8002 38.0502 61.8002 37.3102 65.0902 35.4602C67.8202 33.9302 68.8602 36.3402 69.5902 37.6402C73.3802 44.4502 79.9702 46.7202 86.7302 48.8402C88.4602 49.7702 90.4902 48.6702 92.2102 49.6502C107.46 51.6402 119.89 46.3002 129.7 34.8002C131.61 32.5602 132.72 32.3402 135.18 33.7002C139.94 36.3302 144.87 38.6802 149.85 40.8702C159.37 45.0502 168.59 49.8202 177.63 54.9402C178.55 55.4602 179.33 55.9802 180.4 56.2302C183.65 57.0002 183.44 57.9202 181.79 61.0402C178.86 66.5902 174.94 71.6502 172.9 77.7002C171.55 81.6902 170.52 81.7702 166.82 79.3502C161.48 75.8502 155.01 74.4902 149.95 70.3102C148.76 69.3202 145.98 69.2302 144.55 70.6702C143.48 71.7402 142.6 73.5902 144.05 75.2902C143.16 77.0302 144.23 79.0502 143.26 80.7702C142.86 82.5702 145.11 83.9802 144.02 85.8902C143.56 87.7102 143.38 89.5302 144.13 91.3302C143.9 97.7802 145.19 104.28 143.39 110.68C143.26 111.14 144.01 111.85 144.36 112.45C144.99 114.66 144.99 116.88 144.36 119.09C144.08 120.12 142.03 121 144.09 122.23C145.29 124.28 144.81 126.42 144.43 128.56L144.42 128.51Z" fill="#EEEBFF"/>
<path d="M115.54 36.0201C113.58 39.1401 110.69 40.3902 107.09 40.2302C105.38 41.2402 103.32 40.0601 101.61 41.0901C98.7701 41.6401 95.9702 43.6801 93.0602 41.3001C91.5002 39.8201 89.3401 41.3502 87.7101 40.2302C80.8301 39.7302 77.2402 37.0302 74.9102 29.6602C87.7402 42.2802 101.26 42.0402 115.45 34.7202C115.75 34.9902 115.86 35.2702 115.79 35.5702C115.71 35.8702 115.63 36.0201 115.54 36.0201Z" fill="#FCFCFC"/>
<path d="M141.98 144.38C144.41 143.21 145.03 140.93 143.99 138.95C142.72 136.51 143.86 135.2 145.19 133.65C145.23 136.11 145.19 138.59 145.35 141.04C145.51 143.54 144.54 144.7 141.99 144.38H141.98Z" fill="#605F64"/>
<path d="M62.4091 86.9702C64.1691 91.1902 63.1391 95.5702 63.0891 99.8902C62.8491 99.8402 62.6091 99.7802 62.3691 99.7302C62.3791 95.4802 62.3891 91.2302 62.3991 86.9702H62.4091Z" fill="#CBC9D9"/>
<path d="M123.941 29.75C123.371 30.88 122.571 31.7 121.201 31.66C120.231 31.63 119.441 31.22 119.931 30.12C120.451 28.97 121.411 28.3 122.801 28.45C123.631 28.54 123.981 28.93 123.931 29.75H123.941Z" fill="#F5F5F5"/>
<path d="M62.3809 99.73C62.6209 99.77 62.8609 99.83 63.1009 99.89C63.0109 102.71 64.2009 105.64 62.4409 108.33C62.4209 105.46 62.4009 102.6 62.3809 99.73Z" fill="#AEACB9"/>
<path d="M132.56 143.6C135.1 143.6 137.76 142.45 140.09 144.4C137.56 144.4 135.03 144.4 132.49 144.41C132.15 144.2 132.05 144.02 132.18 143.84C132.3 143.68 132.43 143.6 132.55 143.6H132.56Z" fill="#565559"/>
<path d="M115.541 36.0199C115.511 35.5899 115.491 35.1499 115.461 34.7199C116.581 32.9899 118.031 33.6899 119.651 34.1699C118.231 34.9599 117.171 36.0999 115.541 36.0199Z" fill="#F9F9F9"/>
<path d="M144.35 119.04C144.35 116.83 144.35 114.61 144.35 112.4C145.73 114.61 145.96 116.83 144.35 119.04Z" fill="#ADABB8"/>
<path d="M144.42 128.51C144.31 126.4 144.19 124.29 144.08 122.18C146.04 124.19 145.67 126.33 144.42 128.51Z" fill="#555458"/>
<path d="M132.56 143.6C132.55 143.87 132.53 144.14 132.5 144.41C130.36 144.17 128.07 145.2 126.1 143.6C128.25 143.6 130.4 143.6 132.56 143.6Z" fill="#6A696F"/>
<path d="M69.7109 144.66C71.9109 144.7 74.2609 143.52 76.2209 145.46C74.0409 145.26 71.7209 146.24 69.7109 144.66Z" fill="#4C4B4E"/>
<path d="M144.131 91.2901C142.811 89.5001 142.651 87.6901 144.021 85.8501C144.061 87.6601 144.091 89.4701 144.131 91.2901Z" fill="#A8A6B2"/>
<path d="M143.259 80.73C143.379 78.88 142.509 76.89 144.049 75.25C143.989 77.11 145.029 79.12 143.259 80.73Z" fill="#C1BFCE"/>
<path d="M61.2698 74.0801C63.0598 75.6601 62.0498 77.6901 62.1498 79.5401C60.5698 77.9301 61.3798 75.9301 61.2698 74.0801Z" fill="#545458"/>
<path d="M92.2104 49.6302C90.3604 49.4902 88.3605 50.4302 86.7305 48.8202C88.5705 49.0002 90.6204 47.7802 92.2104 49.6302Z" fill="#C2C0CF"/>
<path d="M101.619 41.1002C103.229 39.4602 105.249 40.4202 107.099 40.2402C105.519 42.1002 103.459 40.8802 101.619 41.1002Z" fill="#C2C2C5"/>
<path d="M87.7207 40.24C89.5007 40.61 91.6407 39.16 93.0707 41.31C91.3207 40.78 89.2107 42.09 87.7207 40.24Z" fill="#ABABAE"/>
<path d="M181.52 198.95C177 200.61 172.34 199.64 167.73 199.64C164.84 199.05 161.95 199.02 159.06 199.66C156.27 200.79 153.49 198.12 150.7 199.62C147.13 198.63 143.41 199.91 139.84 198.9C136.69 198.91 133.54 198.93 130.4 198.94C128.26 199.43 126.13 199.5 124 198.89C119.35 199.69 119.67 196.41 119.56 193.48C119.09 191.67 119 189.86 119.62 188.06C123.35 180.77 130.27 176.84 136.58 172.4C138.67 170.93 140.71 172.72 141.64 175.29C142.59 177.91 144.85 179 147.43 178.41C150.28 177.75 149.6 175.28 149.38 173.2C145.11 169.27 144.98 168.05 148.58 165.81L148.54 165.85C150.58 163.68 152.84 162.29 155.91 163.71C156.77 166.07 158.49 167.79 160.18 169.56C161.24 170.67 162.41 171.57 163.87 170.95C165.59 170.21 165.56 168.5 165.54 166.84C165.51 164.36 163.7 162.8 162.65 160.83C167.13 159.53 171.53 156.99 176.2 160.2C178.13 159.79 180.04 159.42 181.49 161.3C184.09 160.78 186.3 163.11 188.93 162.34C191.07 161.89 193.21 161.81 195.34 162.39C197.81 162.39 200.27 162.39 202.74 162.39C204.61 160.51 206.401 160.1 208.031 162.68C209.201 171.04 210.41 179.39 211.54 187.75C212.42 194.26 208.66 198.08 200.7 198.87C196.88 199.7 193 199.06 189.16 199.26C186.61 199.11 184.03 199.6 181.5 198.94L181.52 198.95Z" fill="white"/>
<path d="M150.569 214.87C147.419 214.74 144.259 214.61 141.109 214.49C138.929 214.02 136.759 213.9 134.589 214.55C132.849 214.2 131.109 213.85 129.369 213.5C127.909 211.47 125.969 211.83 123.989 212.42C118.169 213.2 120.159 209.25 119.689 206.18C126.869 208.62 133.409 204.84 139.939 206.39C141.689 207.25 143.699 206.22 145.439 207.15C151.749 207.15 158.059 207.14 164.369 207.13C166.559 206.53 168.759 206.52 170.949 207.13C180.859 207.17 190.779 207.18 200.689 207.28C203.039 207.3 204.989 206.1 207.149 205.62C209.309 205.15 212.619 203.62 213.149 206.75C213.569 209.2 213.489 213.44 208.929 213.55C203.349 213.69 197.869 215.56 192.229 214.56C190.049 213.92 187.869 213.91 185.689 214.56C179.349 214.8 172.989 214.48 166.709 215.69C164.149 214.94 161.599 214.94 159.039 215.69C158.039 215.69 157.039 215.69 156.029 215.69C154.339 214.6 152.299 215.76 150.579 214.85L150.569 214.87Z" fill="#EEEBFF"/>
<path d="M183.57 153.84C182.86 154.14 182.66 153.65 182.47 153.13C181.93 152.34 181.9 151.54 182.38 150.71C183.49 150.19 184.61 150.22 185.73 150.66C187.86 151.06 189.79 152.64 192.14 151.73C194.37 149.61 196.81 148.89 199.59 150.67C200.73 150.39 201.85 150.03 203 149.85C203.86 149.71 204.8 149.77 204.85 151.01C204.89 151.87 205 152.81 203.75 152.94C200.88 153.25 198.64 155.99 195.45 155.03C193.98 154.14 192.36 154.73 190.81 154.54C190.36 154.51 189.91 154.48 189.46 154.44C187.46 154.55 185.65 152.85 183.56 153.83L183.57 153.84Z" fill="#FEFEFE"/>
<path d="M185.73 150.66C184.69 150.77 183.65 150.87 182.61 150.98C181.22 151.92 179.84 152.04 178.47 150.91C176.8 150.66 174.81 151.38 173.68 149.49C173.49 149.18 173.66 148.27 173.89 148.16C175.75 147.34 177.9 147.11 179.38 148.47C181.28 150.23 183.96 149.01 185.73 150.65V150.66Z" fill="#333333"/>
<path d="M199.601 150.68C197.121 151.03 194.631 151.39 192.151 151.74C192.091 149.63 192.611 147.92 195.101 147.71C197.361 147.52 199.311 147.87 199.611 150.68H199.601Z" fill="#333333"/>
<path d="M148.58 165.81C144.62 168.73 148.67 170.79 149.38 173.2C146.64 172.81 144.6 171.39 144.45 168.57C144.31 165.87 146.52 165.73 148.58 165.81Z" fill="#333333"/>
<path d="M155.921 163.71C153.461 164.42 151.001 165.13 148.551 165.85C150.301 160.47 151.031 160.26 155.921 163.71Z" fill="#333333"/>
<path d="M188.89 198.89C192.83 198.89 196.78 198.89 200.72 198.88C196.97 200.71 193 199.57 189.13 199.72C188.75 199.63 188.59 199.48 188.64 199.27C188.7 199.02 188.78 198.9 188.88 198.9L188.89 198.89Z" fill="#828285"/>
<path d="M139.85 198.9C143.48 199.05 147.19 197.84 150.71 199.62C147.08 199.51 143.36 200.82 139.85 198.9Z" fill="#A9A9AC"/>
<path d="M190.04 155.04C187.9 158.26 186.57 157.47 185.75 154.18C187.13 153.1 188.59 153.45 190.06 153.94L189.96 154.14C190.35 154.31 190.49 154.5 190.38 154.71C190.27 154.93 190.15 155.04 190.03 155.04H190.04Z" fill="#333333"/>
<path d="M159.07 199.66C161.96 198.24 164.84 198.23 167.74 199.64C164.85 199.64 161.96 199.65 159.07 199.66Z" fill="#ABAAAD"/>
<path d="M178.471 150.92C179.851 150.94 181.231 150.96 182.611 150.99L182.471 153.14C181.141 152.41 178.371 154.26 178.481 150.93L178.471 150.92Z" fill="#CBCBCD"/>
<path d="M159.029 215.71C161.589 214.34 164.139 213.93 166.699 215.71C164.139 215.71 161.589 215.71 159.029 215.71Z" fill="#68676D"/>
<path d="M188.89 198.89C188.97 199.17 189.05 199.44 189.13 199.71C186.59 199.52 183.92 200.62 181.52 198.95C183.98 198.93 186.43 198.91 188.89 198.89Z" fill="#424243"/>
<path d="M208.04 162.69C206.37 160.95 204.57 161.5 202.75 162.4C204.68 159.4 206.47 159 208.04 162.69Z" fill="#575658"/>
<path d="M185.68 214.58C187.86 213.29 190.04 213.01 192.22 214.58C190.04 214.58 187.86 214.58 185.68 214.58Z" fill="#9A98A3"/>
<path d="M134.59 214.56C136.75 213.18 138.92 213.22 141.11 214.5C138.94 214.52 136.76 214.54 134.59 214.56Z" fill="#A8A7B3"/>
<path d="M123.99 212.42C126.1 211.23 128.13 210.37 129.37 213.5C127.7 212.53 125.82 212.59 123.99 212.42Z" fill="#C9C7D7"/>
<path d="M170.939 207.15C168.749 207.15 166.559 207.15 164.359 207.15C166.549 205.75 168.749 205.64 170.939 207.15Z" fill="#95949E"/>
<path d="M124 198.89C126.13 198.91 128.27 198.92 130.4 198.94C128.26 200.34 126.12 200.25 124 198.89Z" fill="#515153"/>
<path d="M190.07 153.93C188.63 154.01 187.19 154.09 185.76 154.17C185.03 154.06 184.3 153.94 183.57 153.83C185.76 152.28 187.93 152.66 190.07 153.93Z" fill="#BBBBBD"/>
<path d="M181.501 161.3C179.911 160.09 177.971 160.6 176.211 160.2C178.271 159.15 180.311 158.2 181.501 161.3Z" fill="#333333"/>
<path d="M195.349 162.4C193.209 162.38 191.079 162.37 188.939 162.35C191.089 160.97 193.219 161.11 195.349 162.4Z" fill="#555456"/>
<path d="M190.041 155.04C190.041 154.74 190.011 154.43 189.961 154.13C191.801 154.35 193.871 153.21 195.451 155.04H190.031H190.041Z" fill="#565658"/>
<path d="M119.62 188.07C119.6 189.88 119.58 191.68 119.56 193.49C118.26 191.67 118.15 189.86 119.62 188.07Z" fill="#747477"/>
<path d="M145.439 207.16C143.589 207.05 141.589 207.97 139.939 206.4C141.789 206.53 143.819 205.37 145.439 207.16Z" fill="#B5B3C1"/>
<path d="M150.57 214.87C152.42 214.94 154.44 213.93 156.02 215.71C154.18 215.6 152.19 216.39 150.57 214.87Z" fill="#75747A"/>
</g>
<defs>
<clipPath id="clip0_936_13117">
<rect width="240" height="240" fill="white"/>
</clipPath>
</defs>
</svg>
