<svg width="240" height="240" viewBox="0 0 240 240" fill="none" xmlns="http://www.w3.org/2000/svg">
<g clip-path="url(#clip0_936_17047)">
<g clip-path="url(#clip1_936_17047)">
<rect width="278" height="383" transform="translate(-140 42.4453) rotate(-30.5836)" fill="white"/>
<path d="M84.6014 118.885C84.825 118.301 84.8714 117.446 85.3004 117.167C90.2396 113.88 87.0145 110.928 84.9985 107.913C84.4779 107.668 84.1595 107.271 84.0583 106.704C84.4134 105.097 83.4644 104.086 82.4301 103.1C81.5041 102.184 80.578 101.268 79.6519 100.352C79.0382 99.7945 79.0824 98.9071 78.6372 98.2671C74.1875 90.4269 67.9188 83.7957 63.8128 75.7022C62.917 73.9319 60.1403 75.4308 58.3575 74.6781C57.2935 74.2784 57.1066 73.2265 56.6344 72.385C55.7375 70.7826 54.5249 70.4288 52.9601 71.4456C52.2773 71.8325 51.5945 72.2193 50.9117 72.6061C49.5732 72.0675 48.5896 70.8843 47.1573 70.5266C46.1642 69.4828 45.6054 68.2828 45.8399 66.7978C45.7828 65.5269 46.1025 64.2425 45.7392 62.977C46.4604 60.1508 44.2201 61.7508 43.3141 61.3496L43.2566 61.0826C40.798 60.7711 39.1875 59.164 37.6582 57.4252C35.9595 55.5273 36.3053 53.6505 37.8979 51.9733C38.7421 51.0813 39.566 50.2683 39.8014 49.0253C40.0897 47.2493 38.6835 46.1151 38.1264 44.6631C37.6659 42.7945 39.1733 41.6946 39.8309 40.2606C41.5549 39.6263 43.1738 38.8284 44.4386 37.4454L44.3021 37.342C45.2091 35.9196 47.18 35.8586 48.0452 34.3939C48.203 34.2505 48.3607 34.1071 48.5148 33.9575C49.8508 32.6243 51.4311 31.6904 53.2433 31.1629C53.598 30.7442 53.9526 30.3256 54.3072 29.9069C56.0685 27.737 59.4103 28.7223 61.1448 26.493C62.0758 25.9177 62.895 26.0022 63.2408 27.1107C64.2576 30.3733 66.553 30.522 69.2833 29.6944C70.5105 30.073 71.6976 30.5254 72.7308 31.3114C76.3375 33.8628 76.3481 34.7012 72.8426 41.4894C74.011 42.3627 74.9606 41.5924 75.9505 41.0743C76.4569 40.8419 76.9454 40.9044 77.4252 41.1644C78.7127 42.1262 79.4612 43.7745 81.2143 44.1516C81.6967 44.7697 82.1753 45.3816 82.6515 46.0034C83.8231 48.2546 83.745 50.1739 81.2179 51.4584C81.0526 51.6314 80.6965 51.892 80.7306 51.9638C82.5461 55.6157 81.6208 59.8087 83.0185 63.5318C84.8104 64.7809 85.0042 67.217 86.7166 68.5297C88.4043 70.7769 90.0883 73.018 91.7822 75.2615C92.885 76.1652 93.5663 77.318 93.8225 78.7137C96.799 82.8585 99.7816 86.9998 102.754 91.1384C103.023 92.4848 103.717 93.5882 104.721 94.5086C106.346 97.7382 109.103 98.9937 112.29 97.637C119.597 94.5226 126.425 96.6251 133.308 98.9045C136.883 100.086 140.521 101.106 143.981 102.573C149.376 104.854 151.998 110.111 155.766 114.139C157.108 115.094 157.497 116.713 158.414 117.968C159.106 119.366 160.231 120.533 160.565 122.116C161.024 123.007 161.478 123.902 161.937 124.792C162.122 126.732 163.933 127.928 164.22 129.815C167.607 134.061 172.81 135.393 177.243 137.957C179.188 139.083 180.883 140.38 182.3 142.311C186.875 148.538 189.431 155.508 190.81 163.005C190.691 165.182 191.105 167.48 189.383 169.292C189.946 174.136 188.361 178.359 186.211 182.658C182.351 190.374 176.938 196.567 169.889 201.419C168.149 201.335 166.984 201.965 166.836 203.867C163.337 207.44 158.521 208.84 154.397 211.386C152.498 212.558 150.138 212.456 148.248 212.654C144.795 213.022 141.21 213.267 137.667 213.187C136.216 213.376 134.803 212.981 133.356 212.967C131.989 213.072 130.86 212.393 129.667 211.902C127.877 212.609 126.316 211.792 124.731 211.149C121.903 209.801 119.114 208.322 115.859 208.305C112.382 206.539 108.957 204.733 108.434 200.241C107.185 199.542 107.138 197.864 105.909 197.143C105.203 196.089 104.49 195.038 103.783 193.984C103.084 193.31 103.202 192.463 103.275 191.625C102.083 190.005 102.912 187.926 102.05 186.227C102.048 185.05 101.139 183.922 101.867 182.706C101.189 177.47 100.968 172.115 97.3672 167.721C96.6581 166.86 96.1264 165.862 95.1687 165.232C94.5542 163.881 94.2199 162.339 92.6465 161.672C91.9399 161.537 91.3393 161.257 91.1085 160.498C91.0782 159.471 90.0417 159.373 89.5332 158.795C88.8056 156.8 87.7744 154.984 86.3316 153.42L85.3527 152.259C84.6819 151.577 84.7838 150.731 84.8572 149.893C83.0806 148.217 84.8382 145.489 83.0516 143.81C81.9612 142.163 81.912 140.453 82.7102 138.676L82.2099 136.288C81.1195 134.825 81.1897 133.161 81.391 131.478C81.9318 128.106 81.7007 124.588 83.3833 121.436C83.4234 120.401 84.2155 119.732 84.6065 118.865L84.6014 118.885Z" fill="#333333"/>
<path d="M115.855 208.315C118.662 207.008 122.825 208.336 124.727 211.159C121.261 211.802 118.761 209.425 115.855 208.315Z" fill="#333333"/>
<path d="M81.2116 51.4628C82.3978 49.8336 82.9492 48.0358 82.6453 46.0077C84.9069 46.5945 85.4259 48.0104 84.5199 50.0428C83.8682 51.5151 83.1987 53.0564 81.208 51.4566L81.2116 51.4628Z" fill="white"/>
<path d="M37.6556 57.4356C39.715 58.3593 41.6023 59.5436 43.2539 61.093C39.9729 62.6725 38.4879 61.702 37.6556 57.4356Z" fill="#333333"/>
<path d="M189.371 169.299C190.467 167.347 188.872 164.777 190.798 163.012C192.69 165.648 192.801 167.874 189.371 169.299Z" fill="white"/>
<path d="M166.822 203.875C166.214 202.888 165.655 201.788 166.62 200.817C167.883 199.543 168.84 200.909 169.874 201.427C169.585 203.145 167.913 203.146 166.822 203.875Z" fill="#333333"/>
<path d="M61.1349 26.5074C61.212 27.5574 60.9454 29.0446 59.9137 28.7846C57.7284 28.2281 56.253 30.1036 54.301 29.9276L54.0773 29.7754C54.9558 28.7294 56.0933 28.1073 57.4055 27.7666C58.7448 27.6274 59.5063 25.7891 61.1349 26.5074Z" fill="#333333"/>
<path d="M52.9474 71.4533C54.0488 67.8839 55.808 69.955 57.0023 71.1977C57.7968 72.0327 57.9192 73.499 58.3448 74.6859C57.6929 74.5025 57.0446 74.3253 56.3865 74.1456C55.7035 72.6928 55.5027 70.5703 52.9669 71.6843L52.9412 71.457L52.9474 71.4533Z" fill="#333333"/>
<path d="M82.7045 138.697C82.8216 140.409 82.9289 142.118 83.046 143.83C80.7994 142.264 80.1364 140.591 82.7045 138.697Z" fill="white"/>
<path d="M77.0574 41.4229L75.946 41.0845C78.6075 36.8439 78.9823 41.0295 80.1609 42.2313C78.7341 43.4675 78.0927 41.689 77.0574 41.4229Z" fill="white"/>
<path d="M77.0589 41.4225C78.0943 41.6887 79.1271 41.9647 80.1624 42.2309C80.5112 42.8777 80.8564 43.5183 81.2052 44.1651C78.4941 45.2657 78.1014 42.8468 77.0589 41.4225Z" fill="#333333"/>
<path d="M38.1159 44.6772C39.4775 45.821 41.4271 46.7427 39.7909 49.0393C38.8377 47.7378 37.7397 46.4884 38.1159 44.6772Z" fill="#333333"/>
<path d="M43.3056 61.3541C44.2898 60.2038 45.6257 60.3844 46.8779 60.3384C47.4454 61.525 45.8249 61.9809 46.0885 63.021C46.0327 63.4219 45.8184 63.5402 45.4454 63.376C44.7301 62.7032 44.0209 62.0269 43.3056 61.3541Z" fill="white"/>
<path d="M133.444 212.312C134.985 211.962 136.305 212.653 137.654 213.195C136.017 214.471 134.232 213.971 132.459 213.63C132.443 212.938 133.182 212.802 133.444 212.312Z" fill="white"/>
<path d="M47.1439 70.5342C49.3271 69.545 50.0558 71.1882 50.8982 72.6137C49.1274 72.8575 47.7064 72.4764 47.1439 70.5342Z" fill="#333333"/>
<path d="M81.3847 131.498C82.3157 132.988 82.2516 134.648 82.2036 136.307C79.6782 135.09 80.275 133.341 81.3847 131.498Z" fill="white"/>
<path d="M133.446 212.312C133.118 212.749 132.788 213.195 132.46 213.631C130.657 214.471 130.36 212.865 129.664 211.913C130.998 211.384 132.155 212.506 133.452 212.309L133.446 212.312Z" fill="white"/>
<path d="M45.4461 63.3757C45.7154 63.3503 45.9297 63.232 46.0892 63.0207C46.9829 64.349 47.5163 65.6477 45.8321 66.802L45.6456 66.9959C44.5773 66.122 44.571 65.0218 44.9912 63.8369C45.2042 63.7445 45.3608 63.585 45.4523 63.372L45.4461 63.3757Z" fill="#333333"/>
<path d="M86.3262 153.431C88.2958 154.683 89.2278 156.558 89.5278 158.806C88.4593 157.012 87.3946 155.224 86.3262 153.431Z" fill="#878787"/>
<path d="M86.7098 68.5333C84.5805 67.5338 84.2886 65.1725 83.0117 63.5354C85.2824 64.4346 85.4912 66.8534 86.7098 68.5333Z" fill="#333333"/>
<path d="M72.7263 31.3216C71.3563 31.2532 70.034 31.0814 69.2788 29.7047C71.1209 28.7749 72.139 29.5781 72.7263 31.3216Z" fill="#333333"/>
<path d="M52.9725 71.6808C56.1314 69.6967 56.0967 72.1424 56.3922 74.142C55.0712 73.5764 54.9875 71.2843 52.9725 71.6808Z" fill="#CACACA"/>
<path d="M53.2336 31.1766C51.6595 32.1069 50.0792 33.0409 48.5051 33.9712C49.5872 32.1943 51.0331 31.0471 53.2336 31.1766Z" fill="#8E8E8E"/>
<path d="M44.4253 37.4532C43.4415 39.2974 41.8482 40.1387 39.8176 40.2684C41.3523 39.3279 42.887 38.3875 44.4253 37.4532Z" fill="#4F4F4F"/>
<path d="M164.213 129.819C163.247 128.241 161.717 126.912 161.93 124.796C162.859 126.396 164.313 127.753 164.213 129.819Z" fill="#AFAFAF"/>
<path d="M44.9844 63.8409C45.2034 64.8905 45.4199 65.9501 45.6389 66.9998C44.233 66.1916 43.1264 65.3236 44.9844 63.8409Z" fill="white"/>
<path d="M158.229 118.279C157.406 116.9 156.583 115.522 155.754 114.147C157.694 114.572 157.721 116.555 158.684 117.775C158.752 118.145 158.586 118.302 158.229 118.279Z" fill="#4D4D4D"/>
<path d="M158.228 118.279C158.39 118.116 158.54 117.945 158.683 117.776C159.411 119.178 160.809 120.299 160.55 122.125C159.776 120.843 159.002 119.561 158.228 118.279Z" fill="#D7D7D7"/>
<path d="M92.7703 161.231C94.2742 162.148 95.2265 163.392 95.176 165.244C94.4274 164.19 93.6787 163.136 92.9301 162.081C92.623 161.844 92.5582 161.565 92.7703 161.231Z" fill="#686868"/>
<path d="M101.865 182.724C102.343 183.872 102.387 185.05 102.048 186.245C101.502 185.096 99.9924 183.998 101.865 182.724Z" fill="white"/>
<path d="M48.0358 34.4081C47.5256 36.332 45.5511 36.3867 44.2928 37.3562C44.885 35.5427 46.7347 35.3192 48.0358 34.4081Z" fill="#C4C4C4"/>
<path d="M84.4647 106.53C84.6456 106.991 84.8167 107.451 84.9976 107.912C84.4283 108.123 83.8392 108.329 83.3864 107.719C82.8088 106.94 83.252 106.402 83.8539 105.921C84.1492 105.897 84.3424 105.983 84.4202 106.171C84.509 106.378 84.5241 106.503 84.4622 106.54L84.4647 106.53Z" fill="white"/>
<path d="M93.8098 78.7217C93.1285 77.5689 92.4472 76.4161 91.7695 75.2695C93.4734 75.818 94.0989 77.0037 93.8098 78.7217Z" fill="#606060"/>
<path d="M104.717 94.5193C103.18 93.914 102.585 92.7519 102.75 91.1492C103.413 92.271 104.064 93.4001 104.717 94.5193Z" fill="#747474"/>
<path d="M84.4632 106.531C84.2584 106.326 84.0536 106.121 83.8488 105.915C83.3697 104.978 82.9005 104.042 82.4215 103.105C83.9135 103.761 84.647 104.875 84.4632 106.531Z" fill="#9A9A9A"/>
<path d="M57.4056 27.766C56.2974 28.4377 55.1855 29.1032 54.0774 29.7749C54.6848 28.2702 55.7649 27.565 57.4056 27.766Z" fill="#D8D8D8"/>
<path d="M105.909 197.16C107.51 197.576 107.63 199.195 108.434 200.258C106.76 199.901 106.612 198.308 105.909 197.16Z" fill="#878787"/>
<path d="M103.275 191.641C104.232 192.255 103.713 193.188 103.783 194C102.276 193.502 102.083 192.722 103.275 191.641Z" fill="white"/>
<path d="M92.7687 161.231C92.8212 161.518 92.8761 161.794 92.9285 162.081C91.4189 162.597 90.8349 162.048 91.1105 160.505C91.6633 160.747 92.216 160.989 92.7651 161.225L92.7687 161.231Z" fill="white"/>
<path d="M84.8584 149.909C85.8185 150.529 85.2678 151.465 85.3539 152.276C83.872 151.763 83.6624 150.984 84.8584 149.909Z" fill="white"/>
<path d="M78.6253 98.2746C80.4874 98.2278 79.3942 99.6181 79.6399 100.359C78.4677 100.074 78.0907 99.3934 78.6253 98.2746Z" fill="white"/>
<path d="M84.6 118.886C84.71 119.991 84.3622 120.874 83.3768 121.457C82.5456 120.008 83.5679 119.446 84.6 118.886Z" fill="white"/>
<path d="M121.321 117.62C119.472 115.142 116.799 113.377 115.306 110.597C114.738 108.49 113.656 106.688 112.101 105.174C111.29 104.198 111.672 103.571 112.72 103.194C117.659 101.421 122.507 101.474 127.535 103.219C132.669 105.001 138.176 105.702 142.832 108.812C146.913 111.544 150.323 115.064 152.36 119.43C153.089 120.989 154.605 121.941 154.905 123.637C155.199 125.153 156.287 126.258 156.939 127.587C158.165 129.931 159.885 131.992 160.757 134.529C161.634 136.904 163.982 137.75 165.866 138.66C170.32 140.819 174.79 142.852 178.438 146.307C179.918 147.523 180.065 149.527 181.189 150.962C181.452 154.619 184.555 157.293 184.618 161.136C184.637 162.229 184.451 163.216 184.333 164.248C182.988 168.254 180.95 172.176 182.809 176.58C182.551 177.092 182.297 177.61 182.033 178.126C181.34 179.472 179.926 180.433 179.871 182.122C179.783 183.771 177.487 183.706 177.377 185.344C176.166 186.352 175.296 187.568 175.093 189.177C173.425 190.84 172.645 193.467 169.902 193.976C166.902 193.725 166.11 195.54 166.081 198.066C165.022 198.792 163.969 199.515 162.91 200.241C162.266 201.642 161.013 202.04 159.626 202.198C158.371 202.664 157.271 203.674 155.774 203.263C154.441 203.172 154.477 204.28 154.182 205.098C152.217 206.527 150.009 206.611 147.724 206.239C146.813 205.958 146.01 206.056 145.424 206.904C144.282 207.872 143.092 206.819 141.922 206.992C139.76 205.61 137.643 204.094 135.016 206.115C134.471 206.537 133.73 206.231 133.245 205.807C130.607 203.536 127.847 204.046 125.029 205.36C124.658 205.37 124.296 205.309 123.952 205.194C117.191 204.139 113.331 199.546 110.251 193.982C107.848 189.632 107.763 184.791 107.475 180.06C107.294 177.065 106.568 174.266 105.877 171.413C106.144 169.064 105.129 167.389 103.149 166.218C101.863 164.452 101.241 162.253 99.5021 160.797C92.8219 155.337 89.178 148.308 88.3508 139.707C88.0124 136.177 86.9372 132.774 86.9625 129.138C86.9961 125.162 89.7208 122.373 90.8315 118.89C91.3068 117.388 93.1389 117.785 93.8693 119.545C95.0041 120.262 95.3065 121.58 96.0419 122.584C97.1072 124.104 97.6728 125.952 99.1077 127.22C99.2956 127.368 99.4661 127.543 99.6117 127.733C101.215 128.818 101.328 131.034 102.941 132.121C103.155 132.271 103.279 132.481 103.307 132.741C104.816 133.907 104.953 136.176 106.779 137.087C108.77 142.776 113.422 146.515 117.126 150.916C117.883 151.815 118.053 152.3 117.999 153.369C117.366 166.078 124.594 169.876 134.469 171.7C137.173 172.201 139.438 170.218 141.76 168.996C143.342 168.646 144.643 167.819 145.753 166.67C145.983 166.224 146.113 165.679 146.454 165.352C154.008 158.028 152.934 146.094 144.128 140.703C141.366 139.015 137.967 139.276 134.996 138.155C133.814 137.399 133.748 135.732 132.483 135.049C130.778 131.315 127.614 128.578 125.641 125.027C125.69 124.714 125.713 124.399 125.71 124.083C125.465 123.132 124.945 122.336 124.282 121.624C124.025 121.416 123.804 121.17 123.611 120.9C122.819 119.829 122.489 118.436 121.331 117.623L121.321 117.62Z" fill="#EEEBFF"/>
<path d="M62.6926 66.8636C60.6175 69.2525 58.9281 68.9547 57.6184 66.1161C56.55 65.2423 56.1501 63.9148 55.393 62.8319C54.8821 61.1185 54.0725 59.5648 52.8988 58.2014C52.6049 58.0154 52.2947 57.8726 51.9696 57.747C50.4696 53.9923 48.6886 50.3702 45.6162 47.6619C44.725 46.8756 44.1827 46.0003 43.5851 45.074C44.1995 43.0718 45.5547 41.8277 47.5119 41.2061C48.883 40.9226 50.136 40.3828 51.1929 39.4404C51.5115 39.0598 51.841 38.6977 52.0306 38.2261L52.0439 38.2768C52.9373 36.8456 54.3928 36.2948 55.8802 35.7837C57.4155 34.9432 58.9507 34.1028 60.4859 33.2624C61.4872 34.3766 62.4179 35.5408 63.1736 36.8336C64.2716 38.451 64.9493 40.3334 66.34 41.7527C67.5086 42.584 67.959 43.9402 68.7493 45.0369C69.1601 45.4631 69.4804 45.9344 69.5456 46.5398C70.1678 48.0453 70.7713 49.5618 72.4983 50.1635C73.5892 51.1746 73.7897 52.7871 74.9488 53.7579C75.5557 54.9546 76.7091 56.0291 75.8039 57.5676C74.3967 59.9547 71.7454 60.8025 69.7479 62.4597C68.9158 63.0184 68.0836 63.5771 67.2479 64.1296C65.9113 65.3628 64.3733 66.255 62.6631 66.856L62.6926 66.8636Z" fill="#EEEBFF"/>
<path d="M128.509 146.414C134.884 142.019 142.001 144.186 144.93 148.76C147.518 152.8 145.206 161.14 140.931 163.768C135.987 166.806 127.142 165.636 124.935 161.647C121.782 155.943 123.283 149.528 128.509 146.414Z" fill="white"/>
<path d="M124.551 204.974C127.485 202.68 130.487 202.185 133.452 204.84C134.152 205.472 134.476 205.581 135.293 204.998C138.293 202.857 140.484 203.778 141.921 207.001C139.754 209.277 137.445 206.728 135.132 207.159C133.272 207.506 131.219 206.82 129.25 206.587C127.442 206.753 125.322 207.822 124.545 204.978L124.551 204.974Z" fill="#EEEBFF"/>
<path d="M182.801 176.578C179.927 172.749 180.619 167.155 184.326 164.245C184.085 168.394 184.416 172.605 182.801 176.578Z" fill="#EEEBFF"/>
<path d="M52.0388 38.2388C51.9486 38.6098 51.856 38.9907 51.7659 39.3617C50.9034 40.4067 49.771 41.009 48.4786 41.3548C46.312 41.891 45.5395 44.2625 43.5932 45.0867C42.0619 42.722 42.7457 41.0634 45.4583 40.8568C48.0201 40.664 49.9643 39.3979 52.0388 38.2388Z" fill="#333333"/>
<path d="M166.074 198.079C164.906 196.57 164.767 195.089 166.312 193.757C167.548 192.692 168.788 192.57 169.901 193.986C168.846 195.554 167.995 197.312 166.08 198.075L166.074 198.079Z" fill="#EEEBFF"/>
<path d="M69.771 62.4713C71.1497 60.0927 74.1059 59.4494 75.5692 57.1713C75.9404 56.6676 76.2503 56.1165 76.7418 55.7173C77.9808 56.1725 78.5782 57.1407 77.3373 57.8992C74.8283 59.4406 73.1507 62.3889 69.771 62.4713Z" fill="#333333"/>
<path d="M95.377 91.9447C94.4175 89.3591 91.4496 88.0441 91.1151 85.0306C93.5282 86.6233 94.528 89.2771 95.9658 91.5967C95.9543 92.03 95.7486 92.1349 95.377 91.9447Z" fill="#797979"/>
<path d="M96.9262 114.16C95.267 112.272 93.3596 110.573 92.5142 108.096C92.9907 107.162 93.5004 107.755 94.0059 108.059C95.1673 109.981 96.3349 111.9 97.5 113.829C97.5093 114.284 97.3245 114.41 96.9298 114.166L96.9262 114.16Z" fill="#BEBEBE"/>
<path d="M175.088 189.181C173.559 186.538 174.652 185.458 177.371 185.348C177.309 187.04 177.052 188.614 175.088 189.181Z" fill="#EEEBFF"/>
<path d="M69.5698 46.5505C69.2488 46.1632 68.918 45.7733 68.5971 45.386C67.5389 44.6566 67.2187 43.4075 66.5265 42.4201C66.2684 42.0541 66.245 41.6749 66.4563 41.2825C68.0741 40.6525 69.0868 40.9654 69.1888 42.9206C69.2512 44.1297 69.4457 45.336 69.576 46.5469L69.5698 46.5505Z" fill="#333333"/>
<path d="M78.0225 66.5683C80.6597 67.4934 81.0487 69.3541 81.9459 71.4665C79.3425 70.6552 78.9758 68.7897 78.0225 66.5683Z" fill="#7C7C7C"/>
<path d="M179.866 182.126C178.026 179.409 180.694 179.128 182.028 178.13C182.026 179.854 181.495 181.289 179.866 182.126Z" fill="#EEEBFF"/>
<path d="M87.0055 99.1998C88.4882 99.7702 89.3289 100.712 89.0953 102.623C87.3878 101.884 87.0851 100.608 87.0055 99.1998Z" fill="#5B5B5B"/>
<path d="M52.6768 65.9181C52.8003 66.8487 52.7672 67.5707 52.1677 67.8581C51.0939 68.3757 50.6058 67.4934 50.1688 66.7398C49.905 66.2935 49.8349 65.5238 50.3549 65.4841C51.1505 65.4153 51.979 65.7703 52.6805 65.9243L52.6768 65.9181Z" fill="#333333"/>
<path d="M106.774 137.09C103.799 137.093 104.282 134.332 103.302 132.745C105.484 133.379 105.696 135.578 106.774 137.09Z" fill="#535256"/>
<path d="M124.551 204.974C125.683 206.789 127.679 206.078 129.257 206.584C126.88 208.448 125.117 207.968 123.947 205.197C124.156 205.141 124.354 205.066 124.551 204.974Z" fill="#333333"/>
<path d="M96.9259 114.16C97.1656 114.127 97.3516 114.017 97.4961 113.823C98.261 114.651 99.0259 115.478 99.7847 116.309C99.7029 117.67 101.376 118.421 101.033 119.878C98.6764 118.679 98.3358 116.037 96.9259 114.16Z" fill="#666666"/>
<path d="M160.765 134.525C159.324 132.116 157.883 129.706 156.446 127.302C156.37 126.962 156.499 126.811 156.855 126.877C158.316 129.349 160.41 131.491 160.771 134.522L160.765 134.525Z" fill="#75747B"/>
<path d="M84.3216 76.1502C83.4096 74.9749 81.3626 74.5958 81.7829 72.2651C83.882 72.605 83.8679 74.7458 84.9447 75.8321C84.8523 76.171 84.6467 76.2758 84.3216 76.1502Z" fill="#FBFBFB"/>
<path d="M115.116 139.871L111.959 134.528C113.604 136.533 114.733 137.906 115.862 139.279C115.612 139.478 115.367 139.672 115.116 139.871Z" fill="#9C9C9C"/>
<path d="M99.4931 160.794C101.867 161.925 102.208 164.609 103.758 166.369C104.226 166.552 104.287 166.825 103.935 167.192C101.628 165.637 100.973 162.93 99.4931 160.794Z" fill="#48474A"/>
<path d="M70.7801 76.6437C69.725 76.0045 69.03 75.2528 69.3572 73.9389C70.4685 73.5413 70.6413 74.4845 71.0191 75.0389C71.397 75.5933 71.4795 76.1717 70.7801 76.6437Z" fill="#333333"/>
<path d="M159.619 202.211C160.716 201.563 161.805 200.902 162.902 200.254C163.085 203.039 161.454 202.799 159.619 202.211Z" fill="#333333"/>
<path d="M145.424 206.914C145.128 206.202 144.887 205.425 145.795 205.038C146.917 204.559 147.241 205.589 147.723 206.249C147.034 206.723 146.46 207.606 145.424 206.914Z" fill="#EEEBFF"/>
<path d="M103.299 101.387L105.629 105.329C105.565 105.391 105.496 105.458 105.432 105.52C104.509 104.326 103.576 103.13 102.653 101.936C102.869 101.75 103.089 101.57 103.299 101.387Z" fill="#505050"/>
<path d="M80.7575 88.5427L83.2337 92.7323C81.3114 91.6022 79.898 91.0075 80.7575 88.5427Z" fill="#6B6B6B"/>
<path d="M84.3203 76.1514C84.5223 76.0404 84.7378 75.9381 84.9434 75.8333C86.6653 76.2707 87.0074 77.3731 86.3642 79.6097L84.3203 76.1514Z" fill="#B8B8B8"/>
<path d="M181.189 150.961C178.805 150.28 179.711 147.654 178.438 146.307C180.222 147.344 181.123 148.91 181.189 150.961Z" fill="#5D5C61"/>
<path d="M103.939 167.199C103.877 166.925 103.816 166.652 103.761 166.375C105.507 167.618 107.137 168.904 105.868 171.411C104.808 170.197 105.53 168.165 103.939 167.199Z" fill="#CDCADB"/>
<path d="M77.6083 85.7462L74.7109 80.8438C74.8349 80.7705 74.9589 80.6972 75.0865 80.6301L78.0315 85.6131C77.8892 85.6554 77.7469 85.6977 77.6083 85.7462Z" fill="#919191"/>
<path d="M94.0011 108.061C93.5047 108.07 93.0057 108.089 92.5094 108.098C92.6988 106.523 91.069 105.604 90.6642 103.335C92.6623 104.947 93.1859 106.611 94.0011 108.061Z" fill="#6F6F6F"/>
<path d="M101.033 119.878C100.815 118.618 99.0607 117.899 99.7848 116.309C100.912 118.243 102.045 120.175 103.171 122.109C103.035 122.19 102.899 122.27 102.762 122.351C102.185 121.53 101.604 120.703 101.033 119.878Z" fill="#DADADA"/>
<path d="M66.4513 41.2868L66.657 42.1018C66.5815 42.4976 66.4046 42.552 66.1226 42.2587C64.9541 40.2817 63.7769 38.3181 62.6023 36.3447C62.7231 35.9973 62.9197 35.948 63.1859 36.2004C64.2735 37.8992 65.3673 39.5942 66.4513 41.2868Z" fill="#96949F"/>
<path d="M107.875 128.144C109.536 128.408 109.601 130.06 110.383 131.086C110.706 131.505 110.538 132.14 109.883 132.051C109.511 132.002 109.213 131.468 108.874 131.15C108.889 130.029 107.545 129.368 107.869 128.148L107.875 128.144Z" fill="#ACACAC"/>
<path d="M112.113 105.167C114.298 106.317 115.139 108.263 115.318 110.59C114.249 108.78 113.179 106.971 112.113 105.167Z" fill="#525155"/>
<path d="M154.18 205.108C153.845 204.386 153.113 203.656 153.975 202.879C154.679 202.246 155.271 202.682 155.775 203.279C155.305 203.941 155.296 205.001 154.184 205.114L154.18 205.108Z" fill="#EEEBFF"/>
<path d="M95.3778 91.9443C95.5871 91.8457 95.7792 91.7322 95.9665 91.5964C96.3988 92.6956 98.3046 92.7651 97.938 94.6209C96.1731 94.535 96.1123 92.89 95.3778 91.9443Z" fill="#656565"/>
<path d="M102.761 122.352C102.898 122.271 103.034 122.191 103.17 122.11C104.31 122.666 105.294 123.355 105.682 125.016C103.7 125 103.313 123.581 102.755 122.355L102.761 122.352Z" fill="#C1C1C1"/>
<path d="M62.6929 66.864C64.2236 65.9593 65.7507 65.0484 67.2777 64.1375C66.2415 65.8789 64.7034 66.7712 62.6929 66.864Z" fill="#333333"/>
<path d="M55.508 62.0202C56.2138 63.3843 56.9135 64.752 57.6193 66.1161C55.7072 65.3144 55.4678 63.2398 54.3487 61.8272C54.4166 61.461 54.6388 61.2711 55.0106 61.2353C55.338 61.3931 55.5017 61.6559 55.508 62.0202Z" fill="#424244"/>
<path d="M74.4562 53.4483C72.4419 53.1669 73.1395 51.2912 72.5258 50.182C74.1218 50.6186 74.3363 52.156 75.0337 53.3076C74.907 53.6167 74.7176 53.6784 74.4562 53.4483Z" fill="#515154"/>
<path d="M120.61 134.909L122.653 138.367C122.568 138.435 122.48 138.512 122.394 138.579C121.422 137.557 120.449 136.534 119.483 135.508C119.7 135.012 120.081 134.82 120.61 134.909Z" fill="#5B5B5B"/>
<path d="M63.1849 36.2002C62.9908 36.2397 62.7942 36.2889 62.6013 36.3445C61.8845 35.3297 60.1642 35.0084 60.5004 33.271C62.3293 33.3943 62.4205 35.1049 63.1849 36.2002Z" fill="#505053"/>
<path d="M102.928 132.129C100.986 131.304 100.632 129.263 99.5991 127.741C101.606 128.52 101.922 130.583 102.928 132.129Z" fill="#B0AEBB"/>
<path d="M99.0968 127.227C97.1515 126.412 96.8949 124.322 95.8169 122.852C95.8836 122.47 96.0656 122.396 96.3727 122.632C97.2774 124.163 98.1822 125.694 99.0869 127.225L99.0968 127.227Z" fill="#D8D5E7"/>
<path d="M54.8994 61.4762C54.7171 61.5923 54.5288 61.712 54.3465 61.8281C53.5542 60.4733 52.7643 59.1087 51.972 57.7539C52.181 57.6973 52.3827 57.6283 52.587 57.5494C53.9982 58.4798 54.7772 59.7839 54.9056 61.4725L54.8994 61.4762Z" fill="#333333"/>
<path d="M121.323 117.621C123.125 118.237 123.319 120.079 124.218 121.387C124.098 121.751 123.888 121.791 123.598 121.57C122.844 120.251 122.083 118.936 121.329 117.617L121.323 117.621Z" fill="#AFADBA"/>
<path d="M46.1405 54.8863C46.0278 55.1202 45.8425 55.698 45.7414 55.6825C45.3047 55.6228 44.8776 55.4236 44.499 55.1791C44.4449 55.1442 44.631 54.4404 44.8378 54.3517C45.2921 54.1584 45.7866 54.2592 46.1405 54.8863Z" fill="#333333"/>
<path d="M120.611 134.908C120.234 135.106 119.861 135.31 119.485 135.507C119.115 134.881 117.873 134.21 119.001 133.543C119.999 132.954 120.234 134.228 120.617 134.905L120.611 134.908Z" fill="#959595"/>
<path d="M145.747 166.673C144.95 168.366 143.576 169.069 141.754 169C143.084 168.222 144.414 167.445 145.747 166.673Z" fill="#C9C7D7"/>
<path d="M74.4561 53.4472C74.6465 53.4015 74.8395 53.346 75.0336 53.3066C75.6036 54.1154 76.1761 54.9143 76.7461 55.7231C76.7507 56.5232 76.205 56.8875 75.5734 57.1772C75.9795 55.6995 74.9729 54.647 74.4561 53.4472Z" fill="#8E8C96"/>
<path d="M55.8874 35.7964C54.6066 36.6287 53.3319 37.4573 52.0511 38.2896C52.634 36.3896 54.0738 35.7979 55.8874 35.7964Z" fill="#444345"/>
<path d="M156.847 126.881C156.711 127.02 156.569 127.162 156.438 127.307C155.838 126.122 154.561 125.221 154.915 123.641C155.556 124.725 156.203 125.806 156.847 126.881Z" fill="#B6B4C2"/>
<path d="M132.475 135.046C134.162 135.395 134.27 137.021 134.988 138.152C133.421 137.707 133.215 136.156 132.475 135.046Z" fill="#706F76"/>
<path d="M123.592 121.573C123.805 121.523 124.014 121.466 124.212 121.391L124.243 121.288C125.342 122.128 126.172 123.109 126.071 124.607C125.916 124.741 125.77 124.877 125.626 125.029C124.945 123.876 124.267 122.729 123.586 121.577L123.592 121.573Z" fill="#515154"/>
<path d="M84.3424 94.8947C85.3649 96.1719 86.0515 96.8951 85.9783 98.0589C84.9768 97.3546 84.3552 96.501 84.3424 94.8947Z" fill="#BDBDBD"/>
<path d="M107.875 128.143C108.264 129.126 109.226 129.921 108.88 131.145C108.175 130.249 107.26 129.452 107.318 128.163C107.318 128.121 107.464 128.043 107.539 128.041C107.648 128.043 107.759 128.103 107.875 128.143Z" fill="#CDCDCD"/>
<path d="M96.379 122.629C96.1908 122.707 96.0088 122.781 95.8232 122.849C95.1712 121.746 94.5192 120.643 93.8672 119.54C95.5378 119.89 95.7064 121.463 96.3852 122.626L96.379 122.629Z" fill="#B3B0BE"/>
<path d="M150.192 190.816C148.85 191.559 147.504 192.296 146.166 193.045C144.576 193.934 143.049 193.599 142.188 192.185C141.4 190.894 141.956 189.445 143.242 188.551C146.265 186.464 149.338 184.447 152.39 182.409C154.143 182.234 154.833 180.672 155.974 179.688C157.403 178.978 158.595 177.813 160.221 177.479C161.986 176.461 163.756 175.466 165.506 174.423C166.504 173.833 167.475 173.794 168.226 174.697C168.84 175.438 168.938 176.141 168.625 177.338C167.918 180.005 165.03 180.424 164.048 182.61C163.863 182.92 163.596 183.12 163.24 183.196C161.35 183.251 159.425 183.235 158.377 185.268C157.638 185.997 156.459 186.167 155.943 187.191C155.127 187.749 154.311 188.306 153.485 188.861C152.84 190.288 151.737 190.94 150.182 190.813L150.192 190.816Z" fill="#333333"/>
<path d="M150.191 190.816C151.295 190.164 152.398 189.512 153.495 188.864C154.008 190.015 153.99 191.088 152.733 191.706C151.669 192.226 150.831 191.7 150.191 190.816Z" fill="#EEEBFF"/>
<path d="M163.295 182.763L164.059 182.612C163.666 185.386 162.434 185.805 160.387 183.913C160.901 182.363 162.048 182.421 163.301 182.759L163.295 182.763Z" fill="#EEEBFF"/>
<path d="M160.231 177.481C158.701 178.486 157.164 179.494 155.634 180.499C155.268 180.983 154.846 181.316 154.191 181.084C155.63 178.921 157.683 177.783 160.227 177.475L160.231 177.481Z" fill="#918F99"/>
<path d="M163.294 182.763C162.268 183.009 161.09 182.869 160.38 183.917C160.163 184.045 159.946 184.173 159.725 184.295C159.371 184.814 158.937 185.154 158.257 184.895C159.535 183.237 160.732 181.4 163.294 182.763Z" fill="#4C4C4F"/>
<path d="M158.261 184.892L159.73 184.292C159.086 186.06 157.237 186.258 155.957 187.19C155.9 185.593 157.634 185.798 158.271 184.894L158.261 184.892Z" fill="#CBC9D9"/>
<path d="M154.184 181.089C154.661 180.891 155.147 180.695 155.624 180.497C155.011 181.921 153.929 182.553 152.389 182.409C152.991 181.97 153.586 181.534 154.184 181.089Z" fill="#333333"/>
<path d="M126.075 124.603C125.465 123.5 124.851 122.391 124.248 121.285C125.861 121.836 126.624 122.857 126.075 124.603Z" fill="#DCD9EC"/>
<path d="M54.901 61.4761C54.1281 60.1684 53.3553 58.8607 52.5824 57.553C54.7035 58.298 55.3863 59.9768 55.5012 62.0246C55.3011 61.8418 55.101 61.659 54.8948 61.4798L54.901 61.4761Z" fill="#D0CDDE"/>
<path d="M66.1205 42.2592C66.2974 42.2049 66.478 42.1567 66.6549 42.1023C67.3033 43.1993 67.9516 44.2963 68.5963 45.3871C66.9854 44.9677 66.7869 43.4292 66.1205 42.2592Z" fill="#C1BFCE"/>
<path d="M48.479 41.3541C49.5748 40.6897 50.6706 40.0254 51.7664 39.361C51.2177 40.9229 50.0572 41.4918 48.479 41.3541Z" fill="#D2CFE0"/>
</g>
</g>
<defs>
<clipPath id="clip0_936_17047">
<rect width="240" height="240" fill="white"/>
</clipPath>
<clipPath id="clip1_936_17047">
<rect width="278" height="383" fill="white" transform="translate(-140 42.4453) rotate(-30.5836)"/>
</clipPath>
</defs>
</svg>
