<svg width="240" height="240" viewBox="0 0 240 240" fill="none" xmlns="http://www.w3.org/2000/svg">
<g clip-path="url(#clip0_936_15082)">
<rect width="1350" height="585" transform="translate(-18 -85)" fill="white"/>
<path d="M132.577 45.6025C135.04 46.5591 137.04 43.887 139.492 44.7338C141.801 45.8664 144.406 44.5798 146.737 45.5915C151.398 45.5915 156.114 46.5591 160.687 44.8437C162.6 45.7344 164.81 44.5908 166.69 45.6904C169.35 45.9323 171.087 47.6698 169.768 49.913C167.811 53.2448 169.669 55.818 170.274 58.688C171.307 60.6123 171.274 62.5587 170.329 64.505C170.307 67.2321 170.285 69.9591 170.263 72.6972C170.834 75.0724 170.889 77.4476 170.23 79.8228C170.505 91.9406 170.779 104.058 171.043 116.165C170.516 122.4 169.658 128.635 171.043 134.87C171.164 135.255 171.285 135.64 171.406 136.025C173.044 138.004 173.044 139.983 171.406 141.963C170.944 150.144 172.857 158.215 171.659 166.583C171.032 170.938 172.077 176.106 172.483 180.889C173.022 187.168 171.142 189.983 164.832 191.127C163.502 191.369 162.117 191.292 160.753 191.369C157.587 192.105 154.432 191.6 151.277 191.303C146.605 190.511 141.856 193.227 137.216 190.951C133.709 189.323 130.214 189.939 126.718 190.973C123.189 191.369 119.671 191.754 116.142 192.149C113.712 189.631 111.085 190.742 108.468 191.721C106.314 191.973 104.093 191.27 101.993 192.204C100.85 192.193 99.7066 192.171 98.5633 192.16C95.9798 190.258 93.2094 190.159 90.3182 191.292C89.5376 191.171 88.7571 191.061 87.9655 190.94C86.0747 190.06 84.6345 190.885 83.3153 192.16C78.9949 190.797 74.1907 193.018 70.277 191.336C64.3076 188.774 64.2196 182.803 64.4505 177.15C64.5604 173.258 64.7693 169.354 64.3296 165.472C64.0877 164.978 63.8019 164.505 63.4611 164.065C63.505 162.163 63.549 160.249 63.593 158.347C64.9012 155.994 65.3849 153.652 63.571 151.309C63.3401 148.56 62.8674 145.778 64.3735 143.194C63.604 140.412 64.5055 137.223 62.3397 134.771C63.0873 133.418 63.505 132.033 63.3951 130.427C62.4057 115.561 63.8898 100.573 61.2184 85.7717C60.9436 84.2762 61.9989 82.5498 62.4387 80.9334C62.7575 78.1953 63.527 75.4463 62.0649 72.7962C60.3169 72.0594 61.4163 70.344 60.8336 69.2004C60.5368 68.0458 61.0865 67.2211 61.878 66.4953C63.2412 64.7359 63.2632 62.9435 62.0429 61.1072C60.24 60.3264 62.6036 59.5347 62.0429 58.743C61.3833 56.3458 61.4163 53.9486 62.0209 51.5514C62.4167 48.6044 64.8353 47.2959 66.8141 45.6244C69.5185 44.4808 72.5087 45.9653 75.2021 44.7118C86.0857 45.0087 96.9692 45.2946 107.853 45.5915C110.249 45.0087 112.635 44.9427 115.021 45.6244C115.361 45.7894 115.702 45.7784 116.032 45.5915C118.758 44.7777 121.54 45.3825 124.299 45.1956C127.047 45.3935 129.84 44.7667 132.566 45.5915L132.577 45.6025Z" fill="#333333"/>
<path d="M171.055 134.87C167.603 128.635 169.736 122.4 171.055 116.165C171.055 122.4 171.055 128.635 171.055 134.87Z" fill="#333333"/>
<path d="M126.719 190.984C130.215 187.663 133.711 187.685 137.218 190.962C133.722 190.775 130.226 192.864 126.719 190.984Z" fill="#333333"/>
<path d="M109.095 191.248C112.767 187.74 113.801 187.883 116.153 192.16C113.845 192.16 111.547 192.171 109.238 192.182C108.766 192.039 108.59 191.863 108.7 191.632C108.821 191.38 108.952 191.248 109.084 191.248H109.095Z" fill="#333333"/>
<path d="M64.4395 164.263C66.5723 168.563 66.4953 172.862 64.4615 177.162C62.5047 175.985 63.725 174.127 63.4831 172.576C64.7803 169.915 63.2412 166.935 64.4395 164.263Z" fill="#333333"/>
<path d="M63.584 151.309C68.3771 153.64 66.2884 155.993 63.606 158.347C63.606 156.004 63.595 153.651 63.584 151.309Z" fill="#333333"/>
<path d="M90.3184 191.292C93.1767 190.522 96.3318 187.047 98.5635 192.16C95.8151 191.874 93.0667 191.577 90.3184 191.292Z" fill="#333333"/>
<path d="M171.418 141.973C171.418 139.994 171.418 138.014 171.418 136.035C174.925 138.014 174.892 139.994 171.418 141.973Z" fill="#DADADA"/>
<path d="M151.277 191.325C154.443 190.104 157.599 191.467 160.754 191.39C157.577 193.062 154.421 192.798 151.277 191.325Z" fill="#BEBEBE"/>
<path d="M170.34 64.505C170.318 62.5697 170.296 60.6233 170.285 58.688C173.121 60.6013 173.121 62.5367 170.34 64.505Z" fill="white"/>
<path d="M62.3516 134.782C66.0234 136.861 64.1435 140.291 64.3854 143.205C62.6154 140.665 63.4289 137.498 62.3516 134.782Z" fill="#A4A4A4"/>
<path d="M75.224 44.7117C72.6185 46.7021 69.6613 45.5145 66.8359 45.6244C69.4524 43.7221 72.4096 44.8547 75.224 44.7117Z" fill="#A9A9A9"/>
<path d="M64.4388 164.263C64.175 167.045 65.6701 170.025 63.4824 172.576C63.4824 169.739 63.4824 166.902 63.4824 164.065C63.8012 164.164 64.12 164.219 64.4498 164.252L64.4388 164.263Z" fill="#D3D3D3"/>
<path d="M124.42 45.6242C121.628 45.6242 118.835 45.6132 116.043 45.6022C118.571 43.4579 121.474 45.0304 124.189 44.7885C124.607 44.8764 124.783 45.0194 124.717 45.2393C124.629 45.4922 124.53 45.6132 124.42 45.6132V45.6242Z" fill="#A0A0A0"/>
<path d="M124.421 45.6241C124.344 45.3492 124.278 45.0633 124.201 44.7884C127.016 44.8104 129.94 43.7657 132.578 45.6021C129.863 45.6021 127.136 45.6131 124.421 45.6241Z" fill="#D3D3D3"/>
<path d="M62.0762 72.7959C64.2639 75.413 63.8351 78.1511 62.45 80.9331C62.329 78.217 62.1971 75.512 62.0762 72.7959Z" fill="#484848"/>
<path d="M83.3262 192.16C83.9528 188.235 85.8547 189.169 87.9764 190.94C86.2394 190.643 85.2171 193.029 83.3262 192.16Z" fill="#333333"/>
<path d="M170.242 79.8228C170.242 77.4476 170.264 75.0725 170.275 72.6973C171.935 75.0834 171.616 77.4586 170.242 79.8228Z" fill="#C2C2C2"/>
<path d="M109.096 191.248C109.14 191.556 109.195 191.874 109.239 192.182C106.82 192.182 104.402 192.204 101.994 192.204C104.138 190.258 106.732 191.556 109.096 191.248Z" fill="#929292"/>
<path d="M115.043 45.6354C112.657 45.6244 110.261 45.6134 107.875 45.6024C110.272 44.0079 112.668 44.1069 115.043 45.6354Z" fill="#B1B1B1"/>
<path d="M146.737 45.5915C144.285 45.6355 141.735 46.5372 139.492 44.7338C141.933 44.7668 144.494 43.8211 146.737 45.5915Z" fill="#A2A2A2"/>
<path d="M62.0441 51.5518C62.0441 53.9489 62.0551 56.3461 62.0661 58.7433C60.5929 56.3461 60.395 53.9489 62.0441 51.5518Z" fill="#ABABAB"/>
<path d="M62.4288 66.9349C61.9012 67.6937 61.3735 68.4524 60.8568 69.2112C59.3067 67.3968 59.6365 66.2092 62.0221 65.7144C62.4618 65.8683 62.6707 66.0992 62.6487 66.4181C62.6157 66.77 62.5498 66.9459 62.4288 66.9459V66.9349Z" fill="white"/>
<path d="M166.69 45.7011C164.678 45.4812 162.501 46.4929 160.688 44.8544C162.732 44.8104 164.942 43.6228 166.69 45.7011Z" fill="#5D5D5D"/>
<path d="M62.4282 66.9352C62.2963 66.5283 62.1534 66.1214 62.0215 65.7146C62.0325 64.1861 62.0545 62.6466 62.0655 61.1182C64.2532 62.9325 63.6815 64.9119 62.4282 66.9352Z" fill="#707070"/>
<path d="M135.073 55.0811C136.173 55.0481 137.272 55.0261 138.372 54.9931C140.405 52.6179 142.978 53.3657 145.484 53.7835C148.156 54.1904 150.827 54.5972 153.499 55.0041C155.862 54.4653 158.215 54.1024 160.512 55.257C160.71 55.6089 160.71 55.9718 160.512 56.3237C159.05 57.8411 160.051 58.9407 161.139 60.0404C161.304 60.8101 161.293 61.5579 161.029 62.3056C158.918 64.6478 159.182 66.957 161.084 69.2552C161.59 70.7727 160.864 72.4551 161.7 73.9286C161.15 75.4021 160.336 76.8206 160.765 78.4811C161.414 80.5154 159.171 82.7366 161.172 84.694C161.326 85.7056 161.304 86.7173 161.194 87.7399C159.842 90.1151 159.963 92.5673 160.831 95.0524C160.732 95.4373 160.633 95.8221 160.534 96.218C159.919 100.342 158.643 104.564 162.293 108.05C162.524 109.161 162.502 110.26 162.293 111.36C160.106 115.56 161.359 119.563 162.975 123.555C162.865 127.733 163.426 131.879 163.36 136.057C163.459 136.937 163.624 137.795 164.184 138.532C164.151 139.235 164.129 139.95 164.096 140.654C163.074 143.59 163.876 146.614 163.624 149.594C162.502 152.541 163.744 155.323 164.217 158.171C164.239 160.216 165.108 162.195 164.745 164.274C164.635 167.727 164.723 171.19 164.393 174.643C164.272 177.062 164.492 179.493 164.481 181.912C162.997 183.44 161.018 182.747 159.259 183.055C159.006 183.088 158.742 183.132 158.49 183.165C157.665 183.187 156.841 183.198 156.005 183.22C154.444 183.902 152.883 184.309 151.344 183.176C148.606 183.176 145.869 183.176 143.132 183.165C142.615 183.484 142.065 183.627 141.461 183.605C138.558 183.066 135.667 182.637 132.754 183.55C129.972 183.385 127.158 183.957 124.399 183.187C124.025 183.066 123.64 182.945 123.266 182.824C121.299 182.33 119.32 181.736 117.451 183.132C116.626 184.661 115.197 184.001 113.977 184.078C111.306 182.747 108.315 184.276 105.622 183.121C104.841 183.132 104.072 183.154 103.291 183.165C100.928 183.682 98.5641 183.913 96.2225 182.989L96.3104 182.813C93.9138 182.088 91.5173 182.121 89.1097 182.791L89.2306 183.044C87.2958 184.54 85.3279 184.43 83.3271 183.154C82.1948 183.462 81.0515 183.781 79.9191 184.089C78.0832 182.824 75.8516 184.133 73.9717 183.143C71.8169 181.989 73.411 179.778 72.5865 178.25C71.1903 176.425 72.2567 174.225 71.663 172.268C71.5971 171.916 71.641 171.586 71.784 171.267C72.8173 166.022 72.7734 160.722 72.4216 155.422C72.2787 154.817 72.3336 154.234 72.5865 153.673C72.1907 147.801 71.8059 141.929 71.4102 136.068C70.3218 134.507 70.3218 132.945 71.4102 131.373C71.4102 129.031 71.4102 126.678 71.4102 124.335C68.1561 120.619 72.5645 116.297 70.4757 112.492C72.7954 108.831 70.9045 104.696 71.784 100.869C72.4326 98.5052 72.5425 96.152 71.718 93.8098L71.4212 93.9198C70.8055 91.1378 70.8385 88.3557 71.3992 85.5736L71.696 85.6726C72.6634 83.9352 72.1138 82.1098 71.9708 80.3174C72.2567 78.723 71.9708 77.3155 70.6296 76.2598C69.5633 69.827 71.685 63.2293 69.4863 56.8185C68.8927 55.0921 70.4757 54.0474 72.2677 54.0144C74.0046 53.9924 75.7306 54.1134 77.4676 54.1794C78.9297 55.6419 80.5128 55.9938 82.2937 54.7402C83.7888 54.3333 85.4159 54.9931 86.856 54.1684C87.6036 54.0584 88.3511 53.9485 89.0987 53.8275C90.1101 53.2557 91.2094 53.4316 92.2868 53.4756C93.9468 54.0254 95.288 56.8295 97.3988 54.1904C98.5751 54.1904 99.7404 54.1684 100.917 54.1574C102.566 56.1477 104.435 55.4659 106.325 54.6082C108.172 54.5643 110.019 54.6082 111.866 54.5862C113.845 55.1031 115.89 55.9168 117.374 53.6296C118.154 53.3987 118.924 53.3987 119.672 53.7615C120.441 53.7615 121.222 53.7615 121.991 53.7725C122.464 53.5086 122.937 53.4976 123.409 53.7395C125.179 56.4446 127.224 54.8062 129.214 54.1024C131.237 54.0254 133.304 53.6516 135.073 55.0811Z" fill="#EEEBFF"/>
<path d="M163.25 175.908C163.404 171.982 161.964 167.936 164.096 164.142C164.569 163.515 164.998 163.548 165.405 164.208C167.46 168.123 166.944 172.037 165.394 175.952C164.668 176.645 163.953 176.59 163.25 175.908Z" fill="#333333"/>
<path d="M161.842 107.929C157.434 105.444 156.928 101.078 160.512 96.229C162.942 99.0111 161.414 102.398 161.941 105.477C162.502 106.324 162.546 107.137 161.831 107.929H161.842Z" fill="#EEEBFF"/>
<path d="M72.5744 153.685C72.7174 154.069 72.8493 154.454 72.9922 154.828C73.7617 159.161 73.1681 163.526 73.322 167.87C73.366 169.013 73.322 170.234 71.64 170.168C69.1994 167.023 67.9902 163.801 71.0793 160.359C72.8383 158.402 69.3094 155.279 72.5854 153.685H72.5744Z" fill="#333333"/>
<path d="M161.875 123.17C159.302 119.299 157.631 115.417 161.71 111.448C162.534 111.448 162.567 112.174 162.853 112.668L163.293 113.801C163.447 116.407 163.381 119.035 163.612 121.641C163.612 122.191 163.513 122.719 163.304 123.236C162.809 123.588 162.336 123.566 161.875 123.17Z" fill="#EEEBFF"/>
<path d="M70.475 112.492C72.8606 116.275 71.1786 120.388 71.4095 124.335C67.6717 123.566 67.2759 121.125 68.9799 118.419C70.2002 116.484 70.464 114.582 70.475 112.481V112.492Z" fill="#333333"/>
<path d="M162.842 123.137C162.974 122.763 163.106 122.389 163.238 122.015C163.535 121.465 163.865 121.454 164.217 121.971C164.59 125.633 163.359 129.415 165.899 132.923C167.317 134.881 163.766 136.299 164.184 138.52C163.755 138.092 163.315 137.663 162.886 137.234C162.205 132.538 162.282 127.832 162.842 123.137Z" fill="#333333"/>
<path d="M160.697 69.2329C156.289 67.0007 156.3 64.6475 160.522 62.1953C161.643 62.6242 161.049 63.9217 161.731 64.5705C161.731 65.3402 161.731 66.11 161.72 66.8797C161.104 67.5505 161.533 68.6721 160.697 69.2439V69.2329Z" fill="#EEEBFF"/>
<path d="M71.6305 170.168C74.148 165.242 71.8943 159.886 72.9827 154.828C74.9615 159.633 73.6093 164.648 73.7962 169.552C73.8402 170.608 72.7518 171.048 71.7734 171.278C71.5865 170.927 71.5315 170.553 71.6305 170.168Z" fill="#D1CFE0"/>
<path d="M163.228 158.314C162.799 155.631 160.424 152.937 163.228 150.254C163.437 149.671 163.755 149.583 164.195 150.045C163.019 153.058 166.79 155.367 165.382 158.413C164.635 159.04 163.92 159.04 163.239 158.314H163.228Z" fill="#333333"/>
<path d="M160.81 95.0633C157.369 92.798 157.358 90.4338 160.623 87.9927C161.568 88.5095 161.085 89.6751 161.689 90.3459C161.623 91.9623 162.855 93.8207 160.81 95.0742V95.0633Z" fill="#EEEBFF"/>
<path d="M83.3262 183.176C85.294 183.143 87.2618 183.099 89.2297 183.066C87.3608 188.19 85.371 186.827 83.3262 183.176Z" fill="#333333"/>
<path d="M160.677 84.4739C155.708 82.4066 160.446 80.4823 160.765 78.5029C162.843 79.7345 161.656 81.6589 161.765 83.2973C161.535 83.8141 161.172 84.21 160.677 84.4739Z" fill="#EEEBFF"/>
<path d="M97.3876 54.1905C97.2776 55.4331 97.6294 57.0825 95.8265 57.2804C93.7267 57.5004 92.9242 56.0489 92.6934 54.1795C93.8037 53.0139 95.046 53.3658 96.2992 53.8496C96.662 53.9596 97.0248 54.0805 97.3766 54.2015L97.3876 54.1905Z" fill="#EEEBFF"/>
<path d="M105.61 55.1249C105.456 56.3345 105.127 57.4671 103.598 57.3241C101.752 57.1482 101.081 55.8397 100.916 54.1572C102.466 54.1572 104.005 54.1682 105.555 54.1792C105.995 54.3552 106.149 54.5531 106.017 54.773C105.885 55.0039 105.753 55.1139 105.61 55.1139V55.1249Z" fill="#EEEBFF"/>
<path d="M141.954 182.781C142.339 182.901 142.724 183.022 143.109 183.143C142.724 185.596 141.02 185.398 139.261 185.057C137.799 184.771 136.348 184.441 134.897 184.133C134.457 183.484 134.567 182.956 135.226 182.539C137.48 182.429 139.734 182.088 141.965 182.781H141.954Z" fill="#333333"/>
<path d="M82.1512 55.1909C81.9973 56.4004 81.6236 57.4891 80.1175 57.3241C78.2925 57.1262 77.6219 55.8396 77.457 54.1792H80.9639C81.5026 54.3441 81.8984 54.685 82.1512 55.1909Z" fill="#EEEBFF"/>
<path d="M71.3983 131.384V136.079C69.8152 135.881 68.2981 135.364 68.496 133.462C68.6499 131.967 70.0131 131.505 71.3983 131.384Z" fill="#333333"/>
<path d="M164.217 121.982C163.887 121.993 163.569 122.015 163.239 122.026C162.788 119.277 161.425 116.528 163.294 113.801C165.119 116.352 163.821 119.266 164.217 121.982Z" fill="#474749"/>
<path d="M163.248 175.908C163.963 175.919 164.677 175.941 165.392 175.952C165.392 178.294 165.392 180.647 165.392 182.989C164.963 183.363 164.501 183.418 163.996 183.143C163.71 182.659 163.721 182.187 164.029 181.714C162.281 179.976 164.347 177.722 163.248 175.908Z" fill="#49494B"/>
<path d="M134.931 183.176C134.92 183.495 134.909 183.814 134.898 184.144C131.402 183.693 127.73 185.167 124.377 183.176C127.488 183.044 130.599 182.923 133.71 182.791C134.271 182.417 134.678 182.549 134.931 183.176Z" fill="#424143"/>
<path d="M164.184 150.045C163.865 150.133 163.546 150.199 163.217 150.254C163.425 147.043 161.93 143.689 164.085 140.654C164.118 143.788 164.151 146.911 164.173 150.045H164.184Z" fill="#84828B"/>
<path d="M72.8056 79.7677C72.4868 81.7471 73.5202 83.9793 71.6953 85.6727C71.3435 83.3085 70.9807 80.9443 70.6289 78.5801C71.8932 77.9863 72.9925 77.7004 72.8056 79.7677Z" fill="#D8D6E7"/>
<path d="M71.6634 172.29C73.7412 174.005 72.4769 176.249 72.5869 178.272C69.6736 176.678 70.4321 174.522 71.6634 172.29Z" fill="#333333"/>
<path d="M163.227 158.314C163.941 158.347 164.656 158.38 165.37 158.413C165.37 160.348 165.392 162.284 165.403 164.219C164.964 164.197 164.535 164.175 164.095 164.153C165.15 162.009 162.567 160.403 163.227 158.325V158.314Z" fill="#525255"/>
<path d="M72.8056 79.7676C72.3549 78.8659 71.5414 78.635 70.6289 78.58C70.6289 77.8102 70.6289 77.0295 70.6289 76.2598C73.1464 76.3147 75.1033 76.7106 72.8056 79.7676Z" fill="#EEEBFF"/>
<path d="M145.496 53.7835C143.099 54.0364 140.614 53.7505 138.383 54.9931C140.197 51.2764 142.879 52.6949 145.496 53.7835Z" fill="#5E5E62"/>
<path d="M135.073 55.0811C132.676 55.1141 130.269 55.1581 127.872 55.191C126.63 55.257 126.267 54.7512 126.861 53.6296C127.751 53.3767 128.664 53.4207 129.576 53.4207C131.335 53.6956 133.259 52.7719 134.875 54.1134C134.93 54.4323 134.996 54.7622 135.073 55.0811Z" fill="#D6D3E4"/>
<path d="M105.6 183.121C108.403 183.242 111.371 181.945 113.955 184.078C111.162 183.781 108.194 185.112 105.6 183.121Z" fill="#474648"/>
<path d="M71.3896 85.5737C71.3896 88.3558 71.4006 91.1378 71.4116 93.9199C69.7846 91.1378 69.9714 88.3558 71.3896 85.5737Z" fill="#5E5D61"/>
<path d="M151.32 183.166C152.87 183.177 154.431 183.199 155.982 183.21C154.409 184.991 152.837 187.256 151.32 183.166Z" fill="#333333"/>
<path d="M96.3094 53.8385C95.1111 53.9484 93.9018 54.0584 92.7035 54.1684C91.5052 54.0584 90.2959 53.9375 89.0977 53.8275C91.5052 52.255 93.9128 52.2001 96.3204 53.8275L96.3094 53.8385Z" fill="#8D8B95"/>
<path d="M164.094 182.912C164.523 182.945 164.963 182.967 165.392 183C163.127 184.815 160.807 184.683 158.466 183.165L158.301 182.846C160.236 182.231 162.17 182.11 164.094 182.912Z" fill="#333333"/>
<path d="M162.854 112.669C162.48 112.262 162.096 111.855 161.711 111.448C161.755 110.271 161.799 109.106 161.843 107.929C161.876 107.115 161.909 106.291 161.953 105.477C164.14 107.632 162.777 110.238 162.854 112.669Z" fill="#BEBCCB"/>
<path d="M96.2129 182.989C98.5655 183.044 100.918 183.11 103.282 183.165C100.885 184.76 98.5325 184.606 96.2129 182.989Z" fill="#5A5A5E"/>
<path d="M89.0977 182.803C91.5052 181.329 93.9018 181.197 96.2984 182.825C93.9018 182.825 91.5052 182.814 89.0977 182.803Z" fill="#A3A1AD"/>
<path d="M160.698 69.2333C161.039 68.4416 161.38 67.6609 161.72 66.8691C161.72 69.2223 161.709 71.5865 161.698 73.9397C160.093 72.6422 160.863 70.8388 160.709 69.2333H160.698Z" fill="#C8C5D5"/>
<path d="M160.677 84.474C161.04 84.0781 161.402 83.6822 161.765 83.2974C161.743 85.6506 161.721 87.9928 161.699 90.346C161.347 89.5652 160.985 88.7735 160.633 87.9928C160.644 86.8162 160.666 85.6506 160.677 84.474Z" fill="#D3D1E2"/>
<path d="M160.655 59.8425C159.49 59.6886 158.424 59.3807 158.545 57.8742C158.643 56.6976 159.578 56.4997 160.512 56.3237C160.611 57.0605 160.71 57.7862 160.809 58.523C161.183 59.0178 161.161 59.4577 160.655 59.8425Z" fill="#EEEBFF"/>
<path d="M160.512 55.2572L153.498 55.0043C155.895 53.4428 158.247 53.1459 160.512 55.2572Z" fill="#ADABB9"/>
<path d="M105.611 55.1248C105.589 54.8059 105.567 54.498 105.545 54.1791C107.931 54.0362 110.316 53.8822 112.702 53.7393C112.79 53.9702 112.867 54.2011 112.955 54.432C112.834 54.641 112.702 54.8499 112.581 55.0698C110.261 55.0918 107.942 55.1028 105.611 55.1248Z" fill="#C8C5D5"/>
<path d="M71.707 93.8208C73.2901 96.163 73.3341 98.5162 71.773 100.88C71.751 98.5272 71.729 96.174 71.707 93.8208Z" fill="#D9D6E8"/>
<path d="M129.082 53.8059C128.28 53.9268 127.488 54.0478 126.686 54.1797C125.509 55.1364 124.344 54.9165 123.179 54.1578C122.783 54.0258 122.387 53.9048 121.98 53.7729C124.113 51.9145 126.631 53.1791 128.961 52.8712C129.357 53.0361 129.5 53.2231 129.401 53.454C129.291 53.6849 129.181 53.8059 129.06 53.8059H129.082Z" fill="#5A595E"/>
<path d="M119.672 53.7503C118.892 53.9043 118.111 54.0473 117.331 54.2012C115.759 55.3448 114.176 55.2348 112.604 54.2012L112.702 53.7394C115.033 52.2659 117.353 52.3318 119.672 53.7503Z" fill="#4E4E50"/>
<path d="M82.1502 55.1911C81.7544 54.8502 81.3587 54.5093 80.9629 54.1685C82.9197 54.1685 84.8876 54.1685 86.8444 54.1685C85.5362 55.7189 83.7333 54.9492 82.1502 55.1911Z" fill="#D1CFDF"/>
<path d="M73.9707 183.155C75.9825 183.287 78.2142 182.055 79.9182 184.1C77.9174 183.902 75.7297 184.837 73.9707 183.155Z" fill="#333333"/>
<path d="M129.081 53.8055C129.048 53.4976 129.015 53.1787 128.971 52.8708C130.972 53.1127 133.269 51.9251 134.874 54.1024C132.939 54.0034 131.015 53.9044 129.081 53.7945V53.8055Z" fill="#414142"/>
<path d="M117.428 183.121C119.264 181.032 121.22 181.351 123.243 182.813C121.308 182.912 119.374 183.022 117.428 183.121Z" fill="#A7A5B1"/>
<path d="M160.655 59.8425C160.71 59.4026 160.754 58.9628 160.809 58.5229C162.92 60.2604 161.447 62.5476 161.733 64.5599C161.326 63.7681 160.93 62.9764 160.523 62.1847C160.567 61.404 160.611 60.6232 160.655 59.8425Z" fill="#C2C0CF"/>
<path d="M147.869 64.4284C148.21 64.5494 148.562 64.6373 148.914 64.6923C150.75 65.0442 151.794 66.0228 151.541 68.0352C150.838 69.5636 152.003 70.4983 152.673 71.576C153.432 73.3683 152.893 75.2597 153.08 77.0961C153.168 77.6019 153.201 78.1077 153.179 78.6135C152.761 80.263 152.278 81.9234 152.564 83.6608C152.597 83.9027 152.63 84.1447 152.652 84.3756C152.652 86.7288 152.63 89.093 152.619 91.4462C153.388 95.7897 153.234 100.133 152.695 104.488C152.652 106.368 152.619 108.248 152.575 110.14C153.3 112.163 153.355 114.186 152.542 116.21C150.948 118.486 149.353 120.762 147.748 123.027C145.088 124.369 142.329 123.709 139.591 123.379C133.402 124.787 127.026 121.697 120.88 124.182C116.571 123.225 112.217 123.962 107.886 123.731C105.533 123.544 103.137 124.16 100.828 123.302C95.6503 124.93 90.3184 124.16 85.0526 124.336C82.634 124.413 80.7761 123.797 81.018 120.905C81.1389 119.399 80.2594 118.431 79.6218 117.287C78.8742 116.243 78.0827 115.22 78.4455 113.791C78.4785 109.095 79.336 104.389 78.4455 99.6933C76.4557 96.5704 76.4557 93.4365 78.4455 90.3135C78.4675 89.9287 78.5005 89.5438 78.5224 89.1589C79.5778 86.8717 79.3909 84.5515 78.7643 82.2093C78.3795 79.8231 78.9292 77.4479 78.8522 75.0618C78.2366 73.3463 78.9622 71.8619 79.6218 70.3554C79.5338 67.9802 79.5338 65.649 82.2822 64.5714C83.8103 64.1755 85.7232 65.4071 86.8995 63.4937C89.1202 61.6903 91.5607 63.6367 93.8584 63.0759C96.2439 62.8669 98.6185 62.9439 100.96 63.4827C104.071 62.3721 107.16 65.9349 110.283 63.5377C112.47 63.5157 114.636 63.7027 116.802 63.9556C119.748 63.9556 122.694 63.9556 125.63 63.9556C128.653 63.9556 131.676 63.9556 134.699 63.9556C136.733 63.9556 138.767 63.9556 140.801 63.9556C143.153 64.1645 145.561 63.4937 147.869 64.4174V64.4284Z" fill="#333333"/>
<path d="M108.041 146.57C112.196 148.989 109.921 151.067 107.392 152.409C105.523 153.398 103.138 153.42 100.983 153.871C99.3999 155.982 100.983 158.545 99.9826 160.733C99.6198 162.723 99.8726 165.098 96.8934 165.384C94.211 165.637 92.6499 164.296 91.7155 161.942C92.1662 159.193 92.8148 156.433 91.4186 153.75C88.6483 153.882 85.702 156.543 83.1845 152.991C82.2061 151.617 80.3592 150.649 81.1617 148.615C81.9093 146.702 83.6572 146.559 85.4822 146.592C87.5379 146.636 89.7366 147.141 91.4406 145.371C93.2106 142.402 91.2537 138.971 92.6169 135.958C98.0807 134.001 99.4769 134.804 99.7517 140.115C99.8396 141.83 99.8067 143.568 99.8177 145.283C102.335 147.141 105.468 145.096 108.052 146.559L108.041 146.57Z" fill="#333333"/>
<path d="M144.307 147.383C143.824 149.593 142.329 151.232 139.349 151.309C136.15 151.397 135.392 148.527 135.227 146.701C135.007 144.37 136.843 142.853 139.767 143.018C142.449 143.172 144.351 143.655 144.307 147.383Z" fill="#363636"/>
<path d="M126.827 166.539C123.837 167.176 122.276 165.252 122.166 162.547C122.067 160.304 123.782 158.269 126.102 158.522C128.367 158.775 131.192 159.358 131.39 162.668C131.588 165.747 129.851 166.769 126.816 166.539H126.827Z" fill="#353535"/>
<path d="M78.4364 90.3355V99.7153C74.7755 99.9572 75.1053 97.3951 75.1053 95.0199C75.1053 92.6447 74.7755 90.0826 78.4364 90.3245V90.3355Z" fill="#EEEBFF"/>
<path d="M100.959 63.5042C98.8265 65.5495 96.287 64.263 93.9124 64.3619C93.1209 63.8451 92.7031 63.1304 92.7031 62.1737C96.298 57.3793 98.5407 61.0081 100.959 63.5152V63.5042Z" fill="#EEEBFF"/>
<path d="M82.2838 64.5929L79.6234 70.377C78.2712 68.7055 76.7101 66.9901 78.1722 64.7029C79.3595 62.8335 80.8876 64.0211 82.2838 64.5929Z" fill="#EEEBFF"/>
<path d="M151.542 68.0347C150.662 66.9241 149.794 65.8135 148.914 64.6919C150.233 63.0864 151.948 62.6576 153.18 64.373C154.312 65.9454 152.872 67.144 151.542 68.0347Z" fill="#EEEBFF"/>
<path d="M162.842 123.137C162.853 127.832 162.864 132.539 162.886 137.234C160.797 132.67 162.391 127.843 161.874 123.159C162.193 123.159 162.523 123.137 162.842 123.137Z" fill="#D8D5E7"/>
<path d="M107.844 123.401C112.208 123.445 116.65 122.158 120.893 124.181C116.595 124.181 112.307 124.181 108.009 124.181C107.954 123.917 107.899 123.654 107.855 123.39L107.844 123.401Z" fill="#737279"/>
<path d="M152.694 104.487C152.672 100.144 152.639 95.8003 152.617 91.4458C154.222 95.7783 154.343 100.122 152.694 104.487Z" fill="#A4A2AF"/>
<path d="M78.8522 75.0835C80.6661 77.3157 79.5118 79.8559 79.6217 82.264C78.8962 82.7809 78.2146 82.7919 77.6099 82.0771C77.3021 79.6139 77.0822 77.1728 78.8522 75.0835Z" fill="#565559"/>
<path d="M112.602 54.2012C114.174 54.2012 115.757 54.2012 117.329 54.2012C117.23 55.3118 117.549 56.7193 116.164 57.1812C114.295 57.8079 113.339 56.5104 112.58 55.0699C112.58 54.784 112.591 54.4981 112.602 54.2012Z" fill="#EEEBFF"/>
<path d="M123.189 54.1572C124.355 54.1572 125.52 54.1682 126.696 54.1792C127.092 54.5201 127.488 54.85 127.884 55.1909C127.73 56.4115 127.356 57.5001 125.839 57.3241C124.014 57.1152 123.354 55.8177 123.189 54.1572Z" fill="#EEEBFF"/>
<path d="M92.606 135.97C92.0893 139.093 94.1231 142.534 91.4296 145.383C92.1772 142.293 90.3193 138.873 92.606 135.97Z" fill="#7B7A81"/>
<path d="M92.7037 62.1627C93.6052 62.6136 93.8361 63.4383 93.913 64.351C91.4944 64.7468 89.3947 62.4926 86.9102 63.5152C88.4053 61.206 90.7689 62.5916 92.7147 62.1627H92.7037Z" fill="#D3D0E1"/>
<path d="M125.466 64.3946L116.308 64.3506C115.88 64.2517 115.715 64.0977 115.792 63.8778C115.88 63.6359 115.99 63.5039 116.111 63.5039C119.266 63.5149 122.421 63.5369 125.587 63.5479C125.939 63.7788 126.038 63.9877 125.884 64.1527C125.752 64.3066 125.62 64.3836 125.477 64.3836L125.466 64.3946Z" fill="#7E7C84"/>
<path d="M77.6113 82.0767C78.2819 82.1426 78.9525 82.1976 79.6231 82.2636C79.5682 84.6168 80.8324 87.1899 78.5128 89.1802C78.194 86.816 79.3043 84.2649 77.6113 82.0767Z" fill="#78777F"/>
<path d="M125.465 64.3948C125.509 64.1199 125.542 63.834 125.575 63.5591C128.697 63.5591 131.819 63.5591 134.952 63.5591C135.304 63.79 135.403 64.0099 135.271 64.2079C135.139 64.3948 135.018 64.4938 134.886 64.4938C131.742 64.4608 128.609 64.4168 125.465 64.3838V64.3948Z" fill="#636368"/>
<path d="M153.696 77.4365C155.917 80.1416 153.696 82.1759 152.652 84.3861L152.355 84.5401C151.696 82.5388 151.751 80.5375 152.322 78.5361L152.586 78.6461C152.938 78.2173 152.982 77.5135 153.707 77.4475L153.696 77.4365Z" fill="#EEEBFF"/>
<path d="M139.602 123.379C142.317 123.258 145.043 123.148 147.759 123.027C145.131 125.237 142.383 124.753 139.602 123.379Z" fill="#D4D1E3"/>
<path d="M91.4062 153.761C93.7589 156.411 93.0003 159.171 91.7031 161.953C91.6041 159.226 91.5052 156.499 91.4062 153.761Z" fill="#828189"/>
<path d="M108.041 146.57C105.314 146.02 102.214 147.933 99.8066 145.294C102.467 146.284 105.633 143.953 108.041 146.57Z" fill="#5C5C60"/>
<path d="M134.931 183.176C134.524 183.044 134.118 182.923 133.711 182.791C136.459 181.263 139.208 181.186 141.956 182.791L134.931 183.187V183.176Z" fill="#C5C3D2"/>
<path d="M153.696 77.4367C153.322 77.8325 152.948 78.2394 152.574 78.6353C152.607 76.2821 152.64 73.9289 152.673 71.5757C154.41 73.2911 153.355 75.4794 153.696 77.4367Z" fill="#D7D4E5"/>
<path d="M111.459 63.1519C111.635 62.2392 111.822 61.3265 112.965 61.2056C114.416 61.0406 114.79 62.0303 114.977 63.1849C113.79 64.2405 112.624 64.2845 111.459 63.1519Z" fill="#EEEBFF"/>
<path d="M107.842 123.401C107.897 123.665 107.952 123.929 107.996 124.192C105.577 124.17 103.038 125.05 100.828 123.302C103.159 123.335 105.5 123.368 107.831 123.401H107.842Z" fill="#9795A0"/>
<path d="M99.9817 160.733C100.191 158.424 98.4426 155.828 100.982 153.871C100.388 156.125 101.862 158.676 99.9817 160.733Z" fill="#C0BECD"/>
<path d="M147.869 64.428L140.911 64.45C140.515 64.329 140.35 64.1531 140.405 63.9112C140.471 63.6363 140.559 63.5043 140.658 63.5043C143.098 63.5043 145.66 62.5587 147.858 64.428H147.869Z" fill="#9A98A3"/>
<path d="M140.669 63.5039C140.757 63.8228 140.834 64.1307 140.922 64.4496C138.91 64.4716 136.899 64.4826 134.887 64.5046C134.909 64.1967 134.931 63.8778 134.953 63.5699C136.855 63.5479 138.767 63.5259 140.669 63.5039Z" fill="#4A494C"/>
<path d="M78.4456 113.812C78.9843 114.923 80.3804 115.747 79.6219 117.309C77.2253 116.825 76.8735 115.637 78.4456 113.812Z" fill="#EEEBFF"/>
<path d="M111.46 63.1523C112.636 63.1523 113.801 63.1743 114.977 63.1853C115.34 63.3283 115.714 63.4383 116.099 63.5262C116.165 63.8121 116.231 64.087 116.297 64.3619C114.252 64.4169 112.108 65.1537 110.283 63.5592C110.679 63.4273 111.064 63.2843 111.46 63.1523Z" fill="#565559"/>
<path d="M152.543 116.209C152.554 114.186 152.565 112.162 152.576 110.139C154.258 112.173 154.302 114.197 152.543 116.209Z" fill="#5E5D62"/>
<path d="M164.094 182.913C162.159 182.891 160.236 182.869 158.301 182.847C159.961 181.197 162.105 182.011 164.028 181.725C164.05 182.121 164.072 182.517 164.094 182.913Z" fill="#B9B7C5"/>
<path d="M137.284 71.7076C139.131 73.6979 142.308 71.4657 144.034 73.8409C143.529 78.5803 143.342 83.3196 144.133 88.048C144.21 88.3889 144.32 88.7188 144.441 89.0377C145.606 92.9524 144.078 97.065 145.299 100.98C143.397 102.871 145.672 104.817 145.233 106.72C144.155 108.908 145.716 111.492 144.221 113.625C140.736 116.154 136.251 113.988 132.678 116.088C132.282 115.748 131.865 115.451 131.403 115.209C129.039 114.835 126.676 114.747 124.334 115.374C123.543 115.55 122.762 115.583 122.025 115.176C120.453 115.561 118.892 115.945 117.32 116.33C116.078 117.078 114.913 117.122 113.857 116C107.217 116.726 100.577 114.758 93.9371 115.978C92.1671 114.813 89.8695 116.396 88.1765 114.868C87.4839 113.878 86.4725 113.01 86.9233 111.58C88.1875 109.304 86.7803 106.687 87.8467 104.399C88.1105 98.5165 85.7469 92.7544 87.1101 86.8274C88.0446 82.165 86.8683 77.4037 87.7478 72.7303C89.3748 71.8616 91.0348 72.1035 92.7058 72.5323C101.698 72.8842 110.691 72.8952 119.651 71.8396C122.795 72.3674 125.939 72.5103 129.072 71.7296C129.446 71.5537 129.831 71.5537 130.205 71.7296C132.568 72.4774 134.921 72.4774 137.284 71.7296V71.7076Z" fill="white"/>
<path d="M88.0637 72.9834C87.5141 77.5798 89.0202 82.3082 87.1073 86.8166C86.9424 82.5171 86.7775 78.2286 86.6126 73.929C86.5906 72.8294 86.8435 72.1696 88.0637 72.9834Z" fill="#DEDEDE"/>
<path d="M144.133 88.048C142.462 83.3196 142.539 78.5912 144.034 73.8408C144.067 78.5802 144.1 83.3086 144.133 88.048Z" fill="#B5B5B5"/>
<path d="M145.307 100.98C143.196 97.1308 144.713 93.0182 144.449 89.0376C146.527 92.8863 145.054 96.9989 145.307 100.98Z" fill="#A3A3A3"/>
<path d="M122.023 115.176C122.804 115.033 123.574 114.89 124.354 114.747C127.08 114.483 129.84 113.647 132.467 115.187C132.533 115.495 132.599 115.791 132.676 116.099C129.125 115.736 125.431 117.133 122.023 115.187V115.176Z" fill="#404040"/>
<path d="M129.072 71.7183C125.95 73.2687 122.806 73.3457 119.65 71.8282C122.795 71.7952 125.939 71.7622 129.072 71.7183Z" fill="#D0D0D0"/>
<path d="M88.0644 72.9829C87.2509 72.7959 86.8991 73.3128 86.6133 73.9285C87.7786 69.706 90.384 71.7623 92.7037 72.521L88.0644 72.9829Z" fill="#555555"/>
<path d="M87.846 104.388C87.6261 106.796 89.2092 109.435 86.9225 111.569C87.1424 109.161 85.9991 106.576 87.846 104.388Z" fill="#616161"/>
<path d="M144.231 113.625C144.67 111.338 143.45 108.809 145.242 106.72C144.978 109.029 146.825 111.657 144.231 113.625Z" fill="#C9C9C9"/>
<path d="M137.283 71.707C134.93 73.3785 132.567 73.2245 130.203 71.707C132.567 71.707 134.919 71.707 137.283 71.707Z" fill="#D0D0D0"/>
<path d="M113.855 116C115.009 116.11 116.163 116.22 117.318 116.33C117.131 117.276 116.922 118.244 115.691 118.288C114.119 118.332 113.943 117.188 113.844 116H113.855Z" fill="#333333"/>
<path d="M152.311 78.5361L152.344 84.5401C150.925 82.5498 150.651 80.5484 152.311 78.5361Z" fill="#6D6C73"/>
<path d="M88.1758 114.856C90.0667 115.373 92.2983 114.142 93.9364 115.967C91.9905 115.725 89.6929 117.298 88.1758 114.856Z" fill="#B2B2B2"/>
<path d="M132.478 115.176L124.365 114.736C127.147 113.383 129.895 112.79 132.478 115.176Z" fill="#E5E5E5"/>
</g>
<defs>
<clipPath id="clip0_936_15082">
<rect width="240" height="240" fill="white"/>
</clipPath>
</defs>
</svg>
