<svg width="240" height="240" viewBox="0 0 240 240" fill="none" xmlns="http://www.w3.org/2000/svg">
<g clip-path="url(#clip0_936_11807)">
<rect width="1421" height="799" transform="translate(-1131 -61)" fill="white"/>
<path d="M182.51 172.926C183.769 178.409 180.742 180.292 173.512 179.293C170.589 179.335 167.676 176.078 164.742 179.252C164.004 179.252 163.265 179.272 162.527 179.272C159.739 178.222 157.003 177.525 154.777 180.386C147.079 178.804 139.183 181.436 131.516 179.283C129.446 176.817 127.813 179.189 126.024 179.793C125.545 179.917 125.088 179.886 124.64 179.689C122.539 178.086 120.583 179.501 118.575 179.99C115.975 180.011 113.374 179.99 110.784 179.99C110.274 180.001 109.785 179.917 109.307 179.761C107.798 178.326 106.238 177.649 104.501 179.449C103.897 179.855 103.221 180.105 102.607 180.479C101.536 180.448 100.475 180.417 99.4034 180.375C97.8326 177.753 96.0225 178.346 94.1292 179.98C92.5376 179.886 90.9148 180.271 89.3648 179.637C88.6783 179.626 87.9917 179.616 87.3051 179.595C85.6199 180.334 83.8411 179.845 82.1142 179.99C80.1169 180.146 78.0884 179.637 76.1327 180.354C75.3941 180.354 74.6555 180.334 73.917 180.334C72.0757 179.439 70.2344 178.419 68.4139 180.375C64.9394 181.155 63.4831 179.241 62.8485 176.214C60.2583 172.781 63.8992 168.609 61.5274 165.155C60.976 163.313 61.3401 161.42 61.2361 159.557C61.2361 156.832 61.2361 154.106 61.2361 151.391C61.1737 148.852 61.7043 146.178 59.7382 144.014C59.6757 142.912 59.5197 141.809 59.5717 140.716C59.7485 136.753 60.1335 133.725 53.9231 134.193C47.1822 134.714 45.1849 131.707 45.1641 124.872C45.1641 122.073 45.1641 119.264 45.1641 116.466C45.1641 113.875 46.6204 112.065 49.0234 112.044C51.9777 112.023 54.5472 110.379 57.5847 110.702C60.1854 110.983 62.0787 109.089 62.6717 106.801C67.4361 88.4902 80.9387 79.6679 97.6453 74.2996C99.2265 73.7898 100.132 73.2592 100.548 71.5738C103.221 60.9829 103.252 61.0037 113.728 60.9413C115.195 60.9413 116.661 60.8269 118.139 60.7645C120.698 60.0466 123.309 60.5876 125.888 60.4211C127.813 60.598 129.79 60.0154 131.662 60.8581C135.823 62.1481 138.861 64.0208 139.578 69.1186C140.286 74.1539 145.196 75.1839 149.294 76.5052C163.723 81.166 172.908 91.5176 179.961 104.314C180.96 106.135 178.089 110.796 183.561 109.526C185.797 108.933 188.034 108.954 190.281 109.506C196.554 112.491 198.738 120.835 195.534 129.533C192.028 131.104 188.221 129.387 184.674 130.5C182.697 132.144 183.862 134.266 183.79 136.212C184.268 137.158 184.122 138.168 184.091 139.166C183.862 140.467 181.428 141.559 183.717 143.109C184.05 143.432 184.351 143.786 184.611 144.17C183.176 146.938 183.842 149.986 183.457 152.889C182.77 155.105 182.833 157.321 183.426 159.547C183.426 161.024 183.426 162.512 183.426 163.989C181.584 166.819 182.292 169.899 182.562 172.937L182.51 172.926Z" fill="#333333"/>
<path d="M154.775 180.375C154.775 178.721 154.921 176.39 156.783 176.65C158.718 176.921 161.724 176.089 162.536 179.262C160.185 181.28 157.438 180.5 154.786 180.375H154.775Z" fill="#333333"/>
<path d="M164.742 179.241C167.697 172.718 170.599 177.587 173.512 179.283L173.657 179.595C171.046 180.188 168.435 180.219 165.824 179.584C165.46 179.47 165.096 179.356 164.742 179.241Z" fill="#333333"/>
<path d="M182.511 172.926C179.702 169.649 179.743 166.642 183.374 163.979C183.176 166.975 184.737 170.128 182.511 172.926Z" fill="#333333"/>
<path d="M61.901 165.061C63.8151 168.65 62.4523 172.5 62.8164 176.214C60.4758 174.997 59.9765 172.999 61.1 170.877C61.9426 169.275 61.7138 167.797 61.5682 166.226C61.2249 165.706 61.3393 165.321 61.901 165.061Z" fill="#333333"/>
<path d="M94.9707 179.22C95.1996 177.743 95.6781 176.224 97.4778 176.567C99.4543 176.942 99.3814 178.783 99.4022 180.375C98.0707 181.103 97.2489 179.719 96.1358 179.574C95.5741 180.042 95.1892 179.928 94.9707 179.23V179.22Z" fill="#333333"/>
<path d="M125.982 179.262C127.834 177.212 129.675 173.571 131.517 179.262C130.799 179.387 130.081 179.511 129.363 179.636C128.177 180 126.991 180.396 125.982 179.262Z" fill="#333333"/>
<path d="M68.3828 180.375C70.1721 174.736 72.0342 178.273 73.8858 180.333C72.055 180.344 70.2137 180.365 68.3828 180.375Z" fill="#333333"/>
<path d="M184.643 130.5C188.117 128.596 191.914 130.219 195.503 129.532C192.081 132.081 188.273 130.25 184.643 130.5Z" fill="#656467"/>
<path d="M109.276 179.574C112.646 179.449 116.027 179.314 119.397 179.189C119.814 178.97 120.219 178.991 120.604 179.282C120.833 179.74 120.719 180.073 120.25 180.271C116.672 180.312 113.093 180.364 109.515 180.406C109.151 180.312 108.995 180.156 109.047 179.948C109.099 179.709 109.182 179.584 109.276 179.584V179.574Z" fill="#7C7C7F"/>
<path d="M120.25 180.261C120.312 180 120.385 179.74 120.469 179.491C121.873 178.169 123.35 178.315 124.869 179.272C125.243 179.272 125.607 179.272 125.982 179.262C127.105 179.387 128.239 179.512 129.363 179.636C126.44 181.561 123.298 180.24 120.25 180.261Z" fill="#BABABC"/>
<path d="M59.707 144.014C63.452 145.315 61.0178 148.477 61.7252 150.693C61.3923 151.172 61.0802 151.151 60.8098 150.631C60.4457 148.425 60.0815 146.22 59.7174 144.014H59.707Z" fill="#333333"/>
<path d="M60.8086 150.642C61.1103 150.662 61.4224 150.683 61.724 150.704C61.724 153.669 61.7136 156.634 61.7032 159.599C61.2559 160.046 60.9646 159.932 60.8086 159.349C60.8086 156.447 60.8086 153.544 60.8086 150.652V150.642Z" fill="#49494A"/>
<path d="M125.878 60.8161C123.288 60.8057 120.698 60.7849 118.107 60.7745C120.594 58.7874 123.413 60.348 126.045 60.0254C126.346 60.2751 126.419 60.4728 126.263 60.6289C126.138 60.7537 126.003 60.8161 125.868 60.8161H125.878Z" fill="#9D9DA0"/>
<path d="M183.426 139.582C183.54 138.459 183.644 137.325 183.758 136.201C185.745 138.677 184.164 141.517 184.57 144.15C184.279 144.066 183.987 144.004 183.686 143.973C182.354 142.579 182.385 141.112 183.426 139.582Z" fill="#BBBABD"/>
<path d="M165.824 179.584C168.435 179.584 171.046 179.584 173.657 179.595C171.046 181.051 168.435 181.187 165.824 179.584Z" fill="#D2D2D3"/>
<path d="M109.274 179.574C109.357 179.844 109.441 180.125 109.513 180.406C107.204 180.427 104.905 180.458 102.596 180.479C103.001 180.083 103.418 179.699 103.823 179.303C105.696 178.065 107.558 177.961 109.389 179.376L109.264 179.574H109.274Z" fill="#C7C7C9"/>
<path d="M183.384 159.526C181.938 157.3 182.021 155.084 183.415 152.868C183.405 155.084 183.394 157.31 183.384 159.526Z" fill="#545355"/>
<path d="M190.249 109.505C188.013 109.505 185.776 109.516 183.529 109.526C185.766 108.174 188.002 108.018 190.249 109.505Z" fill="#C9C8CA"/>
<path d="M94.9723 179.22C95.3572 179.335 95.7525 179.449 96.1374 179.564C93.8904 180.916 91.633 181.311 89.3652 179.626C91.2377 179.491 93.1102 179.356 94.9827 179.21L94.9723 179.22Z" fill="#ABABAE"/>
<path d="M60.7978 159.339C61.0995 159.401 61.4011 159.485 61.6924 159.589C61.7548 161.409 61.8276 163.23 61.89 165.05C61.7755 165.435 61.6716 165.831 61.5571 166.216C59.7991 164.093 60.881 161.648 60.7874 159.339H60.7978Z" fill="#B9B9BB"/>
<path d="M125.878 60.8165C125.94 60.5564 125.992 60.2859 126.044 60.0258C127.948 60.0154 129.997 59.0479 131.63 60.8685C129.706 60.8477 127.792 60.8373 125.867 60.8165H125.878Z" fill="#6D6D70"/>
<path d="M76.1113 180.354C77.8174 178.783 79.877 179.72 81.7703 179.543C82.072 179.824 82.1345 180.032 81.968 180.188C81.8328 180.313 81.6975 180.375 81.5519 180.375C79.7418 180.375 77.9214 180.365 76.1113 180.354Z" fill="#605F61"/>
<path d="M81.5514 180.375C81.6138 180.094 81.6866 179.823 81.7698 179.542C83.6111 179.563 85.442 179.584 87.2833 179.594C85.5773 181.394 83.4759 180.26 81.541 180.364L81.5514 180.375Z" fill="#A8A8AA"/>
<path d="M128.228 118.671C128.966 118.702 129.705 118.733 130.433 118.765C131.484 119.306 132.555 119.743 133.783 119.514C140.69 117.547 147.795 119.17 154.765 118.348C156.107 117.807 157.501 118.047 158.874 118.109C161.1 119.649 163.482 119.326 165.896 118.723L175.685 118.421C178.722 117.776 181.76 117.776 184.797 118.421C185.536 120.377 189.115 118.556 188.875 120.918C188.605 123.581 185.89 122.739 183.976 123.03C180.137 123.602 176.787 125.184 174.54 128.544C173.635 131.176 175.497 133.746 174.748 136.378C174.676 136.732 174.717 137.065 174.884 137.377C176.444 139.218 177.443 141.07 174.884 142.911C174.655 143.608 175.019 143.921 175.633 144.066C176.881 147.843 176.746 151.526 174.884 155.094C174.852 156.53 174.821 157.955 174.79 159.391C175.653 161.201 175.061 163.115 175.237 164.978C175.009 166.819 175.768 168.754 174.676 170.512C173.979 170.897 173.282 171.282 172.585 171.667C169.922 170.023 167.425 174.164 164.751 171.886H161.391C159.186 172.988 156.991 172.988 154.786 171.886C150.708 171.886 146.641 171.875 142.563 171.865C140.368 172.458 138.162 172.427 135.967 171.886C134.48 171.886 133.003 171.886 131.515 171.886C129.674 173.3 127.833 172.759 126.002 171.896H122.631C120.582 172.583 118.47 172.094 116.39 172.239C114.642 172.239 112.884 172.239 111.136 172.239C110.575 172.239 110.002 172.239 109.43 172.26C106.653 172.343 103.886 171.334 101.108 172.208C99.4126 172.364 97.6961 172.936 96.0837 171.875C93.1189 171.875 90.1647 171.875 87.1999 171.875C83.8711 172.666 80.4798 172.042 77.1301 172.239C75.06 172.073 72.9587 172.26 70.9406 171.573C70.4101 171.303 69.942 170.949 69.5259 170.523L69.557 170.564C68.2566 168.785 67.9446 166.965 69.2969 165.061C70.514 162.345 67.7365 160.036 68.5375 157.362C69.1305 152.816 69.661 148.28 67.3829 143.973C66.4466 140.643 69.0577 137.283 67.2997 133.964C67.154 126.286 66.2073 125.444 58.1349 125.184C56.5017 125.132 53.9115 126.422 53.9219 122.832C53.9219 119.586 55.0141 117.995 58.4366 118.733C60.1322 120.2 62.2335 119.097 64.0748 119.618C71.367 118.4 78.6697 120.086 85.9619 119.576C89.6341 118.359 93.5247 119.899 97.1968 118.702C97.5401 118.577 97.8938 118.473 98.2475 118.38C100.619 117.963 103.054 117.204 104.978 119.503C110.054 118.078 115.401 120.429 120.426 118.38C123.047 117.745 125.648 117.787 128.217 118.681L128.228 118.671Z" fill="white"/>
<path d="M78.2847 110.629C77.2444 110.66 76.2041 110.691 75.1534 110.722C74.2172 109.807 72.6985 110.702 71.8038 109.661C69.172 105.084 72.9274 102.171 75.1015 99.4137C83.3508 88.9372 93.8054 82.2685 107.526 80.7079C114.07 79.9588 120.457 78.1174 127.104 79.5635C128.946 79.1161 130.787 79.0017 132.618 79.6467C138.578 81.8939 144.737 83.7354 150.448 86.4923C160.299 91.2364 168.018 98.1964 171.44 109.776H164.887C162.203 110.483 159.519 110.462 156.835 109.776C151.322 108.735 146.006 111.367 140.503 110.66C138.204 109.963 135.905 109.921 133.616 110.681C132.93 110.67 132.253 110.65 131.567 110.639C129.31 109.921 127.052 110.025 124.785 110.587C118.564 109.287 112.364 111.315 106.143 110.66C102.388 109.953 98.6219 109.89 94.8665 110.691C91.6001 110.66 88.3232 110.629 85.0568 110.608C82.7994 109.994 80.5316 109.963 78.2742 110.629H78.2847Z" fill="#EEEBFF"/>
<path d="M109.483 68.8168C114.518 68.5671 119.564 68.5359 124.567 67.6724C127.397 67.1834 130.247 67.6412 132.868 71.116H113.873C112.157 70.8247 108.89 73.4881 109.473 68.8168H109.483Z" fill="#FDFDFD"/>
<path d="M96.0957 171.875C97.9266 171.771 99.7679 171.678 101.599 171.573C104.199 170.928 106.79 170.949 109.39 171.563C109.734 171.688 110.087 171.802 110.431 171.917C110.815 172.104 110.951 172.291 110.836 172.499C110.722 172.707 110.597 172.822 110.472 172.822C108.433 175.027 106.145 176.38 103.669 173.665C101.453 171.241 97.8017 175.797 96.0957 171.886V171.875Z" fill="#333333"/>
<path d="M67.3103 133.954C69.7029 137.034 67.6015 140.685 68.5585 143.952C68.9538 145.128 69.3076 146.303 68.2153 147.333C65.4482 145.034 64.1478 142.662 66.6756 139.146C67.5702 137.907 67.1334 135.712 67.3103 133.954Z" fill="#333333"/>
<path d="M174.895 155.094C175.186 151.422 176.476 147.822 175.643 144.066C176.517 147.822 179.721 151.723 174.895 155.094Z" fill="#333333"/>
<path d="M68.2148 147.333C68.3293 146.209 68.4437 145.075 68.5581 143.952C70.0665 148.425 70.1081 152.888 68.5581 157.352C68.4437 154.012 68.3397 150.672 68.2253 147.333H68.2148Z" fill="#B6B5B8"/>
<path d="M69.5376 170.523C69.8289 170.596 70.1307 170.669 70.422 170.741C71.7743 171.48 73.2723 170.991 74.687 171.241C75.3736 171.574 75.8209 172.136 76.133 172.812C72.6273 175.808 70.5884 174.56 69.5273 170.523H69.5376Z" fill="#333333"/>
<path d="M164.762 171.886C167.383 172.291 169.901 168.816 172.595 171.667C169.973 171.417 167.508 176.494 164.762 171.886Z" fill="#333333"/>
<path d="M109.399 179.376C107.548 179.355 105.686 179.324 103.834 179.303C105.738 175.808 107.61 174.518 109.399 179.376Z" fill="#333333"/>
<path d="M174.76 136.368C173.584 133.788 172.721 131.197 174.552 128.534C174.926 131.135 177.444 133.684 174.76 136.368Z" fill="white"/>
<path d="M126.002 171.896C127.843 171.896 129.685 171.896 131.515 171.886C129.685 177.545 127.843 173.987 126.002 171.896Z" fill="#333333"/>
<path d="M76.1418 172.811C75.7673 172.499 75.3927 172.198 75.0078 171.886C75.2471 171.303 75.6424 171.168 76.1937 171.49C79.8659 171.615 83.5381 171.74 87.2102 171.875C83.6525 173.8 79.8243 172.375 76.1418 172.822V172.811Z" fill="#434344"/>
<path d="M69.3079 165.061C69.3911 166.892 69.4848 168.734 69.568 170.565C67.1025 168.848 63.8465 167.163 69.3079 165.061Z" fill="#333333"/>
<path d="M174.895 142.912C176.684 141.07 174.271 139.218 174.895 137.377C176.705 137.585 178.016 138.397 177.86 140.404C177.725 142.111 176.455 142.756 174.895 142.912Z" fill="#333333"/>
<path d="M94.877 110.702C98.6323 109.141 102.388 109.006 106.153 110.671C102.398 110.681 98.6427 110.692 94.877 110.702Z" fill="#807F87"/>
<path d="M183.426 139.583C183.509 141.049 183.603 142.506 183.686 143.973C182.136 143.89 180.586 143.546 180.659 141.642C180.711 140.134 182.074 139.697 183.426 139.583Z" fill="#333333"/>
<path d="M154.797 171.886H161.403C159.197 174.757 157.002 174.757 154.797 171.886Z" fill="#333333"/>
<path d="M97.2076 118.692C93.5874 120.627 89.7176 119.306 85.9727 119.566C89.572 117.412 93.4626 118.994 97.2076 118.692Z" fill="#C9C9CB"/>
<path d="M124.868 179.272C123.402 179.345 121.935 179.418 120.468 179.491C120.114 179.386 119.75 179.282 119.396 179.178C121.259 177.139 123.1 175.693 124.868 179.272Z" fill="#333333"/>
<path d="M184.798 118.411C181.761 118.411 178.723 118.411 175.686 118.411C178.723 116.767 181.761 117.006 184.798 118.411Z" fill="#ABABAE"/>
<path d="M128.229 118.671C125.628 118.567 123.038 118.473 120.438 118.369C123.09 117.027 125.712 116.622 128.229 118.671Z" fill="#4C4C4D"/>
<path d="M64.0854 119.597C61.9737 120.752 59.9348 121.48 58.4473 118.713C60.3614 118.796 62.473 117.589 64.0854 119.597Z" fill="white"/>
<path d="M156.836 109.786C159.52 109.786 162.204 109.786 164.888 109.786C162.204 111.513 159.52 111.274 156.836 109.786Z" fill="#C4C2D1"/>
<path d="M104.988 119.493C102.918 118.078 100.484 118.837 98.2578 118.369C100.692 117.62 103.324 115.643 104.988 119.493Z" fill="#636365"/>
<path d="M109.482 68.8169C109.42 72.5102 112.478 70.2422 113.883 71.1161C112.156 72.531 110.252 72.5102 108.671 71.1889C107.912 70.5543 108.047 69.2226 109.482 68.8169Z" fill="#89888B"/>
<path d="M135.969 171.886C138.164 171.886 140.369 171.875 142.564 171.865C140.369 173.321 138.174 173.3 135.969 171.886Z" fill="#333333"/>
<path d="M116.047 171.885C118.242 171.885 120.437 171.885 122.632 171.885C120.614 173.581 118.211 172.499 116.006 172.801C115.642 172.572 115.527 172.364 115.662 172.166C115.787 171.979 115.922 171.875 116.047 171.875V171.885Z" fill="#333333"/>
<path d="M174.688 170.502C174.75 168.744 174.802 166.996 174.864 165.238C174.999 164.676 175.301 164.582 175.749 164.947C175.686 166.84 175.624 168.733 175.54 170.627C175.54 170.689 175.26 170.814 175.135 170.783C174.979 170.752 174.844 170.606 174.698 170.513L174.688 170.502Z" fill="#59595B"/>
<path d="M165.908 118.712C163.64 120.294 161.382 120.055 159.125 118.692C159.395 118.161 159.791 118.026 160.311 118.359C162.173 118.484 164.045 118.598 165.908 118.723V118.712Z" fill="#B9B8BA"/>
<path d="M78.2852 110.629C80.5425 109.256 82.7999 109.131 85.0677 110.608C82.8103 110.608 80.5425 110.619 78.2852 110.629Z" fill="#A5A3AF"/>
<path d="M124.785 110.598C127.063 109.048 129.321 109.276 131.568 110.65C129.31 110.629 127.043 110.608 124.785 110.598Z" fill="#A4A2AE"/>
<path d="M133.617 110.692C135.906 109.162 138.205 109.058 140.504 110.671C138.205 110.671 135.916 110.692 133.617 110.692Z" fill="#75747B"/>
<path d="M175.737 164.946C175.446 165.05 175.155 165.154 174.853 165.237C174.832 163.292 174.811 161.336 174.801 159.391C176.694 160.972 175.529 163.074 175.737 164.946Z" fill="#C9C8CA"/>
<path d="M71.8044 109.661C72.9799 109.828 74.4258 109.141 75.154 110.723C73.7081 110.723 72.2622 110.712 70.8266 110.671C70.7954 110.671 70.6809 110.005 70.785 109.942C71.0762 109.765 71.4611 109.745 71.8044 109.661Z" fill="#4F4F51"/>
<path d="M160.31 118.349C159.915 118.463 159.52 118.578 159.124 118.682C157.668 118.567 156.222 118.453 154.766 118.338C156.617 116.965 158.459 117.038 160.3 118.338L160.31 118.349Z" fill="#4B4B4C"/>
<path d="M132.619 79.6469C130.778 79.6157 128.947 79.5949 127.105 79.5637C128.968 78.232 130.798 78.2216 132.619 79.6469Z" fill="#414143"/>
<path d="M133.783 119.503C132.129 121.688 131.359 119.878 130.434 118.754C131.619 118.692 132.982 117.849 133.783 119.503Z" fill="white"/>
<path d="M116.048 171.885C116.017 172.187 115.996 172.499 115.996 172.801C114.154 172.801 112.313 172.801 110.462 172.801C110.462 172.499 110.451 172.198 110.42 171.896C112.292 171.896 114.165 171.885 116.037 171.875L116.048 171.885Z" fill="#555557"/>
<path d="M109.389 171.553C106.789 171.553 104.198 171.553 101.598 171.563C104.188 170.076 106.789 169.961 109.389 171.553Z" fill="#D4D3D5"/>
<path d="M76.1953 171.49C75.8 171.626 75.4046 171.751 75.0093 171.886C73.5322 171.282 71.6286 172.427 70.4219 170.741C72.388 170.679 74.4268 170.013 76.1953 171.49Z" fill="#C2C2C4"/>
</g>
<defs>
<clipPath id="clip0_936_11807">
<rect width="240" height="240" fill="white"/>
</clipPath>
</defs>
</svg>
